# 3ds Max Wavefront OBJ Exporter v0.97b - (c)2007 guruware
# File Created: 06.04.2026 17:07:06

mtllib tile_single_1.mtl

#
# object tile_single
#

v  -0.4645 10.0005 0.4678
v  0.4719 9.9982 0.4736
v  0.4703 10.0005 -0.4703
v  -0.4669 10.0005 -0.4707
v  0.6815 9.5858 -0.3933
v  0.5000 9.6764 -0.3934
v  0.5000 9.6344 -0.0433
v  0.6818 9.5470 -0.0403
v  0.5000 9.9676 -0.4658
v  0.5000 9.6617 -0.4063
v  0.6755 9.5719 -0.4050
v  0.1550 9.0231 -0.6409
v  0.1686 9.0168 -0.6235
v  0.1693 8.2318 -0.6255
v  0.1521 8.2224 -0.6435
v  0.1564 9.0405 -0.6254
v  0.1698 9.0593 -0.5000
v  0.1695 8.2918 -0.5042
v  0.2530 8.2856 -0.5009
v  0.1539 9.0829 -0.5041
v  0.4730 9.9707 -0.4986
v  0.4747 7.0326 -0.5005
v  0.2775 7.0360 -0.5000
v  0.2796 8.2712 -0.5000
v  0.6999 7.3786 -0.2680
v  0.6999 7.0373 -0.2692
v  0.6999 7.0356 -0.3922
v  0.6996 9.5598 -0.3934
v  0.7001 7.4005 -0.2440
v  0.6999 9.5230 -0.0419
v  0.6337 8.2430 0.2785
v  0.6385 8.2065 0.2878
v  0.6574 8.2180 0.2761
v  0.6757 9.5241 -0.0284
v  0.6415 8.2749 -0.0267
v  0.6577 8.2524 -0.0235
v  0.5000 9.6016 -0.0270
v  0.5000 8.3484 -0.0232
v  0.5000 8.3099 0.2851
v  0.5017 7.4570 0.2885
v  0.6401 7.4176 0.2906
v  0.5000 8.2638 0.2914
v  0.6576 7.4193 0.2759
v  0.6577 7.4153 -0.0260
v  0.8110 7.3493 -0.2662
v  0.8096 7.3694 -0.2432
v  0.6999 7.4079 -0.0404
v  0.6819 7.4098 -0.0276
v  0.8119 7.3687 0.4019
v  0.7507 7.0369 -0.2679
v  0.7638 7.0136 -0.2679
v  0.8151 3.6335 -0.2650
v  0.7642 3.6390 -0.2684
v  0.7641 3.6383 -0.5547
v  0.7642 7.0122 -0.5509
v  0.7470 3.6442 -0.5718
v  0.7424 7.0115 -0.5728
v  0.5724 6.1985 -0.5728
v  0.5486 6.2114 -0.5733
v  0.6831 7.0344 -0.4041
v  0.5051 7.0376 -0.4050
v  0.7398 7.0326 -0.5391
v  0.5008 7.0326 -0.4731
v  0.5663 6.0431 -0.7904
v  0.5469 6.0646 -0.7914
v  0.2756 7.0349 -0.5552
v  0.2780 7.0124 -0.5728
v  0.2798 6.2141 -0.5728
v  0.2734 8.1681 -0.7013
v  0.2743 6.1271 -0.7008
v  0.2491 6.1085 -0.7264
v  0.2550 8.1695 -0.7184
v  0.2476 8.1911 -0.7000
v  -0.0180 8.1650 -0.7214
v  -0.0189 8.1921 -0.6984
v  -0.0394 8.1680 -0.7012
v  -0.0214 6.1157 -0.7196
v  -0.0372 6.1284 -0.7038
v  -0.0178 8.2226 -0.6435
v  -0.0415 6.1608 -0.6508
v  -0.0442 8.1964 -0.6435
v  -0.2393 9.0593 -0.6429
v  -0.2344 9.0792 -0.6266
v  -0.2362 6.1742 -0.6435
v  -0.3090 6.0623 -0.7947
v  -0.2541 9.0696 -0.6260
v  -0.2586 6.1824 -0.6170
v  0.5664 3.6965 -0.5728
v  0.9160 3.5924 -0.8377
v  0.5661 3.6939 -0.7987
v  0.5460 3.7004 -0.8131
v  0.5367 6.0374 -0.8131
v  0.3157 3.7681 -0.8131
v  0.3187 3.7643 -0.8336
v  0.3001 3.7469 -0.8363
v  0.3143 3.7436 -0.8522
v  0.2983 0.0049 -0.8361
v  0.2970 0.0013 -0.8131
v  0.2951 3.7510 -0.8131
v  0.3161 0.0027 -0.8540
v  0.9201 3.5699 -0.8540
v  0.9380 3.5676 -0.8354
v  0.9169 0.0006 -0.8542
v  0.9380 0.0019 -0.8343
v  0.9355 3.5695 -0.2296
v  0.9191 3.5921 -0.2310
v  0.9209 3.5706 -0.2150
v  0.9352 0.0027 -0.2294
v  0.9158 0.0024 -0.2140
v  -0.1358 9.8741 0.5020
v  -0.1336 9.8383 0.5801
v  0.3291 9.8432 0.5800
v  0.3341 9.8825 0.5000
v  -0.1338 9.8168 0.5960
v  -0.1476 9.8268 0.5799
v  -0.1487 9.8599 0.5000
v  -0.1514 8.7485 0.5018
v  -0.1481 8.7233 0.5792
v  -0.1343 8.7152 0.5971
v  -0.4131 8.7147 0.6810
v  -0.0244 8.7040 0.5982
v  -0.0234 8.6768 0.6799
v  0.3284 9.8220 0.5972
v  -0.0089 8.6744 0.5976
v  -0.0066 8.2519 0.5972
v  0.3302 8.2527 0.5972
v  -0.0105 8.2229 0.6828
v  0.4007 8.1918 0.7713
v  -0.0089 8.6454 0.6802
v  -0.0269 8.2188 0.6992
v  -0.0250 8.6540 0.6992
v  -0.1666 8.2153 0.7026
v  -0.1673 8.1919 0.7703
v  -0.4176 8.6918 0.6992
v  -0.5130 6.4334 0.6037
v  -0.4687 6.4334 0.5014
v  -0.4969 6.4361 0.4747
v  -0.5900 8.2171 0.3331
v  -0.5889 8.2431 0.3171
v  -0.6054 8.2176 0.3212
v  -0.5858 7.4182 0.3405
v  -0.6074 7.4120 0.3238
v  -0.6301 7.4112 -0.0279
v  -0.7599 7.3670 0.4038
v  -0.6064 7.4167 -0.0275
v  -0.6477 7.4008 -0.0410
v  -0.6264 9.2642 -0.0273
v  -0.6307 9.2931 -0.0402
v  -0.6477 9.2716 -0.0422
v  -0.6059 8.2623 -0.0274
v  -0.5838 8.2879 -0.0274
v  -0.6477 7.3963 -0.2523
v  -0.7570 7.3678 -0.2498
v  -0.6462 9.3122 -0.3932
v  -0.7780 4.3723 -0.2499
v  -0.7637 4.3743 -0.2756
v  -0.8864 4.3393 -0.6974
v  -0.7583 7.3487 -0.2669
v  -0.7795 7.3469 -0.2484
v  -0.2665 6.2185 -0.5728
v  -0.2618 7.0095 -0.5728
v  -0.2548 7.0350 -0.5504
v  -0.6453 7.0334 -0.3948
v  -0.6279 7.0326 -0.4066
v  -0.6909 7.0315 -0.5556
v  -0.6921 7.0331 -0.2679
v  -0.6578 7.0413 -0.2679
v  -0.4991 7.0339 -0.4725
v  -0.5061 7.0326 -0.4074
v  -0.4722 7.0428 -0.4994
v  -0.2601 7.0386 -0.5000
v  -0.6280 9.3333 -0.3948
v  -0.6308 9.3206 -0.4041
v  -0.6486 7.3815 -0.2654
v  -0.2410 9.1269 -0.5000
v  -0.4739 9.9700 -0.4977
v  -0.2557 9.1136 -0.5000
v  -0.4969 9.9740 -0.4728
v  -0.5000 9.3838 -0.4058
v  -0.5000 9.3947 -0.3944
v  -0.5000 9.3528 -0.0367
v  -0.5006 9.3184 -0.0273
v  -0.5032 8.3220 -0.0274
v  -0.5021 8.2841 0.3217
v  -0.4977 9.9735 0.4724
v  -0.5010 8.2575 0.3343
v  -0.5050 7.4468 0.3348
v  -0.5000 7.4497 0.3975
v  -0.5025 7.4208 0.4215
v  -0.5000 6.4460 0.4243
v  -0.7119 7.0107 -0.2695
v  -0.7119 4.3922 -0.2776
v  -0.7130 4.3887 -0.5491
v  -0.7119 7.0123 -0.5538
v  -0.6892 4.3974 -0.5728
v  -0.3220 6.2185 -0.5728
v  -0.6936 7.0202 -0.5659
v  -0.3325 6.1924 -0.5740
v  -0.3340 4.5017 -0.5728
v  -0.3332 6.0417 -0.7885
v  -0.3355 4.4943 -0.7121
v  -0.3332 4.4709 -0.7322
v  -0.3287 0.0032 -0.7995
v  -0.3433 0.0090 -0.7300
v  -0.8911 4.3158 -0.7300
v  -0.8897 0.0009 -0.7300
v  -0.9118 4.3116 -0.7070
v  -0.3070 6.0406 -0.8131
v  -0.3128 0.0016 -0.8131
v  -0.9118 0.0044 -0.7042
v  -0.9118 4.3120 -0.0657
v  -0.8914 4.3359 -0.0579
v  -0.8863 4.3140 -0.0403
v  -0.9118 0.0104 -0.0704
v  -0.8903 0.0060 -0.0403
v  -0.8004 3.5941 0.2969
v  -0.8044 3.5784 0.2827
v  -0.8186 3.5740 0.2929
v  -0.8217 0.0053 0.3007
v  -0.8067 0.0034 0.2804
v  -0.4340 8.7612 0.5000
v  -0.4679 9.9728 0.4993
v  -0.4332 6.4344 0.5004
v  -0.4183 8.7758 0.5000
v  -0.4332 8.7022 0.6793
v  -0.4332 6.4342 0.6088
v  -0.4332 6.4170 0.6257
v  -0.8202 3.5750 0.8981
v  -0.7964 3.5942 0.9001
v  -0.7796 3.6052 0.4017
v  -0.7796 3.6089 0.2931
v  -0.4320 5.0948 0.6824
v  -0.4341 5.0940 0.6284
v  -0.4182 5.1062 0.6986
v  -0.6482 5.0331 0.7873
v  -0.1832 5.1682 0.7776
v  -0.6724 3.6305 0.7833
v  -0.6522 3.6390 0.8097
v  -0.6697 5.0115 0.7903
v  -0.6490 5.0151 0.8079
v  -0.5318 5.0663 0.5997
v  -0.5317 5.0689 0.4265
v  -0.6563 5.0426 0.4218
v  -0.5133 6.4129 0.6223
v  -0.5153 5.0733 0.6220
v  -0.5301 6.4170 0.6054
v  -0.1882 8.1959 0.6992
v  -0.1928 5.1771 0.6992
v  -0.1877 8.1666 0.7731
v  -0.1672 8.1638 0.7936
v  -0.1630 5.1739 0.7938
v  -0.5272 6.4332 0.4218
v  -0.5325 6.4131 0.4218
v  -0.7601 7.3450 0.4217
v  -0.7617 3.6114 0.4201
v  -0.6702 3.6435 0.4251
v  -0.6759 5.0139 0.4218
v  -0.7808 4.3683 -0.0587
v  -0.7782 7.3483 0.4026
v  -0.7847 0.0077 -0.0403
v  -0.7802 4.3446 -0.0403
v  -0.7812 3.5823 0.2797
v  -0.7796 0.0009 0.2759
v  -0.8016 3.5753 0.9161
v  -0.8207 0.0007 0.9002
v  -0.7992 0.0027 0.9174
v  -0.1978 3.7457 0.9146
v  -0.1988 3.7635 0.8966
v  -0.1836 3.7469 0.8975
v  -0.2058 0.0020 0.9174
v  -0.1819 0.0023 0.8961
v  -0.1668 0.0037 0.8112
v  -0.1771 3.7486 0.8112
v  -0.2006 3.7670 0.8112
v  -0.0021 5.1965 0.8104
v  0.0005 0.0018 0.8103
v  0.4730 6.4341 0.4986
v  0.4229 6.4366 0.5006
v  0.4229 6.4389 0.5593
v  0.6658 6.4334 0.5508
v  0.6830 6.4098 0.5523
v  0.6669 6.4164 0.5707
v  0.4225 4.4833 0.7724
v  0.9103 4.3380 0.8305
v  0.6663 4.4186 0.5723
v  0.4229 4.4834 0.5850
v  0.8318 4.3665 0.3961
v  0.8141 4.3718 0.4200
v  0.6830 4.4060 0.5491
v  0.4018 4.4869 0.7931
v  0.6830 4.4166 0.4288
v  0.8318 7.3464 0.4004
v  0.8112 7.3487 0.4206
v  0.6830 6.4152 0.4220
v  0.6656 6.4379 0.4218
v  0.3447 9.8192 0.5791
v  0.3484 9.8563 0.5000
v  0.3461 8.2628 0.5789
v  0.3474 8.2842 0.5006
v  0.4725 9.9713 0.4991
v  0.4019 8.2830 0.5016
v  0.4221 8.2603 0.5030
v  0.4200 8.1681 0.7744
v  0.4983 9.9738 0.4681
v  0.5038 7.4564 0.3985
v  0.5029 6.4334 0.4665
v  0.5000 7.4383 0.4207
v  0.5000 6.4394 0.4233
v  0.4229 6.4326 0.6013
v  -0.0004 5.2149 0.7940
v  0.3997 8.1676 0.7938
v  0.2609 4.5239 0.7938
v  0.2675 4.5205 0.8310
v  0.2446 4.5028 0.7954
v  0.0200 5.2015 0.7938
v  0.0222 0.0020 0.7938
v  0.2353 0.0071 0.7938
v  0.2434 4.5016 0.8291
v  0.2456 0.0075 0.8324
v  0.2609 4.5018 0.8474
v  0.2618 0.0027 0.8486
v  0.9120 4.3192 0.8473
v  0.9133 0.0032 0.8495
v  0.9309 4.3170 0.8312
v  0.9327 0.0031 0.8286
v  0.9327 4.3141 0.1796
v  0.9108 4.3383 0.1847
v  0.9327 0.0010 0.1820
v  0.9140 4.3197 0.1640
v  0.9166 0.0078 0.1635
v  0.8318 7.3456 -0.2411
v  0.8318 4.3611 0.1755
v  0.8318 3.6278 -0.2460
v  0.8318 3.6178 -0.2305
v  0.8378 4.3389 0.1611
v  0.8318 3.6011 -0.2135
v  0.8347 0.0009 -0.2140
v  0.8318 0.0038 0.1540
# 338 vertices

vn -0.2893 0.9062 0.3083
vn 0.3388 0.8683 0.3622
vn 0.3645 0.8637 -0.3481
vn -0.3010 0.8850 -0.3553
vn 0.6415 0.7622 0.0866
vn 0.4441 0.8896 0.1068
vn 0.4345 0.8950 0.1011
vn 0.6397 0.7642 0.0818
vn 0.9032 0.3134 -0.2934
vn 1.0000 0.0000 -0.0000
vn 1.0000 0.0002 0.0006
vn 0.4001 0.4867 -0.7766
vn 0.2966 0.2368 -0.9252
vn 0.2149 0.4238 -0.8799
vn 0.3127 0.6258 -0.7145
vn 0.8040 0.1836 -0.5656
vn 0.9315 0.1673 -0.3231
vn 0.8829 0.0001 -0.4695
vn 0.7240 -0.0003 -0.6898
vn 0.8595 0.4293 -0.2773
vn 0.9436 0.3138 -0.1053
vn 1.0000 0.0007 -0.0031
vn 0.0382 0.0053 -0.9993
vn 0.0396 0.0054 -0.9992
vn 0.0460 -0.0132 -0.9989
vn 0.8306 0.5308 -0.1684
vn 0.3925 0.3376 -0.8555
vn 0.0918 -0.0290 -0.9954
vn 0.3949 0.0011 -0.9187
vn -0.0024 0.0000 -1.0000
vn 0.0094 0.0016 -1.0000
vn 1.0000 -0.0000 -0.0025
vn 1.0000 0.0000 -0.0001
vn 0.4698 0.0938 -0.8778
vn 1.0000 -0.0002 -0.0054
vn 0.9477 0.3174 0.0339
vn 0.9529 0.3017 0.0308
vn 0.1926 0.2512 0.9486
vn 0.2816 0.0957 0.9547
vn 0.4502 0.1537 0.8796
vn 0.4872 0.1142 0.8658
vn 0.2980 0.3777 0.8767
vn 0.2707 0.1628 0.9488
vn -0.1188 0.0046 0.9929
vn 0.1341 0.0019 0.9910
vn 0.9376 0.3444 0.0480
vn 0.6361 0.7652 0.0987
vn 0.5985 0.7957 0.0934
vn 0.9348 0.3528 0.0414
vn 0.1289 0.2811 0.9510
vn 0.1951 0.4362 0.8785
vn 0.0236 0.0009 0.9997
vn 0.4526 0.8854 0.1060
vn 0.4600 0.8811 0.1098
vn -0.0102 0.0028 0.9999
vn 0.3607 0.0040 0.9327
vn 0.0829 0.0923 0.9923
vn 1.0000 0.0003 0.0003
vn 1.0000 0.0002 0.0005
vn 0.6407 0.0039 0.7678
vn 0.0238 0.0012 -0.9997
vn 0.0172 0.0035 -0.9998
vn 0.0192 0.0030 -0.9998
vn 0.4846 0.8185 -0.3087
vn 0.2588 0.9006 -0.3491
vn 0.2690 0.9631 0.0109
vn 1.0000 0.0000 0.0012
vn 0.3636 -0.0010 0.9315
vn 0.5788 0.0006 0.8155
vn 0.0666 -0.0029 0.9978
vn 0.4865 0.7977 0.3563
vn 0.1911 0.9814 0.0207
vn 0.2277 0.9678 0.1073
vn 0.2196 0.9755 -0.0131
vn 0.2223 0.9714 0.0836
vn 0.6004 0.4652 -0.6505
vn 0.2093 0.7244 -0.6569
vn 0.0149 0.0026 -0.9999
vn 0.0327 0.0005 -0.9995
vn 0.0652 0.0001 -0.9979
vn 0.0655 0.0001 -0.9979
vn 0.9362 0.0004 -0.3514
vn 0.8403 0.4105 -0.3541
vn 0.9634 0.2672 -0.0203
vn 1.0000 0.0001 -0.0003
vn 0.4484 0.0005 -0.8938
vn 0.3302 0.4335 -0.8385
vn 0.0068 -0.0014 -1.0000
vn 0.0089 -0.0019 -1.0000
vn 0.5783 0.0014 -0.8158
vn 0.3028 0.0006 -0.9531
vn 0.0050 -0.0003 -1.0000
vn 0.5200 0.8535 -0.0335
vn 0.2925 0.9274 -0.2333
vn -0.0049 0.9998 -0.0214
vn 0.0088 0.9999 -0.0139
vn 0.9980 0.0019 -0.0625
vn 0.9126 0.0020 -0.4089
vn -0.0238 0.9993 -0.0296
vn 0.0039 0.9998 0.0173
vn 0.0049 0.9997 -0.0247
vn 0.0186 0.9970 -0.0746
vn 0.4323 0.7454 -0.5075
vn 0.6272 0.3302 -0.7054
vn 0.3406 0.6750 -0.6544
vn 0.1979 0.8119 -0.5492
vn 0.0250 0.8966 -0.4421
vn 0.0170 0.9996 -0.0205
vn 0.0155 0.3457 -0.9382
vn -0.0019 -0.0000 -1.0000
vn 0.9994 -0.0024 -0.0342
vn 0.9986 0.0086 0.0518
vn 0.8545 0.2891 -0.4316
vn 0.7746 0.5616 -0.2909
vn 1.0000 0.0038 -0.0028
vn 0.8545 0.0012 -0.5195
vn 0.9990 0.0023 -0.0448
vn -0.0006 0.8204 -0.5718
vn 0.0073 0.8269 -0.5622
vn -0.0018 0.8228 -0.5683
vn 0.3539 0.3437 -0.8698
vn 0.3038 0.0028 -0.9527
vn 0.2784 0.7745 -0.5681
vn 0.2594 0.8675 -0.4243
vn 0.0449 0.8931 -0.4475
vn 0.0843 0.8931 -0.4419
vn 0.0040 0.8773 -0.4798
vn -0.3223 0.2997 -0.8980
vn -0.3356 0.7407 -0.5820
vn -0.8459 0.2634 -0.4638
vn -0.3170 0.0025 -0.9484
vn -0.8480 0.0001 -0.5300
vn -0.3024 0.8364 -0.4570
vn -0.9968 -0.0010 -0.0801
vn -0.8551 0.4399 -0.2744
vn 0.0375 0.3434 -0.9384
vn -0.0575 0.4186 -0.9063
vn -0.1458 0.8244 -0.5469
vn 0.0833 0.8245 -0.5597
vn 0.0003 0.0017 -1.0000
vn 0.0000 0.0032 -1.0000
vn -0.0026 0.0004 -1.0000
vn -0.0352 0.0033 -0.9994
vn -0.0373 0.0035 -0.9993
vn -0.3317 0.6946 -0.6383
vn 0.0089 0.7985 -0.6020
vn 0.0198 0.8122 -0.5830
vn -0.1375 0.8311 -0.5389
vn 0.0392 0.8534 -0.5197
vn -0.3949 0.7797 -0.4859
vn -0.8634 0.0014 -0.5046
vn -0.9626 0.0010 -0.2710
vn -0.7541 -0.0009 -0.6567
vn -0.7634 -0.0007 -0.6459
vn -0.0322 0.8227 -0.5676
vn 0.0056 -0.0000 -1.0000
vn 0.2737 0.9617 -0.0128
vn 0.4721 0.7905 -0.3902
vn 0.2611 0.9652 -0.0117
vn 0.1085 0.9941 -0.0026
vn 0.2776 0.9606 -0.0109
vn 0.2943 0.9557 0.0010
vn 1.0000 -0.0002 -0.0030
vn 1.0000 -0.0001 -0.0015
vn 0.9997 -0.0023 -0.0254
vn 0.9996 -0.0024 -0.0265
vn 0.2802 0.9598 0.0172
vn 0.2770 0.9597 -0.0471
vn 0.2680 0.2770 -0.9228
vn 0.3609 0.0017 -0.9326
vn 0.5847 0.0028 -0.8113
vn 0.0000 0.0000 -1.0000
vn -0.1438 0.8803 -0.4522
vn -0.2255 0.9514 -0.2095
vn -0.8160 0.3530 -0.4578
vn -0.3166 0.3501 -0.8816
vn -0.9159 0.0003 -0.4014
vn -0.9982 0.0005 -0.0599
vn -0.8725 0.4184 -0.2525
vn -0.3726 0.0001 -0.9280
vn 0.4063 0.2689 -0.8733
vn 0.8944 0.3057 -0.3267
vn 0.3646 -0.0001 -0.9312
vn 0.9169 -0.0002 -0.3992
vn 0.8942 0.2795 0.3497
vn 0.5323 0.7570 0.3791
vn 0.4057 0.2546 0.8778
vn 0.8989 -0.0004 0.4381
vn 0.3259 -0.0002 0.9454
vn -0.3751 0.8379 0.3964
vn -0.2912 0.7602 0.5808
vn -0.0104 0.7870 0.6169
vn -0.0141 0.8978 0.4402
vn -0.3619 0.2532 0.8972
vn -0.8384 0.3390 0.4269
vn -0.8905 0.4074 0.2024
vn -0.9991 0.0006 0.0418
vn -0.9142 0.0008 0.4052
vn 0.0955 0.9417 0.3226
vn 0.0977 0.9403 0.3260
vn -0.1991 0.8202 0.5364
vn -0.3773 0.0011 0.9261
vn 0.0327 0.0052 0.9995
vn 0.0815 0.8219 0.5638
vn 0.0928 0.9451 0.3134
vn -0.0045 0.3380 0.9411
vn 0.0060 0.0007 1.0000
vn 0.0000 -0.0009 1.0000
vn 0.0005 -0.0005 1.0000
vn 0.0084 0.9571 0.2897
vn 0.3632 0.7916 0.4913
vn -0.0760 0.9315 0.3556
vn -0.0023 0.9473 0.3202
vn 0.9277 0.1573 0.3385
vn 0.8863 -0.0005 0.4631
vn 0.9992 -0.0025 0.0394
vn 0.9562 0.2789 0.0889
vn 0.8731 0.4143 0.2569
vn 0.8781 0.4570 0.1418
vn 0.0020 0.9450 0.3271
vn 0.7904 0.1926 0.5816
vn 0.7099 0.0014 0.7043
vn -0.3479 0.8872 0.3030
vn -0.3562 0.7792 0.5157
vn 0.0358 0.3323 0.9425
vn -0.3664 0.2886 0.8846
vn -0.0436 -0.0223 0.9988
vn 0.0240 -0.0001 0.9997
vn -0.0086 1.0000 0.0026
vn 0.0216 0.9997 0.0140
vn -0.1097 0.9932 0.0382
vn -0.3480 0.2128 0.9131
vn -0.5648 0.6923 0.4491
vn -0.8643 0.2570 0.4323
vn -0.3566 0.0068 0.9342
vn -0.9132 0.0036 0.4075
vn -0.3596 0.9329 -0.0208
vn -0.4647 0.7985 0.3827
vn -0.2766 0.9609 0.0117
vn -0.2237 0.9746 0.0122
vn -0.3029 0.9522 -0.0402
vn -0.3439 0.9388 -0.0191
vn -0.2981 0.1369 0.9447
vn -0.2720 0.3478 0.8972
vn -0.5324 0.1494 0.8332
vn -0.3843 0.0003 0.9232
vn -0.5978 0.0005 0.8016
vn -0.0094 -0.0003 1.0000
vn -0.0202 -0.0001 0.9998
vn 0.0001 -0.0001 1.0000
vn -0.9285 0.3690 0.0426
vn -1.0000 0.0020 -0.0018
vn -0.5797 0.8097 0.0910
vn -0.2411 0.8935 -0.3788
vn -0.4424 0.8216 -0.3596
vn -0.9497 0.3115 0.0321
vn -0.8795 0.2948 -0.3735
vn -0.9993 0.0033 0.0382
vn -1.0000 0.0000 -0.0000
vn -0.2746 0.9616 -0.0015
vn -0.2423 0.9700 -0.0189
vn -0.4742 0.8471 -0.2400
vn -0.3620 0.2964 -0.8838
vn -0.5892 0.0035 -0.8080
vn -0.9678 0.0012 -0.2518
vn -0.8672 0.3445 -0.3596
vn -0.9837 0.0058 -0.1800
vn -0.9998 0.0033 -0.0216
vn -0.9908 0.0054 0.1351
vn -0.0190 0.9997 -0.0156
vn 0.0115 0.9999 -0.0089
vn -0.3207 0.8779 -0.3556
vn -0.4888 0.8715 -0.0388
vn -0.2314 0.9694 -0.0826
vn -0.0569 0.9917 0.1157
vn 0.0001 0.9998 0.0193
vn 0.0107 0.9002 -0.4354
vn -0.0314 0.9973 -0.0665
vn 0.0198 0.9974 -0.0691
vn -0.6204 0.7796 0.0857
vn -0.5524 0.7701 -0.3190
vn -0.4031 0.2910 -0.8677
vn -0.8557 0.0114 -0.5173
vn -0.2935 0.0007 -0.9560
vn -0.9999 0.0034 -0.0132
vn -0.9946 0.0276 -0.1000
vn -0.1155 0.4239 -0.8983
vn 0.0014 0.0039 -1.0000
vn 0.0371 0.0111 -0.9992
vn -0.0061 0.0011 -1.0000
vn -0.3615 0.3240 -0.8743
vn -0.2781 0.8940 -0.3514
vn 0.0954 0.9388 -0.3311
vn -0.4075 0.0000 -0.9132
vn -0.0065 0.0010 -1.0000
vn -0.0028 0.0000 -1.0000
vn -0.6222 0.7227 -0.3010
vn -0.9949 -0.0033 -0.1005
vn -0.9999 0.0021 -0.0135
vn -0.8604 0.3819 -0.3374
vn -0.9995 0.0017 -0.0325
vn -0.9151 0.0015 -0.4033
vn -0.9943 0.0026 -0.1067
vn -0.2258 0.4613 -0.8581
vn -0.0073 0.0011 -1.0000
vn -1.0000 0.0051 -0.0022
vn -0.4170 0.8703 -0.2620
vn -0.4192 0.9023 0.1008
vn -0.0946 0.1776 0.9795
vn -0.1461 0.2643 0.9533
vn 0.0000 -0.0001 1.0000
vn -0.3858 0.7703 0.5077
vn -0.3873 0.9164 0.1007
vn -0.8455 0.3910 0.3637
vn -0.9986 -0.0020 0.0529
vn -0.9996 -0.0003 0.0300
vn -0.1607 0.2747 0.9480
vn 0.0619 0.0091 0.9980
vn -0.9999 0.0092 -0.0062
vn -1.0000 0.0054 -0.0012
vn -0.2874 0.8898 0.3545
vn -0.3348 0.9421 -0.0165
vn -0.8907 -0.0009 0.4546
vn -0.9980 0.0006 0.0633
vn -0.9982 -0.0024 0.0600
vn -1.0000 0.0027 0.0035
vn -0.9996 0.0042 -0.0282
vn -0.9968 0.0051 0.0799
vn -0.0137 0.0060 -0.9999
vn -0.0394 0.0031 -0.9992
vn -0.2905 0.9567 0.0173
vn -0.3275 0.9448 -0.0108
vn -0.8570 0.3293 -0.3963
vn -0.9373 -0.0002 -0.3486
vn -1.0000 0.0004 0.0038
vn -0.9319 0.3627 -0.0032
vn -0.2841 0.9588 -0.0016
vn -0.3779 0.7320 -0.5669
vn 0.0000 0.7749 -0.6320
vn -0.3242 0.3800 -0.8663
vn -0.4468 -0.0007 -0.8946
vn 0.0219 0.0158 -0.9996
vn -0.0019 0.0084 -1.0000
vn 0.0002 -0.0007 -1.0000
vn -0.0056 0.3699 -0.9291
vn -0.0000 0.0000 -1.0000
vn -0.8716 0.2406 -0.4271
vn -0.9350 0.2731 -0.2260
vn -0.9982 -0.0015 -0.0604
vn -1.0000 0.0019 0.0097
vn -0.2607 0.8706 -0.4173
vn -0.2814 0.9584 -0.0477
vn -0.9993 -0.0013 -0.0376
vn -0.8514 0.0014 -0.5245
vn -0.9787 0.0021 -0.2054
vn -0.1982 0.6359 -0.7459
vn -0.5851 0.5245 -0.6185
vn -0.0003 -0.0000 -1.0000
vn -0.0036 -0.0005 -1.0000
vn -0.0039 -0.0005 -1.0000
vn -0.8849 0.3375 -0.3212
vn -0.3263 0.3025 -0.8956
vn -0.3375 0.0003 -0.9413
vn -0.9335 -0.0001 -0.3585
vn -0.7597 -0.0002 -0.6502
vn -0.8997 0.2877 0.3283
vn -0.5130 0.7505 0.4166
vn -0.3770 0.2394 0.8948
vn -0.9490 0.0004 0.3152
vn -0.4426 0.0004 0.8967
vn -0.5907 0.7321 -0.3393
vn -0.4013 0.3486 -0.8470
vn -0.8613 0.3110 -0.4019
vn -0.9480 0.0009 -0.3184
vn -0.5032 0.0010 -0.8641
vn 0.0012 0.0006 1.0000
vn -0.3202 0.3753 0.8698
vn -0.3516 0.0003 0.9362
vn 0.0286 0.0002 0.9996
vn -0.0212 -0.0534 0.9984
vn -0.0108 -0.0107 0.9999
vn -0.0028 0.0009 1.0000
vn -0.0066 0.0016 1.0000
vn 0.0952 0.9478 0.3045
vn -0.2885 0.9050 0.3125
vn -0.8709 0.4615 0.1690
vn -0.8326 0.3915 0.3919
vn -0.0139 0.9999 -0.0030
vn -0.0286 0.9996 0.0019
vn -1.0000 -0.0000 0.0002
vn -0.9999 -0.0003 0.0114
vn -0.8627 0.3757 0.3384
vn -0.4156 0.8336 0.3638
vn -0.4578 0.8890 0.0058
vn -0.5828 0.7276 -0.3617
vn -0.9535 0.0006 0.3015
vn -0.9992 0.0008 0.0396
vn -0.3164 0.9482 -0.0274
vn -0.3268 0.9348 -0.1391
vn -0.4610 0.8333 0.3052
vn -0.6444 0.7139 0.2741
vn -0.2953 0.9553 -0.0104
vn -0.2913 0.9566 0.0087
vn -0.8631 0.3363 0.3769
vn -0.9560 0.0004 0.2935
vn -0.5150 -0.0003 0.8572
vn -0.3691 0.3414 0.8644
vn -0.2615 0.9652 0.0033
vn -0.2067 0.9783 0.0148
vn -0.5647 0.8248 0.0292
vn -0.3600 0.3064 0.8812
vn -0.5467 -0.0010 0.8373
vn -0.0767 -0.0000 0.9971
vn -0.0529 0.3829 0.9223
vn -0.4708 0.7415 0.4781
vn -0.0522 0.7014 0.7108
vn -0.8555 0.3696 0.3626
vn -0.9580 -0.0010 0.2867
vn -0.2964 0.9550 -0.0118
vn -0.2476 0.9689 -0.0045
vn -0.0352 -0.0163 0.9992
vn -0.5177 0.0002 0.8556
vn -0.0029 0.0000 1.0000
vn -0.8852 0.4379 0.1569
vn -0.8711 0.2686 0.4111
vn -0.8001 0.5776 0.1620
vn -0.3409 0.2971 0.8919
vn -0.3002 0.4015 0.8653
vn -0.3386 0.9299 0.1434
vn -0.4330 0.8789 0.2001
vn -0.9880 0.1489 0.0406
vn -0.9640 0.2553 0.0748
vn -1.0000 -0.0006 -0.0003
vn -0.3880 0.2565 0.8853
vn -0.1162 0.4017 0.9084
vn -0.0283 -0.0071 0.9996
vn -0.0702 -0.0174 0.9974
vn -0.0013 0.0001 1.0000
vn -0.0126 0.0012 0.9999
vn -0.0385 0.0035 0.9993
vn -0.3307 0.9436 0.0172
vn -0.3321 0.9427 0.0320
vn -0.4804 0.0009 0.8770
vn -0.0553 0.0022 0.9985
vn -0.0117 -0.0003 0.9999
vn -0.9543 0.2977 0.0257
vn -1.0000 0.0010 -0.0024
vn -0.2540 0.8780 0.4058
vn -0.8761 0.3426 0.3393
vn -0.9371 -0.0002 0.3489
vn 0.0000 0.0000 1.0000
vn -0.1045 0.3681 0.9239
vn -1.0000 -0.0002 0.0075
vn -0.9993 0.0147 0.0341
vn -0.9999 -0.0021 0.0107
vn -0.9999 0.0076 0.0153
vn -0.9999 -0.0004 0.0150
vn -0.9999 -0.0005 0.0160
vn -0.2576 0.3238 -0.9104
vn -0.1620 0.0010 -0.9868
vn -0.3858 0.3016 0.8719
vn -0.9052 0.0007 0.4251
vn -0.3379 0.0005 0.9412
vn -0.1177 0.4288 0.8957
vn -0.2506 0.8913 0.3779
vn 0.8756 0.3330 0.3498
vn 0.6939 0.6774 0.2442
vn 0.7400 0.2283 0.6326
vn 0.0003 0.0004 1.0000
vn -0.0013 -0.9932 0.1165
vn 0.8719 0.0010 0.4897
vn 0.9845 0.0027 0.1752
vn 0.9051 0.4212 0.0571
vn 0.6647 -0.0009 0.7471
vn -0.2727 0.9610 0.0455
vn 0.2158 0.3435 0.9140
vn 0.6180 0.7859 0.0190
vn -0.0016 0.0009 1.0000
vn 0.0037 0.0001 1.0000
vn 0.3221 0.0002 0.9467
vn 0.0056 0.0000 1.0000
vn 0.0229 0.9987 -0.0445
vn 0.0484 0.9980 -0.0399
vn 0.0584 0.9959 0.0689
vn 0.4104 0.8615 0.2991
vn 0.9129 0.2644 0.3110
vn 0.5362 0.5370 0.6512
vn 0.2711 0.9602 0.0666
vn 0.4590 0.8138 0.3565
vn 0.3513 0.9350 -0.0492
vn 0.2576 0.9662 0.0015
vn 0.3228 0.9465 0.0002
vn 0.2955 0.9551 0.0238
vn 0.8105 -0.0009 0.5858
vn 0.9631 -0.0004 0.2691
vn 0.3500 0.9363 -0.0303
vn 0.2705 0.9567 0.1074
vn 0.3275 0.9412 0.0830
vn 0.8880 0.3091 0.3405
vn 0.5434 0.4082 0.7335
vn 0.8032 0.0007 0.5957
vn 0.9562 0.0003 0.2927
vn 0.0653 0.0032 0.9979
vn 0.0024 0.0022 1.0000
vn 0.0088 0.0005 1.0000
vn 0.0681 0.0034 0.9977
vn -0.0016 0.0015 1.0000
vn 0.9445 0.3282 0.0113
vn 0.4326 0.9007 0.0405
vn 0.7876 0.4878 0.3764
vn 0.8996 0.1995 0.3886
vn 0.9307 0.3060 0.2002
vn 0.8439 0.4585 0.2788
vn 0.7441 0.1984 0.6380
vn 0.9046 0.0010 0.4263
vn 0.9999 0.0009 0.0170
vn 0.7538 0.0009 0.6571
vn 0.0278 0.9447 0.3269
vn 0.3776 0.3255 0.8669
vn 0.0045 0.0031 1.0000
vn -0.0443 0.0026 0.9990
vn 0.0054 0.0017 1.0000
vn -0.0179 0.0004 0.9998
vn 0.3761 0.8840 0.2778
vn 0.0168 0.9643 0.2642
vn 0.4250 -0.0007 0.9052
vn 0.0523 0.0007 0.9986
vn 0.0390 -0.0013 0.9992
vn 0.8706 0.2726 0.4095
vn 0.8954 0.4201 0.1476
vn 0.8852 0.3557 0.3000
vn 1.0000 0.0008 0.0025
vn 1.0000 0.0004 0.0029
vn 0.2549 0.9085 0.3311
vn 0.2738 0.9618 0.0000
vn 1.0000 0.0015 0.0018
vn 0.9999 0.0024 -0.0145
vn 0.9960 -0.0005 0.0898
vn 0.9998 0.0022 -0.0186
vn 0.1153 0.1331 0.9844
vn 0.9360 -0.0001 0.3520
vn 0.0037 0.9989 0.0475
vn 0.9999 0.0004 0.0110
vn 0.0105 0.9905 0.1373
vn 0.9978 -0.0002 -0.0662
vn 0.2033 0.7374 0.6441
vn 0.0009 0.0027 1.0000
vn 0.0075 0.0004 1.0000
vn 1.0000 0.0017 0.0001
vn 1.0000 0.0015 0.0007
vn 1.0000 0.0010 0.0066
vn 0.9297 0.0002 0.3682
vn 1.0000 -0.0000 0.0022
vn 0.0839 0.9852 0.1496
vn 0.1185 -0.0076 0.9929
vn 0.1239 -0.0083 0.9923
vn 0.0574 0.0002 0.9984
vn 0.0524 0.0008 0.9986
vn 0.0455 0.2656 0.9630
vn 0.3296 0.3245 0.8866
vn 0.2541 0.9662 0.0436
vn 0.2373 0.8692 0.4337
vn 0.0119 0.0061 0.9999
vn 0.0360 0.0128 0.9993
vn 0.2030 0.0944 0.9746
vn 0.3218 -0.0000 0.9468
vn 0.0000 -0.0004 1.0000
vn -0.7182 0.6908 0.0834
vn -0.9414 0.3369 -0.0191
vn -0.8739 0.3480 0.3394
vn -0.6018 0.7323 0.3186
vn -0.8589 0.0010 0.5121
vn -0.9666 0.0019 0.2564
vn -0.6885 0.3137 0.6539
vn -0.7071 0.0002 0.7071
vn 0.1002 0.3520 0.9306
vn 0.3633 0.3006 0.8819
vn -0.0012 0.0005 1.0000
vn 0.3996 0.0006 0.9167
vn 0.8681 0.3312 0.3699
vn 0.9312 0.0005 0.3646
vn 0.8736 0.3150 -0.3709
vn 0.4807 0.8264 -0.2933
vn 0.9485 0.0000 -0.3168
vn 0.3923 0.3590 -0.8469
vn 0.4870 -0.0001 -0.8734
vn 0.9010 0.3208 -0.2921
vn 0.9807 0.0270 0.1937
vn 0.2960 0.8689 -0.3967
vn 0.9615 -0.0027 -0.2749
vn 0.7534 0.0009 -0.6576
vn 0.3546 0.9249 0.1371
vn 0.2295 0.7664 0.6000
vn 1.0000 -0.0058 -0.0048
vn 0.9986 0.0088 0.0530
vn 0.1745 0.3872 -0.9053
vn 0.1414 0.4332 0.8901
vn 0.0003 0.0003 1.0000
vn 0.9999 -0.0026 -0.0103
vn 1.0000 0.0007 0.0065
vn 1.0000 0.0008 0.0079
vn 0.1106 0.0002 -0.9939
vn 0.4322 0.0007 0.9018
# 603 vertex normals

vt 0.2612 0.2819 1.7121
vt 0.7294 0.2790 1.7115
vt 0.7286 0.7509 1.7121
vt 0.2600 0.7512 1.7121
vt 0.7125 1.6116 0.8342
vt 0.7125 1.6335 0.7434
vt 0.5375 1.6234 0.7434
vt 0.5359 1.6022 0.8344
vt 0.7487 1.7041 0.7434
vt 0.7189 1.6300 0.7434
vt 0.1658 1.6116 0.7125
vt 0.1688 1.6082 0.7183
vt 0.2566 1.6300 0.7189
vt 0.2566 1.6335 0.7125
vt 0.8363 1.4752 0.5709
vt 0.8276 1.4736 0.5778
vt 0.8286 1.2833 0.5781
vt 0.8375 1.2811 0.5695
vt 0.8285 1.4794 0.5717
vt 0.7658 1.4839 0.5783
vt 0.7679 1.2979 0.5782
vt 0.3800 1.2964 0.7663
vt 0.4218 1.2979 0.7679
vt 0.4217 1.4839 0.7658
vt 0.7678 1.4897 0.5704
vt 0.7651 1.7049 0.7299
vt 0.7509 1.7121 0.7286
vt 0.4296 1.4897 0.7678
vt 0.2701 1.7049 0.7651
vt 0.2692 0.9926 0.7660
vt 0.3678 0.9934 0.7658
vt 0.3668 1.2929 0.7658
vt 0.6498 1.0765 0.8434
vt 0.6504 0.9938 0.8434
vt 0.7119 0.9934 0.8434
vt 0.1568 1.6053 0.7125
vt 0.6378 1.0818 0.8435
vt 0.7125 1.6053 0.8432
vt 0.5367 1.5963 0.8434
vt 0.8103 1.2861 0.3765
vt 0.8127 1.2772 0.3719
vt 0.8221 1.2800 0.3777
vt 0.8434 1.5963 0.5367
vt 0.8344 1.6022 0.5359
vt 0.8313 1.5966 0.5300
vt 0.8142 1.2938 0.5291
vt 0.8223 1.2883 0.5276
vt 0.5276 1.2883 0.8223
vt 0.5291 1.2938 0.8142
vt 0.3765 1.2861 0.8103
vt 0.3777 1.2800 0.8221
vt 0.7434 1.6154 0.5293
vt 0.7434 1.6234 0.5375
vt 0.7434 1.3116 0.5274
vt 0.3732 1.3023 0.7434
vt 0.5274 1.3116 0.7434
vt 0.7443 1.0955 0.3715
vt 0.8135 1.0860 0.3705
vt 0.7434 1.2911 0.3701
vt 0.3779 1.0864 0.8223
vt 0.5288 1.0854 0.8223
vt 0.8223 1.0864 0.3779
vt 0.1566 0.9938 0.6504
vt 0.1566 1.0765 0.6498
vt 0.1010 1.0694 0.6489
vt 0.8983 0.6374 1.0743
vt 0.8435 0.6378 1.0818
vt 0.8434 0.5360 1.0836
vt 0.5360 1.0836 0.8434
vt 0.8344 1.0841 0.5296
vt 0.8434 1.0836 0.5360
vt 0.8223 1.0854 0.5288
vt 0.8994 0.3149 1.0741
vt 0.8344 0.5296 1.0841
vt 0.8223 0.3779 1.0864
vt 0.8223 0.5288 1.0854
vt 0.8135 0.3705 1.0860
vt 0.1017 1.0743 0.6374
vt 0.1565 1.0818 0.6378
vt 0.1312 0.9937 0.6497
vt 0.1246 0.9880 0.6497
vt 0.0990 0.1686 0.6483
vt 0.1245 0.1699 0.6500
vt 0.7931 0.1698 0.8755
vt 0.7913 0.9877 0.8755
vt 0.6497 0.9880 0.8754
vt 0.6500 0.1699 0.8755
vt 0.8017 0.1712 0.8670
vt 0.8022 0.9875 0.8647
vt 0.1353 0.9875 0.8022
vt 0.2203 0.7904 0.8022
vt 0.2322 0.7935 0.8024
vt 0.1566 0.9934 0.7119
vt 0.1650 0.9930 0.7179
vt 0.2540 0.9938 0.7183
vt 0.8688 0.6497 0.9937
vt 0.8633 0.7854 0.9926
vt 0.8434 0.7119 0.9934
vt 0.8434 0.6504 0.9938
vt 0.7183 0.9938 0.7460
vt 0.7524 0.9926 0.7438
vt 0.7854 0.9926 0.8633
vt 0.6497 0.9937 0.8688
vt 0.8350 0.7179 0.9930
vt 0.7660 0.9926 0.7308
vt 0.7308 0.7660 0.9926
vt 0.7438 0.7524 0.9926
vt 0.1367 0.9926 0.7854
vt 0.1245 0.9877 0.7913
vt 0.7460 0.7183 0.9938
vt 0.8022 0.7904 0.7797
vt 0.9110 0.7527 0.7766
vt 0.9115 0.7579 0.7669
vt 0.8024 0.7935 0.7678
vt 0.6312 0.7934 0.9932
vt 0.6322 0.7658 0.9934
vt 0.3676 0.9877 0.8022
vt 0.3667 0.7942 0.8022
vt 0.3688 0.9932 0.7934
vt 0.7658 0.9934 0.6322
vt 0.7934 0.9932 0.6312
vt 0.8664 1.2679 0.6301
vt 0.7658 1.2929 0.6332
vt 0.8022 0.9877 0.6324
vt 0.8662 0.7731 0.6306
vt 0.8022 0.7942 0.6333
vt 0.3694 0.7731 0.8662
vt 0.2331 0.7579 0.9115
vt 0.3820 0.7686 0.8790
vt 0.3790 1.2682 0.8750
vt 0.3699 1.2679 0.8664
vt 0.8658 1.2735 0.6173
vt 0.7663 1.2964 0.6200
vt 0.6200 0.7663 1.2964
vt 0.6173 0.8658 1.2735
vt 0.5781 0.8286 1.2833
vt 0.5782 0.7679 1.2979
vt 0.8750 1.2682 0.6210
vt 0.3827 1.2735 0.8658
vt 0.4305 1.2811 0.8375
vt 0.4219 1.2833 0.8286
vt 0.5155 1.2672 0.8765
vt 0.5160 1.2737 0.8650
vt 0.5263 1.2679 0.8664
vt 0.5172 0.7703 0.8756
vt 0.5252 0.7734 0.8677
vt 0.5154 1.2811 0.8375
vt 0.1588 0.7813 0.4727
vt 0.1625 1.2747 0.4713
vt 0.1336 1.2679 0.4737
vt 0.1323 0.7734 0.4748
vt 0.4291 1.4752 0.8363
vt 0.6262 1.4840 0.8373
vt 0.6237 1.4888 0.8291
vt 0.4283 1.4794 0.8285
vt 0.1350 1.2737 0.4840
vt 0.1625 1.2811 0.4846
vt 0.5287 1.2747 0.8375
vt 0.6246 0.7845 0.8375
vt 0.5273 0.7813 0.8412
vt 0.6610 0.7574 0.9131
vt 0.6336 1.4864 0.8288
vt 0.1757 0.7865 0.3641
vt 0.1712 1.4864 0.3664
vt 0.1627 1.4840 0.3738
vt 0.1625 0.7845 0.3754
vt 0.6359 0.7865 0.8243
vt 0.1330 0.1712 0.8017
vt 0.2233 0.1839 0.8022
vt 0.9010 0.6483 0.1686
vt 0.9515 0.9346 0.1586
vt 0.8755 0.7931 0.1698
vt 0.8755 0.6500 0.1699
vt 0.7767 0.8022 0.1839
vt 0.8670 0.8017 0.1712
vt 0.8022 0.1839 0.7767
vt 0.9151 0.1832 0.7765
vt 0.7765 0.9151 0.1832
vt 0.7665 0.9223 0.1848
vt 0.2382 0.7514 0.9223
vt 0.2234 0.7527 0.9110
vt 0.2335 0.1848 0.9223
vt 0.2235 0.1832 0.9151
vt 0.3487 0.2012 0.9223
vt 0.6528 0.9326 0.2003
vt 0.6513 0.9223 0.2012
vt 0.3565 0.1961 0.9339
vt 0.3472 0.2003 0.9326
vt 0.3494 0.1953 0.9419
vt 0.0661 0.1961 0.6435
vt 0.0661 -0.7111 0.6426
vt 0.0777 -0.7119 0.6419
vt 0.0777 0.1971 0.6410
vt 0.0581 0.1953 0.6506
vt 0.0572 -0.7116 0.6515
vt 0.9428 0.1532 0.9535
vt 0.9346 0.1586 0.9515
vt 0.9335 0.1526 0.9624
vt 0.0485 0.1586 0.9346
vt 0.0465 0.1532 0.9428
vt 0.0481 -0.7121 0.9429
vt 0.3485 -0.7116 0.9428
vt 0.0376 0.1526 0.9335
vt 0.0375 -0.7118 0.9329
vt 0.6306 0.1531 0.9612
vt 0.6313 0.1586 0.9530
vt 0.6233 0.1534 0.9539
vt 0.9611 -0.7116 0.6305
vt 0.9612 0.1531 0.6306
vt 0.9539 0.1534 0.6233
vt 0.9514 -0.7117 0.6228
vt 0.6305 -0.7116 0.9611
vt 0.9329 -0.7118 0.9625
vt 0.4256 0.2648 1.6815
vt 0.4266 0.2258 1.6728
vt 0.6580 0.2258 1.6740
vt 0.6605 0.2658 1.6835
vt 0.4265 1.6676 0.2178
vt 0.4266 1.6728 0.2258
vt 0.4197 1.6700 0.2259
vt 0.7342 1.6780 0.4191
vt 0.7741 1.6700 0.4197
vt 0.7742 1.6728 0.4266
vt 0.7352 1.6815 0.4256
vt 0.7351 1.4086 0.4177
vt 0.7738 1.4025 0.4194
vt 0.4263 0.2173 1.4005
vt 0.4194 0.2262 1.4025
vt 0.2869 0.1753 1.4004
vt 0.7827 1.4005 0.4263
vt 0.7822 1.6676 0.4265
vt 0.4263 1.4005 0.2173
vt 0.4813 1.3978 0.2167
vt 0.4817 0.1759 1.3912
vt 0.4813 0.2167 1.3978
vt 0.6576 1.6688 0.2172
vt 0.6580 1.6740 0.2258
vt 0.4890 1.3906 0.2170
vt 0.4901 1.2882 0.2172
vt 0.6586 1.2884 0.2172
vt 0.4882 0.1744 1.2812
vt 0.6938 0.1301 1.2736
vt 0.6586 0.2172 1.2884
vt 0.4901 0.2172 1.2882
vt 0.1757 1.3836 0.4890
vt 0.1744 1.2812 0.4882
vt 0.2172 1.2882 0.4901
vt 0.2170 1.3906 0.4890
vt 0.1759 1.3912 0.4817
vt 0.2167 1.3978 0.4813
vt 0.4800 0.1662 1.2802
vt 0.1662 1.3857 0.4810
vt 0.1662 1.2802 0.4800
vt 0.4102 0.1645 1.2793
vt 0.4098 0.1307 1.2737
vt 0.4810 1.3857 0.1662
vt 0.2847 1.3948 0.1662
vt 0.4102 1.2793 0.1645
vt 0.4800 1.2802 0.1662
vt 0.2370 0.2139 0.8474
vt 0.2591 0.2651 0.8474
vt 0.2450 0.2785 0.8480
vt 0.1985 1.2798 0.3493
vt 0.1990 1.2861 0.3573
vt 0.1907 1.2799 0.3552
vt 0.2005 1.0861 0.3455
vt 0.1897 1.0846 0.3539
vt 0.1784 0.5298 1.0844
vt 0.1135 0.3139 1.0737
vt 0.1897 0.3539 1.0846
vt 0.1903 0.5295 1.0857
vt 0.2005 0.3455 1.0861
vt 0.6861 1.0737 0.1135
vt 0.4702 1.0844 0.1784
vt 0.4637 1.0819 0.1696
vt 0.1802 1.5336 0.5294
vt 0.1781 1.5406 0.5359
vt 0.1696 1.5354 0.5369
vt 0.1784 1.0844 0.5298
vt 0.1696 1.0819 0.5363
vt 0.1905 1.2907 0.5295
vt 0.1903 1.0857 0.5295
vt 0.2015 1.2969 0.5295
vt 0.6448 1.2799 0.1907
vt 0.4705 1.2907 0.1905
vt 0.4705 1.0857 0.1903
vt 0.6461 1.0846 0.1897
vt 0.6427 1.2861 0.1990
vt 0.4705 1.2969 0.2015
vt 0.1696 0.5363 1.0819
vt 0.1696 0.6419 1.0808
vt 0.1149 0.6407 1.0739
vt 0.4631 1.5354 0.1696
vt 0.2876 1.5452 0.1704
vt 0.3581 1.0808 0.1696
vt 0.1045 0.6408 0.3477
vt 0.1116 0.6536 0.3482
vt 0.0502 0.8645 0.3397
vt 0.3508 1.0693 0.1143
vt 0.3464 0.3482 0.1116
vt 0.3592 0.3477 0.1045
vt 0.3600 1.0688 0.1037
vt 0.1978 0.7953 0.3602
vt 0.1978 0.9870 0.3625
vt 0.2090 0.9932 0.3660
vt 0.1708 0.7132 0.9928
vt 0.1795 0.7191 0.9926
vt 0.1480 0.7936 0.9924
vt 0.1474 0.6497 0.9927
vt 0.1645 0.6497 0.9947
vt 0.2439 0.7521 0.9929
vt 0.2404 0.7195 0.9926
vt 0.3660 0.7910 0.9932
vt 0.2574 0.7655 0.9951
vt 0.3634 0.7658 0.9941
vt 0.4641 1.5406 0.1781
vt 0.2868 1.5504 0.1795
vt 0.2822 1.5473 0.1781
vt 0.8292 0.9928 0.7132
vt 0.8296 1.5452 0.7124
vt 0.8219 1.5473 0.7178
vt 0.8205 0.9926 0.7191
vt 0.3515 1.0772 0.1691
vt 0.2868 0.9928 0.1708
vt 0.3503 0.9947 0.1645
vt 0.8857 1.0693 0.6492
vt 0.8309 1.0772 0.6485
vt 0.8355 0.9947 0.6497
vt 0.8526 0.9927 0.6497
vt 0.6270 1.5003 0.7658
vt 0.7435 1.7047 0.7646
vt 0.3763 0.8291 1.4888
vt 0.3730 0.7658 1.5003
vt 0.5704 0.7678 1.4897
vt 0.5717 0.8285 1.4794
vt 0.7400 1.7121 0.7512
vt 0.2714 1.7121 0.7509
vt 0.7426 0.9951 0.7655
vt 0.6344 1.4971 0.7658
vt 0.6366 0.9941 0.7658
vt 0.2342 1.4971 0.3656
vt 0.2342 1.5003 0.3730
vt 0.1709 1.4888 0.3763
vt 0.2342 0.9941 0.3634
vt 0.7550 1.7057 0.7522
vt 0.2813 1.5626 0.2434
vt 0.2478 1.7057 0.2450
vt 0.2479 0.9929 0.2439
vt 0.2805 0.9926 0.2404
vt 0.7566 1.5626 0.7187
vt 0.7596 0.9926 0.7195
vt 0.2354 1.7047 0.2565
vt 0.2345 0.9951 0.2574
vt 0.2870 1.5653 0.2434
vt 0.8205 1.5504 0.7132
vt 0.7566 1.5653 0.7130
vt 0.1795 0.7132 1.5504
vt 0.1781 0.5359 1.5406
vt 0.2434 0.5342 1.5551
vt 0.2434 0.7130 1.5653
vt 0.2432 1.5468 0.5295
vt 0.2434 1.5551 0.5342
vt 0.2418 1.3052 0.5295
vt 0.2015 0.5295 1.2969
vt 0.1990 0.3573 1.2861
vt 0.2424 0.3549 1.2960
vt 0.2418 0.5295 1.3052
vt 0.7204 1.7056 0.2446
vt 0.6451 1.2960 0.2424
vt 0.6514 1.2896 0.2430
vt 0.2430 1.2896 0.3486
vt 0.2424 1.2960 0.3549
vt 0.2409 1.0930 0.3484
vt 0.7181 1.7121 0.2612
vt 0.2488 1.7121 0.2600
vt 0.4658 1.5551 0.2434
vt 0.4705 1.5468 0.2432
vt 0.2434 0.3170 1.0937
vt 0.2409 0.3484 1.0930
vt 0.7215 0.8480 0.2450
vt 0.6949 1.0867 0.2422
vt 0.6963 0.8504 0.2434
vt 0.4705 1.3052 0.2418
vt 0.6830 1.0937 0.2434
vt 0.6516 1.0930 0.2409
vt 0.8851 1.0739 0.6407
vt 0.8304 1.0808 0.6419
vt 0.8963 1.0688 0.6400
vt 0.8884 0.3482 0.6536
vt 0.8625 0.9873 0.6506
vt 0.8625 0.3525 0.6546
vt 0.1369 0.7904 0.3517
vt 0.1375 0.6546 0.3525
vt 0.2073 0.9877 0.1375
vt 0.2096 0.3517 0.1369
vt 0.3454 0.3525 0.1375
vt 0.3494 0.9873 0.1375
vt 0.2064 0.9924 0.1480
vt 0.3503 0.9927 0.1474
vt 0.1488 0.8022 0.3538
vt 0.6676 0.7953 0.8022
vt 0.6398 0.7953 0.8022
vt 0.8625 0.9877 0.7927
vt 0.8534 0.9896 0.7988
vt 0.8512 0.3538 0.8022
vt 0.8631 0.3517 0.7904
vt 0.6728 0.7889 0.8028
vt 0.6735 0.3791 0.8022
vt 0.2012 0.9896 0.1466
vt 0.6375 0.9870 0.8022
vt 0.8520 0.9924 0.7936
vt 0.6340 0.9932 0.7910
vt 0.0869 0.7574 0.3390
vt 0.0900 0.7524 0.3268
vt 0.1972 0.7889 0.3272
vt 0.1978 0.7953 0.3324
vt 0.1282 0.3773 0.3257
vt 0.1978 0.3791 0.3265
vt 0.3257 0.8718 0.3773
vt 0.3265 0.8022 0.3791
vt 0.1181 0.3716 0.3268
vt 0.0844 -0.7115 0.3291
vt 0.1192 -0.7101 0.3218
vt 0.6732 0.3716 0.8819
vt 0.9521 0.3340 0.8808
vt 0.9498 0.3397 0.8645
vt 0.6743 0.3773 0.8718
vt 0.6782 -0.7101 0.8808
vt 0.9514 -0.7120 0.8808
vt 0.1307 0.3330 0.0375
vt 0.1355 0.3397 0.0502
vt 0.1192 0.3340 0.0479
vt 0.6600 0.7521 0.9223
vt 0.3590 0.1971 0.9223
vt 0.6732 0.7524 0.9100
vt 0.6629 -0.7119 0.9223
vt 0.6709 -0.7115 0.9156
vt 0.3581 -0.7119 0.9223
vt 0.0777 0.2012 0.6513
vt 0.0674 0.2003 0.6528
vt 0.1321 -0.7112 0.0376
vt 0.1192 -0.7120 0.0486
vt 0.4514 0.3331 0.0376
vt 0.4552 0.3389 0.0478
vt 0.4641 0.3336 0.0503
vt 0.4490 -0.7097 0.0375
vt 0.4641 -0.7108 0.0483
vt 0.6326 0.1590 0.0933
vt 0.6256 0.1552 0.0913
vt 0.6307 0.1542 0.0842
vt 0.6346 -0.7110 0.0826
vt 0.6244 -0.7114 0.0901
vt 0.2764 1.4117 0.2658
vt 0.2595 1.7054 0.2661
vt 0.2591 0.8474 0.2651
vt 0.2768 0.8476 0.2656
vt 0.2612 1.7121 0.2819
vt 0.2446 1.7056 0.2796
vt 0.2450 0.8480 0.2785
vt 0.4191 1.6780 0.2658
vt 0.4256 1.6815 0.2648
vt 0.2843 1.4152 0.2658
vt 0.4177 1.4086 0.2649
vt 0.4177 0.2649 1.4086
vt 0.2843 0.2658 1.4152
vt 0.7342 1.4117 0.2764
vt 0.8238 1.3974 0.2768
vt 0.8247 1.4004 0.2869
vt 0.7342 1.4152 0.2843
vt 0.2768 0.2114 0.8476
vt 0.2768 0.2656 0.8476
vt 0.7344 0.8476 0.2768
vt 0.7886 0.8476 0.2768
vt 0.7971 0.8434 0.2768
vt 0.9333 0.1544 0.0834
vt 0.9343 0.1591 0.0952
vt 0.6850 0.1617 0.1036
vt 0.6308 0.1626 0.1036
vt 0.8254 0.5229 0.2775
vt 0.7984 0.5227 0.2764
vt 0.2843 0.1665 0.5256
vt 0.2775 0.1746 0.5229
vt 0.1694 0.1222 0.5079
vt 0.4018 0.1270 0.5407
vt 0.1572 0.1241 0.1679
vt 0.0952 0.0657 0.1591
vt 0.1674 0.1109 0.1699
vt 0.8794 0.5027 0.1586
vt 0.8759 0.1679 0.1572
vt 0.8891 0.1699 0.1674
vt 0.8881 0.5035 0.1690
vt 0.8778 0.5079 0.1694
vt 0.2276 0.2160 0.5159
vt 0.2276 0.3025 0.5166
vt 0.1653 0.3049 0.5102
vt 0.2368 0.8424 0.2046
vt 0.2358 0.5176 0.2048
vt 0.2764 0.5227 0.2016
vt 0.2768 0.8434 0.2029
vt 0.2370 0.8474 0.2139
vt 0.2768 0.8476 0.2114
vt 0.2284 0.8434 0.2131
vt 0.7952 0.5176 0.2358
vt 0.7954 0.8424 0.2368
vt 0.7869 0.8434 0.2284
vt 0.7840 0.5159 0.2276
vt 0.2358 0.2048 0.5176
vt 0.2764 0.2016 0.5227
vt 0.3994 1.2746 0.1662
vt 0.2843 0.5256 0.1665
vt 0.3970 0.5428 0.1662
vt 0.2869 1.4004 0.1753
vt 0.4817 1.3912 0.1759
vt 0.2768 1.3974 0.1762
vt 0.8335 0.5256 0.2843
vt 0.8338 1.3948 0.2847
vt 0.8338 1.2746 0.3994
vt 0.8708 1.2675 0.3996
vt 0.8693 1.2737 0.4098
vt 0.8355 1.2793 0.4102
vt 0.8338 0.5428 0.3970
vt 0.8730 0.5407 0.4018
vt 0.3970 0.1662 0.5428
vt 0.4098 1.2668 0.1190
vt 0.4098 1.2737 0.1307
vt 0.3996 1.2675 0.1292
vt 0.4120 0.5420 0.1189
vt 0.4018 0.5407 0.1270
vt 0.4120 0.1189 0.5420
vt 0.2299 0.3049 0.8473
vt 0.2434 0.3037 0.8504
vt 0.6951 0.8424 0.2272
vt 0.7861 0.8474 0.2370
vt 0.6951 0.8473 0.2299
vt 0.6975 0.5166 0.2276
vt 0.1135 1.0737 0.3139
vt 0.1134 1.0683 0.3050
vt 0.2422 1.0867 0.3051
vt 0.2434 1.0937 0.3170
vt 0.2299 0.8473 0.3049
vt 0.2434 0.8504 0.3037
vt 0.2272 0.8424 0.3049
vt 0.1653 0.5102 0.3049
vt 0.2276 0.5166 0.3025
vt 0.1126 0.3058 0.1632
vt 0.1583 0.3033 0.1710
vt 0.1126 0.1632 0.3058
vt 0.1583 0.1710 0.3033
vt 0.1555 0.5032 0.3049
vt 0.1036 0.3150 0.1617
vt 0.6951 0.5032 0.1555
vt 0.6967 0.1710 0.1583
vt 0.6951 0.5102 0.1653
vt 0.0478 0.5448 0.3389
vt 0.1031 0.5452 0.3467
vt 0.6855 1.0692 0.1044
vt 0.3593 1.0739 0.1149
vt 0.6942 0.1632 0.1126
vt 0.6950 1.0683 0.1134
vt 0.1011 -0.7104 0.5359
vt 0.1034 0.3410 0.5359
vt 0.0503 0.3336 0.5359
vt 0.0483 -0.7108 0.5359
vt 0.4641 0.3410 0.1034
vt 0.4548 0.3467 0.1031
vt 0.1044 1.0692 0.3145
vt 0.1031 0.3467 0.5452
vt 0.0478 0.3389 0.5448
vt 0.6240 0.1562 0.1028
vt 0.4641 -0.7104 0.1011
vt 0.6222 -0.7120 0.1036
vt 0.8972 0.1562 0.3760
vt 0.9087 0.1552 0.3744
vt 0.9067 0.1590 0.3674
vt 0.8964 0.1626 0.3692
vt 0.8964 -0.7120 0.3778
vt 0.9099 -0.7114 0.3756
vt 0.0834 0.1544 0.0667
vt 0.0927 0.1545 0.0577
vt 0.0952 0.1591 0.0657
vt 0.9343 -0.7121 0.0831
vt 0.0939 -0.7116 0.0571
vt 0.0831 -0.7121 0.0657
vt 0.3946 0.1958 0.0585
vt 0.3941 0.2001 0.0675
vt 0.0671 0.1961 0.4017
vt 0.0675 0.2001 0.3941
vt 0.0585 0.1958 0.3946
vt 0.3906 -0.7118 0.0571
vt 0.9061 0.0571 -0.7116
vt 0.9169 0.0657 -0.7121
vt 0.6094 0.0571 -0.7118
vt 0.0677 -0.7117 0.4025
vt 0.1102 -0.7114 0.4101
vt 0.1102 0.1965 0.4049
vt 0.0571 -0.7118 0.3906
vt 0.3941 0.0675 0.2001
vt 0.3932 0.1102 0.2010
vt 0.1690 0.5035 0.1119
vt 0.4924 0.5475 0.1106
vt 0.1694 0.5079 0.1222
vt 0.1102 0.2010 0.3932
vt 0.3932 0.2010 0.1102
vt 0.4049 0.1965 0.1102
vt 0.4937 -0.7118 0.1107
vt 0.4101 -0.7114 0.1102
vt 0.1674 0.1699 0.1109
vt 0.7299 0.2665 0.8475
vt 0.7049 0.2655 0.8481
vt 0.7049 0.2361 0.8487
vt 0.8263 0.2404 0.8474
vt 0.2397 0.8416 0.8349
vt 0.2404 0.8474 0.8263
vt 0.2305 0.8432 0.8269
vt 0.7047 0.1296 0.3746
vt 0.9486 0.1005 0.3394
vt 0.8266 0.2296 0.3589
vt 0.7049 0.2233 0.3746
vt 0.9093 0.3177 0.3463
vt 0.9005 0.3058 0.3476
vt 0.2296 0.3589 0.8266
vt 0.2413 0.3559 0.8349
vt 0.1005 0.3394 0.9486
vt 0.6944 0.1193 0.3755
vt 0.8349 0.2413 0.3559
vt 0.8349 0.3014 0.3584
vt 0.3156 1.0687 0.9093
vt 0.3149 1.0741 0.8994
vt 0.3055 1.0693 0.8990
vt 0.3058 0.3476 0.9005
vt 0.3177 0.3463 0.9093
vt 0.9005 0.3476 0.3058
vt 0.8990 1.0693 0.3055
vt 0.8349 0.8429 0.3048
vt 0.8349 0.3584 0.3014
vt 0.8263 0.8484 0.3049
vt 0.3014 0.3584 0.8349
vt 0.3048 0.8429 0.8349
vt 0.3049 0.8484 0.8263
vt 0.2258 1.6740 0.6580
vt 0.2263 1.6682 0.6658
vt 0.2658 1.6772 0.6676
vt 0.2658 1.6835 0.6605
vt 0.2172 1.6688 0.6576
vt 0.2263 1.2908 0.6665
vt 0.2655 1.2960 0.6671
vt 0.2172 1.2884 0.6586
vt 0.6665 0.2263 1.2908
vt 0.7297 1.7050 0.2662
vt 0.7294 1.7115 0.2790
vt 0.6605 1.6835 0.2658
vt 0.6944 1.2957 0.2650
vt 0.6676 1.6772 0.2658
vt 0.6671 1.2960 0.2655
vt 0.6944 0.2650 1.2957
vt 0.6671 0.2655 1.2960
vt 0.7299 0.8475 0.2665
vt 0.7045 1.2902 0.2643
vt 0.7049 0.8481 0.2655
vt 0.1301 1.2736 0.6938
vt 0.1286 1.2679 0.7035
vt 0.2643 1.2902 0.7045
vt 0.2650 1.2957 0.6944
vt 0.2818 1.7056 0.7426
vt 0.2790 1.7115 0.7294
vt 0.2662 1.7050 0.7297
vt 0.5293 1.6154 0.7434
vt 0.7453 0.3166 1.0954
vt 0.7443 0.3715 1.0955
vt 0.3701 1.2911 0.7434
vt 0.3166 1.0954 0.7453
vt 0.3715 1.0955 0.7443
vt 0.7434 1.3023 0.3732
vt 0.2825 0.8474 0.7449
vt 0.2665 0.8475 0.7299
vt 0.7449 0.2825 0.8474
vt 0.3055 1.0910 0.7434
vt 0.8263 0.3049 0.8484
vt 0.7434 0.3041 0.8488
vt 0.3041 0.8488 0.7434
vt 0.7434 1.0910 0.3055
vt 0.8994 1.0741 0.3149
vt 0.7453 1.0954 0.3166
vt 0.7434 0.8488 0.3041
vt 0.2361 0.8487 0.7049
vt 0.2655 0.8481 0.7049
vt 0.2152 0.8472 0.7049
vt 0.1296 0.3746 0.7047
vt 0.2233 0.3746 0.7049
vt 0.7049 0.2152 0.8472
vt 0.8269 0.2305 0.8432
vt 0.8269 0.8432 0.2305
vt 0.7049 0.8472 0.2152
vt 0.7049 0.3746 0.2233
vt 0.8266 0.3589 0.2296
vt 0.4933 0.5520 0.1188
vt 0.6933 1.2678 0.1189
vt 0.6239 0.1189 0.3845
vt 0.6272 0.1003 0.3836
vt 0.6158 0.3793 0.1181
vt 0.6239 0.3845 0.1189
vt 0.5034 0.5487 0.1189
vt 0.5046 -0.7118 0.1189
vt 0.6111 -0.7105 0.1189
vt 0.8811 0.3845 0.6239
vt 0.8819 0.3793 0.6158
vt 0.8987 0.3790 0.6152
vt 0.8997 0.3836 0.6272
vt 0.9004 -0.7104 0.6162
vt 0.8811 -0.7105 0.6111
vt 0.9079 0.3791 0.6239
vt 0.9085 -0.7116 0.6243
vt 0.6239 0.3791 0.0921
vt 0.9495 0.3348 0.0921
vt 0.9486 0.3394 0.1005
vt 0.6272 0.3836 0.1003
vt 0.6243 -0.7116 0.0915
vt 0.9501 -0.7115 0.0911
vt 0.9589 0.3343 0.1002
vt 0.9598 -0.7115 0.1015
vt 0.1002 0.3343 0.9589
vt 0.4260 0.3336 0.9598
vt 0.4235 0.3395 0.9489
vt 0.4248 -0.7120 0.9598
vt 0.1015 -0.7115 0.9598
vt 0.4338 0.3349 0.9505
vt 0.0483 -0.7104 0.4341
vt 0.0495 0.3349 0.4338
vt 0.0402 0.3336 0.4260
vt 0.0402 -0.7120 0.4248
vt 0.6363 1.0685 0.9093
vt 0.6489 1.0694 0.8990
vt 0.6374 1.0743 0.8983
vt 0.4280 0.3450 0.9093
vt 0.9489 0.4235 0.3395
vt 0.9093 0.4280 0.3450
vt 0.6388 0.1672 0.9093
vt 0.6483 0.1686 0.9010
vt 0.9093 0.6388 0.1672
vt 0.9530 0.6313 0.1586
vt 0.9530 0.1586 0.6313
vt 0.9093 0.1672 0.6388
vt 0.9093 0.1648 0.6310
vt 0.6310 0.1648 0.9093
vt 0.4353 0.3396 0.9124
vt 0.0511 0.3395 0.4235
vt 0.0876 0.3396 0.4353
vt 0.0907 0.3450 0.4280
vt 0.9093 0.1607 0.6226
vt 0.9108 -0.7120 0.6228
vt 0.6226 0.1607 0.9093
vt 0.4388 -0.7113 0.9093
vt 0.6228 -0.7120 0.9108
vt 0.0907 -0.7113 0.4388
vt 0.6938 1.2736 0.1301
vt 0.7035 1.2679 0.1286
vt 0.6944 0.3755 0.1193
vt 0.7047 0.3746 0.1296
# 758 texture coords

g tile_single
usemtl 07___Default
s 1
f 1/1/1 2/2/2 3/3/3 4/4/4 
s 2
f 5/5/5 6/6/6 7/7/7 8/8/8 
s 1
f 9/9/9 6/6/10 10/10/11 
s 4
f 5/11/12 11/12/13 10/13/14 6/14/15 
s 2
f 12/15/16 13/16/17 14/17/18 15/18/19 
f 16/19/20 13/16/17 12/15/16 
f 13/16/17 17/20/21 18/21/22 14/17/18 
s 1
f 19/22/23 18/23/24 17/24/25 
s 2
f 17/20/21 13/16/17 16/19/20 20/25/26 
s 1
f 21/26/27 3/27/3 9/9/9 
f 17/24/25 20/28/28 21/29/27 
f 22/30/29 23/31/30 24/32/31 
f 17/24/25 21/29/27 24/32/31 19/22/23 
s 2
f 25/33/32 26/34/10 27/35/33 
s 4
f 11/12/13 5/11/12 28/36/34 
s 2
f 29/37/35 25/33/32 28/38/36 
f 8/8/8 30/39/37 28/38/36 5/5/5 
f 31/40/38 32/41/39 33/42/40 
s 4
f 30/43/41 8/44/42 34/45/43 
f 35/46/44 36/47/45 34/45/43 
s 8
f 36/48/46 35/49/47 31/50/48 33/51/49 
s 4
f 37/52/50 34/45/43 8/44/42 7/53/51 
f 34/45/43 37/52/50 38/54/52 35/46/44 
s 8
f 39/55/53 31/50/48 35/49/47 38/56/54 
s 2
f 40/57/55 41/58/56 32/41/39 42/59/57 
s 8
f 33/51/49 43/60/58 44/61/59 36/48/46 
s 2
f 32/41/39 41/58/56 43/62/60 33/42/40 
s 1
f 26/63/61 25/64/62 45/65/63 
s 16
f 46/66/64 29/67/65 47/68/66 
s 2
f 30/39/37 47/69/67 29/37/35 28/38/36 
s 4
f 48/70/68 47/71/69 30/43/41 34/45/43 
f 36/47/45 44/72/70 48/70/68 34/45/43 
s 16
f 49/73/71 47/68/66 48/74/72 
f 43/75/73 49/73/71 48/74/72 44/76/74 
f 43/75/73 41/77/75 49/73/71 
f 49/73/71 46/66/64 47/68/66 
f 46/78/64 45/65/76 25/64/77 29/79/65 
s 1
f 50/80/78 26/63/61 45/65/63 
f 51/81/79 50/80/78 45/65/63 
f 52/82/80 53/83/81 51/81/79 45/65/63 
s 8
f 54/84/82 55/85/83 51/86/84 53/87/85 
f 56/88/86 57/89/87 55/85/83 54/84/82 
f 57/90/87 58/91/88 59/92/89 
s 2
f 27/35/33 28/38/36 25/33/32 
s 4
f 27/93/90 60/94/91 11/12/13 28/36/34 
f 11/12/13 60/94/91 61/95/92 10/13/14 
s 8
f 50/96/93 62/97/94 27/98/95 26/99/96 
s 1
f 10/10/11 61/100/97 63/101/98 9/9/9 
s 8
f 62/102/94 50/103/93 51/86/84 55/85/83 
f 60/104/99 27/98/95 62/97/94 
s 1
f 22/105/29 21/26/27 9/9/9 63/101/98 
s 8
f 22/106/100 63/107/101 62/97/94 
s 1
f 24/32/31 21/29/27 22/30/29 
s 8
f 62/108/94 55/109/83 57/90/87 
f 60/104/99 62/97/94 63/107/101 61/110/102 
s 1
f 58/111/103 64/112/104 65/113/105 59/114/106 
s 8
f 66/115/107 23/116/108 22/106/100 62/97/94 
f 67/117/109 57/90/87 59/92/89 68/118/110 
f 67/117/109 66/119/107 62/108/94 57/90/87 
s 4
f 23/120/111 66/121/112 69/122/113 24/123/114 
f 69/122/113 66/121/112 67/124/115 
f 70/125/116 69/122/113 67/124/115 68/126/117 
s 1
f 70/127/118 68/118/119 59/92/106 65/128/105 
f 71/129/120 70/127/118 65/128/105 
s 4
f 72/130/121 69/131/113 70/127/116 71/129/122 
f 24/123/114 69/122/113 73/132/123 19/133/124 
f 19/134/124 73/135/123 14/136/125 18/137/126 
f 73/132/123 69/122/113 72/138/121 
f 73/139/123 15/140/127 14/141/125 
f 74/142/128 75/143/129 73/139/123 72/130/121 
f 75/143/129 74/142/128 76/144/130 
f 77/145/131 74/142/128 72/130/121 71/129/122 
f 74/142/128 77/145/131 78/146/132 76/144/130 
f 75/143/129 79/147/133 15/140/127 73/139/123 
f 80/148/134 81/149/135 76/150/130 78/151/132 
s 8
f 12/152/136 82/153/137 83/154/138 16/155/139 
s 4
f 75/156/129 76/150/130 81/149/135 79/157/133 
s 8
f 79/147/140 82/153/137 12/152/136 15/140/141 
f 82/153/137 79/147/140 81/158/142 
f 84/159/143 82/153/137 81/158/142 80/160/144 
s 1
f 85/161/145 77/145/146 71/129/120 65/128/105 
f 78/146/147 77/145/146 85/161/145 
f 78/146/147 85/161/145 84/159/148 80/160/149 
s 8
f 86/162/150 83/154/138 82/153/137 
s 2
f 87/163/151 86/164/152 82/165/153 84/166/154 
s 1
f 87/167/155 84/159/148 85/161/145 
s 8
f 56/168/86 88/169/156 58/91/88 57/90/87 
s 2
f 52/170/157 89/171/158 54/172/159 53/173/160 
f 88/174/161 56/175/162 89/171/158 
f 56/175/162 54/172/159 89/171/158 
s 4
f 88/176/163 90/177/164 64/112/165 58/111/166 
s 2
f 90/178/167 88/174/161 89/171/158 
f 91/179/168 90/178/167 89/171/158 
s 1
f 92/180/169 65/128/105 64/181/104 
f 91/182/170 92/180/169 64/181/104 90/183/171 
f 92/180/169 91/182/170 93/184/172 
s 2
f 94/185/173 93/186/174 91/179/168 89/171/158 
f 95/187/175 94/188/173 96/189/176 
f 95/190/175 97/191/177 98/192/178 99/193/179 
f 96/194/176 100/195/180 97/191/177 95/190/175 
f 101/196/181 89/197/158 102/198/182 
f 89/199/158 101/200/181 96/189/176 94/188/173 
f 101/200/181 103/201/183 100/202/180 96/189/176 
f 102/203/182 104/204/184 103/201/183 101/200/181 
f 105/205/185 106/206/186 107/207/187 
f 106/206/186 105/205/185 102/198/182 89/197/158 
f 108/208/188 105/209/185 107/210/187 109/211/189 
f 105/205/185 108/212/188 104/213/184 102/198/182 
f 110/214/190 111/215/191 112/216/192 113/217/193 
f 114/218/194 111/219/191 115/220/195 
f 116/221/196 115/222/195 111/223/191 110/224/190 
f 117/225/197 118/226/198 115/222/195 116/221/196 
s 4
f 119/227/199 118/228/200 120/229/201 
s 2
f 118/226/198 119/230/202 114/231/194 115/222/195 
f 114/218/194 119/232/202 121/233/203 
s 4
f 122/234/204 121/235/205 119/227/199 120/229/201 
s 2
f 123/236/206 112/237/192 111/219/191 114/218/194 
f 124/238/207 125/239/208 126/240/209 123/236/206 
f 124/238/207 123/236/206 114/218/194 121/233/203 
s 8
f 127/241/210 128/242/211 126/243/212 125/244/213 
s 1
f 129/245/214 127/246/215 125/247/216 124/248/217 
f 122/249/218 129/245/214 124/248/217 121/250/219 
s 8
f 128/242/211 127/241/210 130/251/220 
s 1
f 129/245/214 131/252/221 130/253/222 127/246/215 
f 129/245/214 122/249/218 131/252/221 
s 8
f 130/251/220 132/254/223 133/255/224 128/242/211 
s 4
f 131/256/225 134/257/226 132/258/227 130/259/228 
s 2
f 135/260/229 136/261/230 137/262/231 
f 138/263/232 139/264/233 140/265/234 
f 141/266/235 138/263/232 140/265/234 142/267/236 
s 4
f 143/268/237 144/269/238 142/270/239 145/271/240 
f 141/272/241 142/270/239 144/269/238 
f 144/273/238 143/274/237 146/275/242 
s 8
f 147/276/243 148/277/244 149/278/245 
f 143/279/246 147/276/243 149/278/245 146/280/247 
f 150/281/248 147/276/243 143/279/246 145/282/249 
f 150/281/248 151/283/250 147/276/243 
s 2
f 140/284/234 150/285/251 145/286/252 142/287/236 
f 150/285/251 140/284/234 139/288/233 151/289/253 
s 4
f 146/290/242 152/291/254 153/292/255 144/269/238 
s 2
f 149/293/256 154/294/257 152/295/258 146/275/259 
f 155/296/260 156/297/261 157/298/262 
s 4
f 158/299/263 156/300/264 155/301/265 159/302/266 
s 2
f 87/163/151 160/303/267 161/304/268 
f 161/304/268 162/305/269 86/164/152 87/163/151 
s 8
f 163/306/270 164/307/271 165/308/272 
f 163/306/270 165/308/272 166/309/273 167/310/274 
f 168/311/275 165/308/272 164/307/271 169/312/276 
f 162/313/277 165/308/272 170/314/278 171/315/279 
f 165/308/272 168/311/275 170/314/278 
s 2
f 154/294/257 149/293/256 148/316/280 172/317/281 
f 154/294/257 172/317/281 173/318/282 
f 163/319/283 154/320/257 173/321/282 164/322/284 
f 174/323/285 152/295/258 154/294/257 
f 174/323/285 154/294/257 163/324/283 167/325/286 
s 4
f 158/326/263 174/327/287 167/328/288 166/329/289 
s 1
f 20/28/28 175/330/290 176/331/291 21/29/27 
s 8
f 83/332/138 175/333/292 20/334/293 16/335/139 
s 1
f 21/29/27 176/331/291 4/336/4 3/337/3 
f 170/338/294 176/331/291 177/339/295 171/340/296 
f 176/331/291 175/330/290 177/339/295 
s 8
f 177/341/297 175/342/292 83/343/138 86/164/150 
s 2
f 171/344/298 177/341/299 86/164/152 162/305/269 
s 1
f 4/336/4 176/331/291 178/345/300 
f 179/346/301 178/347/300 168/348/302 169/349/303 
s 2
f 173/321/282 179/350/304 169/351/305 164/322/284 
s 1
f 168/348/302 178/347/300 176/352/291 170/353/294 
f 178/347/300 179/346/301 180/354/306 
s 2
f 172/355/281 180/356/307 179/350/304 173/321/282 
f 172/357/281 148/358/280 181/359/308 180/360/307 
s 8
f 182/361/309 181/362/310 148/277/244 147/276/243 
f 183/363/311 182/361/309 147/276/243 151/283/250 
s 2
f 151/364/253 139/365/233 184/366/312 183/367/313 
s 1
f 185/368/314 184/369/315 186/370/316 
s 2
f 139/264/233 138/263/232 186/371/317 184/372/312 
f 187/373/318 186/371/317 138/263/232 141/266/235 
s 1
f 178/347/300 185/368/314 1/374/1 4/375/4 
f 185/368/314 181/376/319 182/377/320 
s 4
f 141/272/241 144/269/238 188/378/321 187/379/322 
s 1
f 137/380/323 185/368/314 189/381/324 190/382/325 
f 181/376/319 185/368/314 178/347/300 180/354/306 
f 184/369/315 185/368/314 182/377/320 183/383/326 
f 188/384/327 185/368/314 186/370/316 187/385/328 
f 185/368/314 188/384/327 189/381/324 
s 4
f 174/327/287 158/326/263 153/386/255 152/387/254 
f 159/388/266 153/386/255 158/326/263 
f 156/389/264 158/326/263 191/390/329 192/391/330 
f 158/326/263 166/329/289 191/390/329 
s 2
f 193/392/331 157/298/262 156/297/261 192/393/332 
s 8
f 194/394/333 193/395/334 192/396/335 191/397/336 
f 165/398/272 194/394/333 191/397/336 166/399/273 
s 2
f 157/298/262 193/392/331 195/400/337 
s 1
f 87/167/155 85/161/145 196/401/338 160/402/339 
s 8
f 194/403/333 197/404/340 195/405/341 193/406/334 
f 197/404/340 196/401/342 198/407/343 
f 195/405/341 197/404/340 198/407/343 199/408/344 
f 197/409/340 194/394/333 165/398/272 
f 161/410/345 197/404/340 165/411/272 162/412/277 
f 196/401/342 197/404/340 161/410/345 160/402/346 
s 1
f 85/413/145 200/414/347 198/415/348 196/416/338 
f 200/414/347 201/417/349 199/418/350 198/415/348 
s 2
f 201/419/351 157/298/262 195/400/337 199/420/352 
s 1
f 202/421/353 201/417/349 200/414/347 
f 203/422/354 204/423/355 202/421/353 200/414/347 
s 2
f 202/424/356 205/425/357 157/426/262 201/427/351 
s 4
f 204/428/358 206/429/172 205/425/359 202/424/360 
s 2
f 207/430/361 157/431/262 205/432/357 
s 1
f 92/180/169 208/433/362 85/161/145 65/128/105 
f 99/434/172 208/433/362 92/180/169 93/184/172 
f 200/435/347 85/161/145 208/433/362 
f 208/433/362 209/436/363 203/437/354 200/435/347 
f 209/436/363 208/433/362 99/434/172 98/438/172 
s 2
f 99/193/179 93/439/174 94/440/173 95/190/175 
f 210/441/364 207/430/361 205/432/357 206/442/365 
f 211/443/366 212/444/367 157/431/262 207/430/361 
f 212/444/367 211/443/366 213/445/368 
f 214/446/369 211/443/366 207/430/361 210/441/364 
f 214/446/369 215/447/370 213/445/368 211/443/366 
s 1
f 216/448/371 217/449/372 218/450/373 
f 219/451/374 218/450/373 217/449/372 220/452/375 
f 221/453/376 222/454/377 136/455/378 223/456/379 
f 222/454/377 1/457/1 185/458/314 
f 136/455/378 222/454/377 185/458/314 137/459/323 
f 116/460/380 110/461/381 222/454/377 
f 116/460/380 222/454/377 224/462/382 117/463/383 
f 222/454/377 221/453/376 224/462/382 
s 4
f 118/228/200 117/464/384 224/465/385 120/229/201 
f 221/466/386 225/467/387 120/468/201 224/469/385 
s 2
f 136/261/230 135/260/229 226/470/388 223/471/389 
s 4
f 223/472/390 226/473/259 225/467/387 221/466/386 
f 225/467/387 226/473/259 227/474/391 
s 1
f 228/475/392 229/476/393 216/448/371 218/450/373 
f 216/448/371 229/476/393 230/477/394 231/478/395 
s 4
f 232/479/396 225/467/387 227/474/391 233/480/397 
s 8
f 234/481/398 232/482/399 235/483/400 236/484/401 
s 1
f 237/485/402 229/486/393 238/487/403 
s 8
f 239/488/404 237/489/405 238/490/406 240/491/407 
f 240/491/407 235/492/400 239/488/404 
f 241/493/408 242/494/409 243/495/410 235/483/400 
s 1
f 244/496/411 245/497/412 233/498/413 227/499/414 
f 135/500/415 244/496/411 227/499/414 226/501/416 
f 244/496/411 135/500/415 246/502/417 
f 245/503/412 244/504/411 246/505/417 241/506/418 
s 8
f 245/507/419 241/493/408 235/483/400 
f 245/507/419 235/483/400 232/482/399 233/508/420 
s 4
f 247/509/421 132/258/227 134/257/226 
f 247/509/421 134/257/226 234/510/422 248/511/423 
f 120/512/201 134/257/226 131/256/225 122/513/204 
f 134/257/226 120/512/201 225/514/387 
f 234/515/422 134/516/226 225/467/387 232/479/396 
s 8
f 247/517/424 249/518/425 133/519/224 132/520/223 
f 248/521/426 236/522/401 249/518/425 247/517/424 
f 236/484/401 248/523/426 234/481/398 
f 250/524/427 133/525/224 249/526/425 
f 251/527/428 250/524/427 249/526/425 236/528/401 
f 236/484/401 235/483/400 251/529/428 
s 2
f 252/530/429 135/260/229 137/262/231 190/531/430 
s 1
f 253/532/431 246/505/417 135/533/415 252/534/432 
f 253/532/431 242/535/433 241/506/418 246/505/417 
s 4
f 144/536/238 254/537/434 189/538/435 188/539/321 
f 254/537/434 252/540/436 190/541/437 189/538/435 
f 253/542/438 252/540/436 254/537/434 
f 253/542/438 254/537/434 243/543/439 242/544/440 
s 1
f 255/545/441 229/486/393 237/485/402 256/546/442 
s 4
f 255/547/443 256/548/444 257/549/445 
s 1
f 255/545/441 230/550/394 229/486/393 
s 4
f 257/549/445 243/543/439 254/537/434 255/547/443 
s 8
f 239/488/404 257/551/446 256/552/447 237/489/405 
f 257/551/446 239/488/404 235/492/400 243/553/410 
s 2
f 212/554/367 258/555/448 155/296/260 157/298/262 
s 4
f 259/556/449 144/273/238 153/557/255 159/302/266 
f 259/556/449 230/477/450 255/558/443 254/559/434 
s 2
f 260/560/451 261/561/452 213/562/368 215/563/370 
s 4
f 230/477/450 259/556/449 261/564/453 231/478/454 
f 258/565/455 259/556/449 159/302/266 155/301/265 
f 254/537/434 144/536/238 259/566/449 
s 2
f 261/561/452 258/567/448 212/568/367 213/562/368 
s 4
f 259/556/449 258/565/455 261/564/453 
f 262/569/456 261/564/453 260/570/457 263/571/458 
f 262/569/456 231/478/454 261/564/453 
s 1
f 262/572/459 217/573/372 216/574/371 231/575/395 
f 262/572/459 263/576/460 220/577/375 217/573/372 
f 228/578/392 264/579/461 229/580/393 
f 265/581/462 228/475/392 218/450/373 219/451/374 
f 266/582/463 264/579/461 228/578/392 265/583/462 
f 229/580/393 264/579/461 267/584/464 268/585/465 
s 2
f 269/586/466 268/587/467 267/588/468 
s 1
f 270/589/469 267/584/464 264/579/461 266/582/463 
s 4
f 266/590/470 265/591/470 270/592/470 
s 2
f 271/593/471 272/594/472 273/595/473 
f 271/593/471 269/586/466 267/588/468 270/596/474 
s 1
f 268/597/465 274/598/475 238/487/403 229/486/393 
s 8
f 240/599/407 275/600/476 251/527/428 235/601/400 
s 2
f 273/595/473 274/602/477 268/587/467 269/586/466 
f 273/595/473 269/586/466 271/593/471 
s 8
f 275/600/476 274/603/478 273/604/479 
f 276/605/480 275/600/476 273/604/479 272/606/481 
f 274/603/478 275/600/476 240/599/407 238/607/406 
s 2
f 277/608/482 278/609/483 279/610/484 280/611/485 
f 281/612/486 280/613/485 282/614/487 
s 1
f 283/615/488 284/616/489 285/617/490 286/618/491 
f 284/616/489 287/619/492 288/620/493 
s 2
f 285/621/494 289/622/495 281/612/486 282/614/487 
s 1
f 289/622/496 285/621/490 284/623/489 
f 284/616/489 283/615/488 290/624/497 
f 289/625/496 284/616/489 288/620/493 291/626/498 
s 16
f 292/627/499 49/628/71 293/629/500 
f 293/629/500 288/630/501 287/631/502 292/627/499 
s 4
f 288/632/503 293/633/504 294/634/505 291/635/506 
f 293/633/504 295/636/507 294/634/505 
s 2
f 291/637/10 294/638/508 281/612/486 289/622/495 
f 280/613/485 281/612/486 294/638/508 295/639/509 
s 4
f 112/640/510 296/641/511 297/642/512 113/643/513 
f 296/641/511 112/640/510 123/644/514 
f 296/641/511 298/645/515 299/646/516 297/642/512 
f 298/645/515 296/641/511 123/644/514 126/647/517 
s 8
f 298/648/518 126/243/212 128/242/211 
s 1
f 222/454/377 300/649/519 2/650/2 1/457/1 
f 110/461/381 113/651/520 300/649/519 222/454/377 
f 301/652/521 300/649/519 297/653/522 299/654/523 
s 8
f 298/648/518 128/242/211 301/655/524 299/656/525 
s 1
f 300/649/519 113/651/520 297/653/522 
f 277/657/526 300/649/519 302/658/527 278/659/528 
f 300/649/519 301/652/521 302/658/527 
s 8
f 128/660/211 303/661/529 302/662/530 301/663/524 
s 1
f 304/664/531 2/665/2 300/666/519 
f 37/667/532 304/664/531 39/55/533 38/56/10 
s 16
f 305/668/534 49/73/71 41/77/75 40/669/535 
s 1
f 304/664/531 9/9/9 3/27/3 2/665/2 
f 9/9/9 304/664/531 7/7/536 6/6/10 
f 37/667/532 7/7/536 304/664/531 
f 42/670/537 39/55/533 304/664/531 
f 42/670/537 304/664/531 305/671/538 40/672/539 
s 2
f 31/40/38 39/673/540 42/59/57 32/41/39 
s 1
f 306/674/541 304/664/531 300/666/519 277/675/526 
s 2
f 306/676/542 277/608/482 280/611/485 
s 1
f 307/677/543 305/671/538 304/664/531 306/674/541 
s 2
f 295/678/509 308/679/544 306/676/542 
s 1
f 306/674/541 308/680/545 307/677/543 
s 2
f 280/611/485 295/678/509 306/676/542 
s 16
f 307/681/546 293/633/500 49/682/71 305/683/534 
s 4
f 293/633/504 307/681/547 308/684/548 295/636/507 
s 8
f 303/661/529 279/685/549 278/686/550 302/662/530 
f 309/687/551 303/661/529 283/688/552 286/689/553 
f 309/687/551 279/685/549 303/661/529 
s 2
f 279/610/484 309/690/554 282/691/487 280/611/485 
s 4
f 282/692/555 309/693/556 286/694/557 285/695/558 
s 8
f 310/696/559 311/697/560 250/524/427 251/527/428 
f 251/527/428 275/600/476 310/696/559 
s 1
f 290/624/497 312/698/561 313/699/562 284/616/489 
s 8
f 314/700/563 312/701/564 315/702/565 
f 316/703/566 317/704/567 314/700/563 315/702/565 
s 2
f 312/705/568 314/706/569 318/707/570 313/708/571 
f 319/709/572 318/707/570 314/706/569 317/710/573 
f 320/711/574 313/708/571 318/707/570 
f 321/712/575 320/711/574 318/707/570 319/709/572 
s 1
f 320/713/576 322/714/577 284/715/489 313/716/562 
f 321/717/578 323/718/579 322/714/577 320/713/576 
f 324/719/580 284/715/489 322/714/577 
f 325/720/581 324/719/580 322/714/577 323/718/579 
f 324/721/580 326/722/582 327/723/583 284/623/489 
f 328/724/584 326/722/582 324/721/580 325/725/581 
f 329/726/585 327/723/583 326/722/582 
f 330/727/586 329/728/585 326/729/582 328/730/584 
s 16
f 331/731/587 45/732/76 46/733/64 
f 331/731/587 46/733/64 49/628/71 292/627/499 
f 332/734/588 331/731/587 292/627/499 287/631/502 
s 1
f 327/735/583 332/736/589 287/619/492 284/616/489 
s 16
f 331/731/587 333/737/590 52/738/591 45/732/76 
s 2
f 52/170/157 333/739/592 106/740/186 89/171/158 
f 106/741/186 333/742/592 334/743/593 
s 16
f 334/744/594 333/737/590 335/745/595 
s 1
f 327/746/583 329/728/585 335/747/596 332/748/589 
s 16
f 331/731/587 332/734/588 335/745/595 333/737/590 
s 2
f 106/741/186 334/743/593 336/749/597 107/210/187 
f 107/210/187 336/749/597 337/750/598 109/211/189 
s 16
f 336/751/599 334/744/594 335/745/595 338/752/600 
f 338/752/600 337/753/601 336/751/599 
s 1
f 338/754/602 335/747/596 329/728/585 330/727/586 
s 8
f 311/697/560 128/755/211 133/525/224 250/524/427 
f 311/697/560 303/756/529 128/755/211 
f 311/697/560 290/757/603 283/758/552 303/756/529 
f 290/757/603 311/697/560 315/702/565 312/701/564 
f 311/697/560 310/696/559 315/702/565 
f 310/696/559 275/600/476 315/702/565 
f 316/703/566 315/702/565 275/600/476 276/605/480 
# 255 polygons - 131 triangles

