# 3ds Max Wavefront OBJ Exporter v0.97b - (c)2007 guruware
# File Created: 18.03.2026 08:36:07

mtllib construct_temp_all_01.mtl

#
# object Object001
#

v  -0.4721 10.0000 0.4715
v  0.4712 10.0000 0.4715
v  0.4712 10.0000 -0.4717
v  -0.4721 10.0000 -0.4717
v  -0.4721 0.0000 0.4999
v  0.4712 0.0000 0.4999
v  0.4712 9.9716 0.4999
v  -0.4721 9.9716 0.4999
v  -0.5004 0.0000 -0.4717
v  -0.5004 0.0000 0.4715
v  -0.5004 9.9716 0.4715
v  -0.5004 9.9716 -0.4717
v  0.5004 10.0000 0.4715
v  0.5004 10.0000 -0.4717
v  0.5004 0.0000 0.4999
v  0.5004 9.9716 0.4999
v  0.4712 10.0000 -0.4999
v  -0.4721 10.0000 -0.4999
v  -0.5004 9.9716 -0.4999
v  -0.5004 0.0000 -0.4999
v  0.5004 10.0000 -0.4999
# 21 vertices

vn 0.0000 1.0000 -0.0000
vn 0.0000 0.0000 1.0000
vn -1.0000 0.0000 -0.0000
vn -0.5774 0.5773 0.5774
vn 0.0000 0.7071 0.7071
vn -0.7071 0.7071 -0.0000
vn -0.7071 0.0000 0.7071
# 7 vertex normals

vt 0.0284 0.0284 0.0000
vt 0.9716 0.0284 0.0000
vt 0.9716 0.9716 0.0000
vt 0.0284 0.9716 0.0000
vt 0.0284 0.0000 0.0000
vt 0.9716 0.0000 0.0000
vt 0.9716 0.9972 0.0000
vt 0.0284 0.9972 0.0000
vt 0.0040 1.0112 0.0000
vt 0.0040 0.9831 0.0000
vt 0.0284 0.9570 0.0000
vt 0.9716 0.9570 0.0000
vt 0.9757 0.9960 0.0000
vt 0.9757 -0.0012 0.0000
vt 0.9716 0.9771 0.0000
vt 0.4980 0.4980 0.0000
vt 0.5000 0.0000 0.0000
vt 0.5000 0.9972 0.0000
vt 0.5000 0.9771 0.0000
vt 0.4878 0.9901 0.0000
vt 0.0162 1.0042 0.0000
vt 0.0264 -0.0006 0.0000
vt 0.9716 0.4927 0.0000
vt 0.7348 0.7375 0.0000
# 24 texture coords

g Object001
usemtl 07___Default
s 4
f 1/1/1 2/2/1 3/3/1 4/4/1 
s 8
f 5/5/2 6/6/2 7/7/2 8/8/2 
s 64
f 9/5/3 10/6/3 11/7/3 12/8/3 
s off
f 8/8/4 1/9/4 11/10/4 
f 1/11/5 8/8/5 7/7/5 2/12/5 
f 4/11/6 12/8/6 11/7/6 1/12/6 
f 8/13/7 11/7/7 10/6/7 5/14/7 
s 1
f 3/7/1 2/7/1 13/15/1 14/16/1 
s off
f 7/7/2 6/6/2 15/17/2 16/18/2 
f 2/7/5 7/7/5 16/18/5 13/19/5 
s 2
f 3/7/1 17/20/1 18/21/1 4/8/1 
s 1
f 12/5/3 19/22/3 20/23/3 9/2/3 
s 8
f 4/8/6 18/21/6 19/22/6 12/5/6 
s off
f 3/7/1 14/16/1 21/24/1 17/7/1 
# 13 polygons - 1 triangles

#
# object Object002
#

v  -0.4858 10.0000 0.4715
v  0.4574 10.0000 0.4715
v  0.4574 10.0000 -0.4717
v  -0.4858 10.0000 -0.4717
v  -0.4858 0.0000 0.4999
v  0.4574 0.0000 0.4999
v  0.4574 9.9716 0.4999
v  -0.4858 9.9716 0.4999
v  0.4858 0.0000 0.4715
v  0.4858 0.0000 -0.4717
v  0.4858 9.9716 -0.4717
v  0.4858 9.9716 0.4715
v  0.4858 0.0000 -0.4999
v  0.4858 9.9716 -0.4999
v  0.4574 10.0000 -0.4999
v  -0.4858 10.0000 -0.4999
# 16 vertices

vn 0.0000 1.0000 -0.0000
vn 0.0000 0.0000 1.0000
vn 1.0000 0.0000 -0.0000
vn 0.5774 0.5773 0.5774
vn 0.0000 0.7071 0.7071
vn 0.7071 0.7071 -0.0000
vn 0.7071 0.0000 0.7071
# 7 vertex normals

vt 0.0284 0.0284 0.0000
vt 0.9716 0.0284 0.0000
vt 0.9716 0.9716 0.0000
vt 0.0284 0.9716 0.0000
vt 0.0284 0.0000 0.0000
vt 0.9716 0.0000 0.0000
vt 0.9716 0.9972 0.0000
vt 0.0284 0.9972 0.0000
vt 0.0040 1.0112 0.0000
vt 0.0040 0.9831 0.0000
vt 0.0284 0.9570 0.0000
vt 0.9716 0.9570 0.0000
vt 0.0243 -0.0012 0.0000
vt 0.0243 0.9960 0.0000
vt 0.0284 0.0142 0.0000
vt 0.5000 0.9744 0.0000
vt 0.9716 0.9771 0.0000
vt 0.4980 0.4980 0.0000
vt 0.7348 0.7476 0.0000
vt 0.9716 0.4785 0.0000
# 20 texture coords

g Object002
usemtl 07___Default
s 4
f 22/25/8 23/26/8 24/27/8 25/28/8 
s 8
f 26/29/9 27/30/9 28/31/9 29/32/9 
s 16
f 30/29/10 31/30/10 32/31/10 33/32/10 
s off
f 33/32/11 23/33/11 28/34/11 
f 22/35/12 29/32/12 28/31/12 23/36/12 
f 23/35/13 33/32/13 32/31/13 24/36/13 
f 27/37/14 30/29/14 33/32/14 28/38/14 
s 1
f 31/25/10 34/39/10 35/40/10 32/41/10 
s 2
f 24/42/8 36/43/8 37/44/8 25/36/8 
s off
f 24/42/13 32/31/13 35/40/13 36/43/13 
# 9 polygons - 1 triangles

#
# object Box084
#

v  -0.4716 10.0000 0.4716
v  0.4716 10.0000 0.4716
v  0.4716 10.0000 -0.4716
v  -0.4716 10.0000 -0.4716
v  -0.4716 0.0000 0.5000
v  0.4716 0.0000 0.5000
v  0.4716 9.9716 0.5000
v  -0.4716 9.9716 0.5000
v  0.4716 0.0000 -0.5000
v  -0.4716 0.0000 -0.5000
v  -0.4716 9.9716 -0.5000
v  0.4716 9.9716 -0.5000
v  -0.5000 0.0000 -0.4716
v  -0.5000 0.0000 0.4716
v  -0.5000 9.9716 0.4716
v  -0.5000 9.9716 -0.4716
v  0.5000 10.0000 -0.4716
v  0.5000 9.9716 -0.5000
v  0.5000 9.9716 0.5000
v  0.5000 10.0000 0.4716
v  0.5000 0.0000 0.5000
v  0.5000 0.0000 -0.5000
# 22 vertices

vn 0.0000 1.0000 -0.0000
vn 0.0000 0.0000 1.0000
vn 0.0000 0.0000 -1.0000
vn -1.0000 0.0000 -0.0000
vn -0.5774 0.5773 0.5774
vn -0.5774 0.5773 -0.5774
vn 0.0000 0.7071 0.7071
vn 0.0000 0.7071 -0.7071
vn -0.7071 0.7071 -0.0000
vn -0.7071 0.0000 0.7071
vn -0.7071 0.0000 -0.7071
# 11 vertex normals

vt 0.0284 0.0284 0.0000
vt 0.9716 0.0284 0.0000
vt 0.9716 0.9716 0.0000
vt 0.0284 0.9716 0.0000
vt 0.0284 0.0000 0.0000
vt 0.9716 0.0000 0.0000
vt 0.9716 0.9972 0.0000
vt 0.0284 0.9972 0.0000
vt 0.0040 1.0112 0.0000
vt 0.0040 0.9831 0.0000
vt 0.0284 0.9570 0.0000
vt 0.9716 0.9570 0.0000
vt 0.9757 0.9960 0.0000
vt 0.9757 -0.0012 0.0000
vt 0.0243 -0.0012 0.0000
vt 0.0243 0.9960 0.0000
vt 0.0264 0.4779 0.0000
vt 0.9716 0.4986 0.0000
vt 0.4878 0.9901 0.0000
vt 0.5000 0.9771 0.0000
vt 0.9716 0.9771 0.0000
vt 0.4980 0.4980 0.0000
vt 0.4878 0.5198 0.0000
vt 0.0162 0.4916 0.0000
vt 0.5000 0.4785 0.0000
# 25 texture coords

g Box084
usemtl 07___Default
s 4
f 38/45/15 39/46/15 40/47/15 41/48/15 
s 8
f 42/49/16 43/50/16 44/51/16 45/52/16 
s 32
f 46/49/17 47/50/17 48/51/17 49/52/17 
s 64
f 50/49/18 51/50/18 52/51/18 53/52/18 
s off
f 45/52/19 38/53/19 52/54/19 
f 53/52/20 41/53/20 48/54/20 
f 38/55/21 45/52/21 44/51/21 39/56/21 
f 40/55/22 49/52/22 48/51/22 41/56/22 
f 41/55/23 53/52/23 52/51/23 38/56/23 
f 45/57/24 52/51/24 51/50/24 42/58/24 
f 47/59/25 50/49/25 53/52/25 48/60/25 
f 54/61/22 55/62/22 49/50/22 40/55/22 
f 56/63/21 57/64/21 39/51/21 44/51/21 
s 1
f 40/51/15 39/51/15 57/65/15 54/66/15 
f 44/49/16 43/46/16 58/67/16 56/68/16 
f 46/49/17 49/50/17 55/66/17 59/69/17 
# 14 polygons - 2 triangles

#
# object Object011
#

v  -0.4716 10.0000 0.4716
v  0.4716 10.0000 0.4716
v  0.4716 10.0000 -0.4716
v  -0.4716 10.0000 -0.4716
v  -0.4716 0.0000 0.5000
v  0.4716 0.0000 0.5000
v  0.4716 9.9716 0.5000
v  -0.4716 9.9716 0.5000
v  0.5000 0.0000 0.4716
v  0.5000 0.0000 -0.4716
v  0.5000 9.9716 -0.4716
v  0.5000 9.9716 0.4716
v  0.4716 0.0000 -0.5000
v  -0.4716 0.0000 -0.5000
v  -0.4716 9.9716 -0.5000
v  0.4716 9.9716 -0.5000
v  -0.5000 10.0000 -0.4716
v  -0.5000 10.0000 0.4716
v  -0.5000 9.9716 0.5000
v  -0.5000 0.0000 0.5000
v  -0.5000 0.0000 -0.5000
v  -0.5000 9.9716 -0.5000
# 22 vertices

vn 0.0000 1.0000 -0.0000
vn 0.0000 0.0000 1.0000
vn 1.0000 0.0000 -0.0000
vn 0.0000 0.0000 -1.0000
vn 0.5774 0.5773 0.5774
vn 0.5774 0.5773 -0.5774
vn 0.0000 0.7071 0.7071
vn 0.7071 0.7071 -0.0000
vn 0.0000 0.7071 -0.7071
vn 0.7071 0.0000 0.7071
vn 0.7071 0.0000 -0.7071
# 11 vertex normals

vt 0.0284 0.0284 0.0000
vt 0.9716 0.0284 0.0000
vt 0.9716 0.9716 0.0000
vt 0.0284 0.9716 0.0000
vt 0.0284 0.0000 0.0000
vt 0.9716 0.0000 0.0000
vt 0.9716 0.9972 0.0000
vt 0.0284 0.9972 0.0000
vt 0.0040 1.0112 0.0000
vt 0.0040 0.9831 0.0000
vt 0.0284 0.9570 0.0000
vt 0.9716 0.9570 0.0000
vt 0.0243 -0.0012 0.0000
vt 0.0243 0.9960 0.0000
vt 0.4980 0.4980 0.0000
vt 0.9716 0.9771 0.0000
vt 0.0162 0.4916 0.0000
vt 0.4878 0.5198 0.0000
vt 0.5000 0.4785 0.0000
vt 0.9716 0.4986 0.0000
vt 0.0264 0.4779 0.0000
vt 0.5000 0.9771 0.0000
vt 0.4878 0.9901 0.0000
# 23 texture coords

g Object011
usemtl 07___Default
s 4
f 60/70/26 61/71/26 62/72/26 63/73/26 
s 8
f 64/74/27 65/75/27 66/76/27 67/77/27 
s 16
f 68/74/28 69/75/28 70/76/28 71/77/28 
s 32
f 72/74/29 73/75/29 74/76/29 75/77/29 
s off
f 71/77/30 61/78/30 66/79/30 
f 75/77/31 62/78/31 70/79/31 
f 60/80/32 67/77/32 66/76/32 61/81/32 
f 61/80/33 71/77/33 70/76/33 62/81/33 
f 62/80/34 75/77/34 74/76/34 63/81/34 
f 65/82/35 68/74/35 71/77/35 66/83/35 
f 69/82/36 72/74/36 75/77/36 70/83/36 
s 1
f 63/82/26 76/84/26 77/85/26 60/81/26 
f 67/79/27 78/86/27 79/87/27 64/78/27 
f 73/81/29 80/88/29 81/84/29 74/83/29 
s off
f 63/82/34 74/76/34 81/89/34 76/90/34 
f 67/79/32 60/80/32 77/91/32 78/92/32 
# 14 polygons - 2 triangles

#
# object Object012
#

v  -0.4716 10.0000 0.4716
v  0.4716 10.0000 0.4716
v  0.4716 10.0000 -0.4716
v  -0.4716 10.0000 -0.4716
v  -0.5000 10.0000 -0.4716
v  -0.5000 10.0000 0.4716
v  -0.4716 9.9716 0.5000
v  -0.5000 9.9716 0.5000
v  -0.5000 0.0000 0.5000
v  -0.4716 0.0000 0.5000
v  -0.4716 0.0000 -0.5000
v  -0.5000 0.0000 -0.5000
v  -0.5000 9.9716 -0.5000
v  -0.4716 9.9716 -0.5000
v  0.4716 9.9716 -0.5000
v  0.4716 0.0000 -0.5000
v  0.4716 0.0000 0.5000
v  0.4716 9.9716 0.5000
v  0.5000 10.0000 0.4716
v  0.5000 10.0000 -0.4716
v  0.5000 0.0000 0.5000
v  0.5000 9.9716 0.5000
v  0.5000 9.9716 -0.5000
v  0.5000 0.0000 -0.5000
# 24 vertices

vn 0.0000 1.0000 -0.0000
vn 0.0000 0.0000 1.0000
vn 0.0000 0.0000 -1.0000
vn 0.0000 0.7071 -0.7071
vn 0.0000 0.7071 0.7071
# 5 vertex normals

vt 0.0284 0.0284 0.0000
vt 0.0284 0.9716 0.0000
vt 0.0243 -0.0012 0.0000
vt 0.4980 0.4980 0.0000
vt 0.9716 0.9771 0.0000
vt 0.9716 0.9570 0.0000
vt 0.0040 0.9831 0.0000
vt 0.0162 0.4916 0.0000
vt 0.4878 0.5198 0.0000
vt 0.0040 1.0112 0.0000
vt 0.5000 0.4785 0.0000
vt 0.0243 0.9960 0.0000
vt 0.9716 0.9972 0.0000
vt 0.9716 0.4986 0.0000
vt 0.0264 0.4779 0.0000
vt 0.0284 0.9570 0.0000
vt 0.5000 0.9771 0.0000
vt 0.4878 0.9901 0.0000
vt 0.9716 0.0000 0.0000
vt 0.0284 0.0000 0.0000
vt 0.0284 0.9972 0.0000
# 21 texture coords

g Object012
usemtl 07___Default
s 4
f 82/93/37 83/93/37 84/94/37 85/94/37 
s 1
f 85/95/37 86/96/37 87/97/37 82/98/37 
f 88/99/38 89/100/38 90/101/38 91/102/38 
f 92/98/39 93/103/39 94/96/39 95/104/39 
s off
f 85/95/40 95/105/40 94/106/40 86/107/40 
f 88/99/41 82/108/41 87/109/41 89/110/41 
s 32
f 92/111/39 95/105/39 96/105/39 97/111/39 
s off
f 95/105/40 85/98/40 84/98/40 96/105/40 
s 8
f 98/112/38 99/113/38 88/113/38 91/112/38 
s off
f 82/108/41 88/113/41 99/113/41 83/108/41 
s 1
f 84/95/37 83/98/37 100/97/37 101/96/37 
f 99/99/38 98/102/38 102/101/38 103/100/38 
f 97/98/39 96/104/39 104/96/39 105/103/39 
s off
f 84/95/40 101/107/40 104/106/40 96/105/40 
f 99/99/41 103/110/41 100/109/41 83/108/41 
# 15 polygons

#
# object Object018
#

v  -0.4694 10.0000 0.4715
v  0.4739 10.0000 0.4715
v  0.4739 10.0000 -0.4717
v  -0.4694 10.0000 -0.4717
v  -0.4694 0.0000 0.4999
v  0.4739 0.0000 0.4999
v  0.4739 9.9716 0.4999
v  -0.4694 9.9716 0.4999
v  0.5031 10.0000 0.4715
v  0.5031 10.0000 -0.4717
v  0.5031 0.0000 0.4999
v  0.5031 9.9716 0.4999
v  -0.5031 10.0000 -0.4717
v  -0.5031 10.0000 0.4715
v  -0.5031 9.9716 0.4999
v  -0.5031 0.0000 0.4999
v  0.4739 10.0000 -0.4999
v  -0.4694 10.0000 -0.4999
v  -0.5031 10.0000 -0.4999
v  0.5031 10.0000 -0.4999
# 20 vertices

vn 0.0000 1.0000 -0.0000
vn 0.0000 0.0000 1.0000
vn 0.0000 0.7071 0.7071
# 3 vertex normals

vt 0.0284 0.0284 0.0000
vt 0.9716 0.0284 0.0000
vt 0.9716 0.9716 0.0000
vt 0.0284 0.9716 0.0000
vt 0.0284 0.0000 0.0000
vt 0.9716 0.0000 0.0000
vt 0.9716 0.9972 0.0000
vt 0.0284 0.9972 0.0000
vt 0.0284 0.9570 0.0000
vt 0.9716 0.9570 0.0000
vt 0.9716 0.9771 0.0000
vt 0.4980 0.4980 0.0000
vt 0.5000 0.0000 0.0000
vt 0.5000 0.9972 0.0000
vt 0.5000 0.9771 0.0000
vt 0.0264 0.4779 0.0000
vt 0.2642 0.9771 0.0000
vt 0.7358 0.4986 0.0000
vt 0.2642 0.4858 0.0000
vt 0.7348 0.7375 0.0000
# 20 texture coords

g Object018
usemtl 07___Default
s 4
f 106/114/42 107/115/42 108/116/42 109/117/42 
s 8
f 110/118/43 111/119/43 112/120/43 113/121/43 
s off
f 106/122/44 113/121/44 112/120/44 107/123/44 
s 1
f 108/120/42 107/120/42 114/124/42 115/125/42 
s off
f 112/120/43 111/119/43 116/126/43 117/127/43 
f 107/120/44 112/120/44 117/127/44 114/128/44 
f 118/129/42 119/124/42 106/122/42 109/117/42 
f 120/127/44 113/121/44 106/122/44 119/124/44 
f 121/126/43 110/114/43 113/121/43 120/127/43 
s 2
f 108/122/42 122/130/42 123/131/42 109/120/42 
s off
f 109/117/42 123/132/42 124/133/42 118/125/42 
f 108/122/42 115/125/42 125/133/42 122/128/42 
# 12 polygons

#
# object Object019
#

v  -0.4721 10.0000 0.4716
v  0.4712 10.0000 0.4716
v  0.4712 10.0000 -0.4716
v  -0.4721 10.0000 -0.4716
v  -0.5004 0.0000 -0.4716
v  -0.5004 0.0000 0.4716
v  -0.5004 9.9716 0.4716
v  -0.5004 9.9716 -0.4716
v  0.5004 10.0000 0.4716
v  0.5004 10.0000 -0.4716
v  0.4712 10.0000 -0.4998
v  -0.4721 10.0000 -0.4998
v  -0.5004 9.9716 -0.4998
v  -0.5004 0.0000 -0.4998
v  0.4712 10.0000 0.4998
v  0.5004 10.0000 0.4998
v  -0.4721 10.0000 0.4998
v  -0.5004 0.0000 0.4998
v  -0.5004 9.9716 0.4998
v  0.5004 10.0000 -0.4998
# 20 vertices

vn 0.0000 1.0000 -0.0000
vn -1.0000 0.0000 -0.0000
vn -0.7071 0.7071 -0.0000
# 3 vertex normals

vt 0.0284 0.0284 0.0000
vt 0.9716 0.0284 0.0000
vt 0.9716 0.9716 0.0000
vt 0.0284 0.9716 0.0000
vt 0.0284 0.0000 0.0000
vt 0.9716 0.0000 0.0000
vt 0.9716 0.9972 0.0000
vt 0.0284 0.9972 0.0000
vt 0.0284 0.9570 0.0000
vt 0.9716 0.9570 0.0000
vt 0.9716 0.9771 0.0000
vt 0.4980 0.4980 0.0000
vt 0.4878 0.5057 0.0000
vt 0.0162 0.9914 0.0000
vt 0.7358 0.9671 0.0000
vt 0.0243 0.9960 0.0000
vt 0.0243 0.4974 0.0000
vt 0.5000 0.9570 0.0000
vt 0.7348 0.7375 0.0000
vt 0.0040 0.9831 0.0000
vt 0.0040 1.0112 0.0000
vt 0.0162 1.0042 0.0000
vt 0.4878 0.9901 0.0000
vt 0.0243 -0.0012 0.0000
vt 0.9716 0.4927 0.0000
vt 0.0264 -0.0006 0.0000
vt 0.9716 0.5128 0.0000
# 27 texture coords

g Object019
usemtl 07___Default
s 4
f 126/134/45 127/135/45 128/136/45 129/137/45 
s 64
f 130/138/46 131/139/46 132/140/46 133/141/46 
s off
f 129/142/47 133/141/47 132/140/47 126/143/47 
s 1
f 128/140/45 127/140/45 134/144/45 135/145/45 
s 2
f 128/135/45 136/146/45 137/147/45 129/137/45 
s 1
f 129/137/47 137/147/47 138/148/47 133/143/47 
s 2
f 133/149/46 138/150/46 139/151/46 130/142/46 
s off
f 140/140/45 141/152/45 134/144/45 127/140/45 
s 2
f 127/153/45 126/154/45 142/155/45 140/156/45 
s 1
f 132/157/46 131/143/46 143/158/46 144/159/46 
s 8
f 126/154/47 132/157/47 144/159/47 142/155/47 
s off
f 128/135/45 135/145/45 145/152/45 136/160/45 
# 12 polygons

#
# object Object020
#

v  0.4721 10.0000 0.4716
v  -0.4712 10.0000 0.4716
v  -0.4712 10.0000 -0.4716
v  0.4721 10.0000 -0.4716
v  0.5004 0.0000 -0.4716
v  0.5004 0.0000 0.4716
v  0.5004 9.9716 0.4716
v  0.5004 9.9716 -0.4716
v  -0.5004 10.0000 0.4716
v  -0.5004 10.0000 -0.4716
v  -0.4712 10.0000 -0.4998
v  0.4721 10.0000 -0.4998
v  0.5004 9.9716 -0.4998
v  0.5004 0.0000 -0.4998
v  -0.4712 10.0000 0.4998
v  -0.5004 10.0000 0.4998
v  0.4721 10.0000 0.4998
v  0.5004 0.0000 0.4998
v  0.5004 9.9716 0.4998
v  -0.5004 10.0000 -0.4998
# 20 vertices

vn 0.0000 1.0000 -0.0000
vn 1.0000 0.0000 -0.0000
vn 0.7071 0.7071 -0.0000
# 3 vertex normals

vt 0.0284 0.0284 0.0000
vt 0.9716 0.0284 0.0000
vt 0.9716 0.9716 0.0000
vt 0.0284 0.9716 0.0000
vt 0.0284 0.0000 0.0000
vt 0.9716 0.0000 0.0000
vt 0.9716 0.9972 0.0000
vt 0.0284 0.9972 0.0000
vt 0.0284 0.9570 0.0000
vt 0.9716 0.9570 0.0000
vt 0.9716 0.9771 0.0000
vt 0.4980 0.4980 0.0000
vt 0.4878 0.5057 0.0000
vt 0.0162 0.9914 0.0000
vt 0.7358 0.9671 0.0000
vt 0.0243 0.9960 0.0000
vt 0.0243 0.4974 0.0000
vt 0.5000 0.9570 0.0000
vt 0.7348 0.7375 0.0000
vt 0.0040 0.9831 0.0000
vt 0.0040 1.0112 0.0000
vt 0.0162 1.0042 0.0000
vt 0.4878 0.9901 0.0000
vt 0.0243 -0.0012 0.0000
vt 0.9716 0.4927 0.0000
vt 0.0264 -0.0006 0.0000
vt 0.9716 0.5128 0.0000
# 27 texture coords

g Object020
usemtl 07___Default
s 4
f 149/164/48 148/163/48 147/162/48 146/161/48 
s 64
f 153/168/49 152/167/49 151/166/49 150/165/49 
s off
f 146/170/50 152/167/50 153/168/50 149/169/50 
s 1
f 155/172/48 154/171/48 147/167/48 148/167/48 
s 2
f 149/164/48 157/174/48 156/173/48 148/162/48 
s 1
f 153/170/50 158/175/50 157/174/50 149/164/50 
s 2
f 150/169/49 159/178/49 158/177/49 153/176/49 
s off
f 147/167/48 154/171/48 161/179/48 160/167/48 
s 2
f 160/183/48 162/182/48 146/181/48 147/180/48 
s 1
f 164/186/49 163/185/49 151/170/49 152/184/49 
s 8
f 162/182/50 164/186/50 152/184/50 146/181/50 
s off
f 156/187/48 165/179/48 155/172/48 148/162/48 
# 12 polygons

#
# object Object021
#

v  -0.4858 10.0000 -0.4715
v  0.4574 10.0000 -0.4715
v  0.4574 10.0000 0.4717
v  -0.4858 10.0000 0.4717
v  -0.4858 0.0000 -0.4999
v  0.4574 0.0000 -0.4999
v  0.4574 9.9716 -0.4999
v  -0.4858 9.9716 -0.4999
v  0.4858 0.0000 -0.4715
v  0.4858 0.0000 0.4717
v  0.4858 9.9716 0.4717
v  0.4858 9.9716 -0.4715
v  0.4858 0.0000 0.4999
v  0.4858 9.9716 0.4999
v  0.4574 10.0000 0.4999
v  -0.4858 10.0000 0.4999
# 16 vertices

vn -0.0000 1.0000 0.0000
vn 0.0000 0.0000 -1.0000
vn 1.0000 -0.0000 0.0000
vn 0.5774 0.5773 -0.5774
vn 0.0000 0.7071 -0.7071
vn 0.7071 0.7071 0.0000
vn 0.7071 0.0000 -0.7071
# 7 vertex normals

vt 0.0284 0.0284 0.0000
vt 0.9716 0.0284 0.0000
vt 0.9716 0.9716 0.0000
vt 0.0284 0.9716 0.0000
vt 0.0284 0.0000 0.0000
vt 0.9716 0.0000 0.0000
vt 0.9716 0.9972 0.0000
vt 0.0284 0.9972 0.0000
vt 0.0040 1.0112 0.0000
vt 0.0040 0.9831 0.0000
vt 0.0284 0.9570 0.0000
vt 0.9716 0.9570 0.0000
vt 0.0243 -0.0012 0.0000
vt 0.0243 0.9960 0.0000
vt 0.0284 0.0142 0.0000
vt 0.5000 0.9744 0.0000
vt 0.9716 0.9771 0.0000
vt 0.4980 0.4980 0.0000
vt 0.7348 0.7476 0.0000
vt 0.9716 0.4785 0.0000
# 20 texture coords

g Object021
usemtl 07___Default
s 4
f 169/191/51 168/190/51 167/189/51 166/188/51 
s 8
f 173/195/52 172/194/52 171/193/52 170/192/52 
s 16
f 177/195/53 176/194/53 175/193/53 174/192/53 
s off
f 172/197/54 167/196/54 177/195/54 
f 167/199/55 172/194/55 173/195/55 166/198/55 
f 168/199/56 176/194/56 177/195/56 167/198/56 
f 172/201/57 177/195/57 174/192/57 171/200/57 
s 1
f 176/204/53 179/203/53 178/202/53 175/188/53 
s 2
f 169/199/51 181/207/51 180/206/51 168/205/51 
s off
f 180/206/56 179/203/56 176/194/56 168/205/56 
# 9 polygons - 1 triangles

#
# object Object022
#

v  -0.4694 10.0000 -0.4715
v  0.4739 10.0000 -0.4715
v  0.4739 10.0000 0.4717
v  -0.4694 10.0000 0.4717
v  -0.4694 0.0000 -0.4999
v  0.4739 0.0000 -0.4999
v  0.4739 9.9716 -0.4999
v  -0.4694 9.9716 -0.4999
v  0.5031 10.0000 -0.4715
v  0.5031 10.0000 0.4717
v  0.5031 0.0000 -0.4999
v  0.5031 9.9716 -0.4999
v  -0.5031 10.0000 0.4717
v  -0.5031 10.0000 -0.4715
v  -0.5031 9.9716 -0.4999
v  -0.5031 0.0000 -0.4999
v  0.4739 10.0000 0.4999
v  -0.4694 10.0000 0.4999
v  -0.5031 10.0000 0.4999
v  0.5031 10.0000 0.4999
# 20 vertices

vn -0.0000 1.0000 0.0000
vn 0.0000 0.0000 -1.0000
vn 0.0000 0.7071 -0.7071
# 3 vertex normals

vt 0.0284 0.0284 0.0000
vt 0.9716 0.0284 0.0000
vt 0.9716 0.9716 0.0000
vt 0.0284 0.9716 0.0000
vt 0.0284 0.0000 0.0000
vt 0.9716 0.0000 0.0000
vt 0.9716 0.9972 0.0000
vt 0.0284 0.9972 0.0000
vt 0.0284 0.9570 0.0000
vt 0.9716 0.9570 0.0000
vt 0.9716 0.9771 0.0000
vt 0.4980 0.4980 0.0000
vt 0.5000 0.0000 0.0000
vt 0.5000 0.9972 0.0000
vt 0.5000 0.9771 0.0000
vt 0.0264 0.4779 0.0000
vt 0.2642 0.9771 0.0000
vt 0.7358 0.4986 0.0000
vt 0.2642 0.4858 0.0000
vt 0.7348 0.7375 0.0000
# 20 texture coords

g Object022
usemtl 07___Default
s 4
f 185/211/58 184/210/58 183/209/58 182/208/58 
s 8
f 189/215/59 188/214/59 187/213/59 186/212/59 
s off
f 183/217/60 188/214/60 189/215/60 182/216/60 
s 1
f 191/219/58 190/218/58 183/214/58 184/214/58 
s off
f 193/221/59 192/220/59 187/213/59 188/214/59 
f 190/222/60 193/221/60 188/214/60 183/214/60 
f 185/211/58 182/216/58 195/218/58 194/223/58 
f 195/218/60 182/216/60 189/215/60 196/221/60 
f 196/221/59 189/215/59 186/208/59 197/220/59 
s 2
f 185/214/58 199/225/58 198/224/58 184/216/58 
s off
f 194/219/58 200/227/58 199/226/58 185/211/58 
f 198/222/58 201/227/58 191/219/58 184/216/58 
# 12 polygons

#
# object Object023
#

v  -0.4721 10.0000 -0.4715
v  0.4712 10.0000 -0.4715
v  0.4712 10.0000 0.4717
v  -0.4721 10.0000 0.4717
v  -0.4721 0.0000 -0.4999
v  0.4712 0.0000 -0.4999
v  0.4712 9.9716 -0.4999
v  -0.4721 9.9716 -0.4999
v  -0.5004 0.0000 0.4717
v  -0.5004 0.0000 -0.4715
v  -0.5004 9.9716 -0.4715
v  -0.5004 9.9716 0.4717
v  0.5004 10.0000 -0.4715
v  0.5004 10.0000 0.4717
v  0.5004 0.0000 -0.4999
v  0.5004 9.9716 -0.4999
v  0.4712 10.0000 0.4999
v  -0.4721 10.0000 0.4999
v  -0.5004 9.9716 0.4999
v  -0.5004 0.0000 0.4999
v  0.5004 10.0000 0.4999
# 21 vertices

vn -0.0000 1.0000 0.0000
vn 0.0000 0.0000 -1.0000
vn -1.0000 0.0000 -0.0000
vn -0.5774 0.5773 -0.5774
vn 0.0000 0.7071 -0.7071
vn -0.7071 0.7071 -0.0000
vn -0.7071 0.0000 -0.7071
# 7 vertex normals

vt 0.0284 0.0284 0.0000
vt 0.9716 0.0284 0.0000
vt 0.9716 0.9716 0.0000
vt 0.0284 0.9716 0.0000
vt 0.0284 0.0000 0.0000
vt 0.9716 0.0000 0.0000
vt 0.9716 0.9972 0.0000
vt 0.0284 0.9972 0.0000
vt 0.0040 1.0112 0.0000
vt 0.0040 0.9831 0.0000
vt 0.0284 0.9570 0.0000
vt 0.9716 0.9570 0.0000
vt 0.9757 0.9960 0.0000
vt 0.9757 -0.0012 0.0000
vt 0.9716 0.9771 0.0000
vt 0.4980 0.4980 0.0000
vt 0.5000 0.0000 0.0000
vt 0.5000 0.9972 0.0000
vt 0.5000 0.9771 0.0000
vt 0.4878 0.9901 0.0000
vt 0.0162 1.0042 0.0000
vt 0.0264 -0.0006 0.0000
vt 0.9716 0.4927 0.0000
vt 0.7348 0.7375 0.0000
# 24 texture coords

g Object023
usemtl 07___Default
s 4
f 205/231/61 204/230/61 203/229/61 202/228/61 
s 8
f 209/235/62 208/234/62 207/233/62 206/232/62 
s 64
f 213/235/63 212/234/63 211/233/63 210/232/63 
s off
f 212/237/64 202/236/64 209/235/64 
f 203/239/65 208/234/65 209/235/65 202/238/65 
f 202/239/66 212/234/66 213/235/66 205/238/66 
f 206/241/67 211/233/67 212/234/67 209/240/67 
s 1
f 215/243/61 214/242/61 203/234/61 204/234/61 
s off
f 217/245/62 216/244/62 207/233/62 208/234/62 
f 214/246/65 217/245/65 208/234/65 203/234/65 
s 2
f 205/235/61 219/248/61 218/247/61 204/234/61 
s 1
f 210/229/63 221/250/63 220/249/63 213/232/63 
s 8
f 213/232/66 220/249/66 219/248/66 205/235/66 
s off
f 218/234/61 222/251/61 215/243/61 204/234/61 
# 13 polygons - 1 triangles

#
# object Object024
#

v  -0.4694 10.0000 0.4716
v  0.4739 10.0000 0.4716
v  0.4739 10.0000 -0.4716
v  -0.4694 10.0000 -0.4716
v  0.5031 10.0000 0.4716
v  0.5031 10.0000 -0.4716
v  -0.5031 10.0000 -0.4716
v  -0.5031 10.0000 0.4716
v  0.4739 10.0000 -0.4998
v  -0.4694 10.0000 -0.4998
v  -0.5031 10.0000 -0.4998
v  0.4739 10.0000 0.4998
v  0.5031 10.0000 0.4998
v  -0.4694 10.0000 0.4998
v  -0.5031 10.0000 0.4998
v  0.5031 10.0000 -0.4998
# 16 vertices

vn 0.0000 1.0000 -0.0000
# 1 vertex normals

vt 0.0284 0.0284 0.0000
vt 0.9716 0.0284 0.0000
vt 0.9716 0.9716 0.0000
vt 0.0284 0.9716 0.0000
vt 0.9716 0.9972 0.0000
vt 0.9716 0.9771 0.0000
vt 0.4980 0.4980 0.0000
vt 0.0264 0.4779 0.0000
vt 0.0284 0.9570 0.0000
vt 0.0284 0.0000 0.0000
vt 0.5000 0.4986 0.0000
vt 0.0284 0.9972 0.0000
vt 0.5000 0.4858 0.0000
vt 0.7348 0.7375 0.0000
vt 0.5000 0.9771 0.0000
vt 0.5000 0.9972 0.0000
vt 0.5000 0.0000 0.0000
vt 0.7358 0.4986 0.0000
vt 0.2642 0.9771 0.0000
vt 0.2642 0.4858 0.0000
# 20 texture coords

g Object024
usemtl 07___Default
s 4
f 223/252/68 224/253/68 225/254/68 226/255/68 
s 1
f 225/256/68 224/256/68 227/257/68 228/258/68 
s off
f 229/259/68 230/257/68 223/260/68 226/255/68 
s 2
f 225/261/68 231/261/68 232/262/68 226/263/68 
s off
f 226/255/68 232/264/68 233/265/68 229/258/68 
f 234/266/68 235/265/68 227/257/68 224/256/68 
s 2
f 224/267/68 223/268/68 236/269/68 234/270/68 
s off
f 223/268/68 230/257/68 237/265/68 236/271/68 
f 225/261/68 228/258/68 238/265/68 231/262/68 
# 9 polygons

#
# object Box085
#

v  -0.4716 10.0000 0.4716
v  0.4716 10.0000 0.4716
v  0.4716 10.0000 -0.4716
v  -0.4716 10.0000 -0.4716
v  -0.4716 0.0000 0.5000
v  0.4716 0.0000 0.5000
v  0.4716 9.9716 0.5000
v  -0.4716 9.9716 0.5000
v  0.5000 0.0000 0.4716
v  0.5000 0.0000 -0.4716
v  0.5000 9.9716 -0.4716
v  0.5000 9.9716 0.4716
v  0.4716 0.0000 -0.5000
v  -0.4716 0.0000 -0.5000
v  -0.4716 9.9716 -0.5000
v  0.4716 9.9716 -0.5000
v  -0.5000 0.0000 -0.4716
v  -0.5000 0.0000 0.4716
v  -0.5000 9.9716 0.4716
v  -0.5000 9.9716 -0.4716
# 20 vertices

vn 0.0000 1.0000 -0.0000
vn 0.0000 0.0000 1.0000
vn 1.0000 0.0000 -0.0000
vn 0.0000 0.0000 -1.0000
vn -1.0000 0.0000 -0.0000
vn -0.5774 0.5773 0.5774
vn 0.5774 0.5773 0.5774
vn -0.5774 0.5773 -0.5774
vn 0.5774 0.5773 -0.5774
vn 0.0000 0.7071 0.7071
vn 0.7071 0.7071 -0.0000
vn 0.0000 0.7071 -0.7071
vn -0.7071 0.7071 -0.0000
vn 0.7071 0.0000 0.7071
vn -0.7071 0.0000 0.7071
vn 0.7071 0.0000 -0.7071
vn -0.7071 0.0000 -0.7071
# 17 vertex normals

vt 0.0284 0.0284 0.0000
vt 0.9716 0.0284 0.0000
vt 0.9716 0.9716 0.0000
vt 0.0284 0.9716 0.0000
vt 0.0284 0.0000 0.0000
vt 0.9716 0.0000 0.0000
vt 0.9716 0.9972 0.0000
vt 0.0284 0.9972 0.0000
vt 0.0040 1.0112 0.0000
vt 0.0040 0.9831 0.0000
vt 0.0284 0.9570 0.0000
vt 0.9716 0.9570 0.0000
vt 0.0243 -0.0012 0.0000
vt 0.0243 0.9960 0.0000
vt 0.9757 0.9960 0.0000
vt 0.9757 -0.0012 0.0000
# 16 texture coords

g Box085
usemtl 07___Default
s 4
f 239/272/69 240/273/69 241/274/69 242/275/69 
s 8
f 243/276/70 244/277/70 245/278/70 246/279/70 
s 16
f 247/276/71 248/277/71 249/278/71 250/279/71 
s 32
f 251/276/72 252/277/72 253/278/72 254/279/72 
s 64
f 255/276/73 256/277/73 257/278/73 258/279/73 
s off
f 246/279/74 239/280/74 257/281/74 
f 250/279/75 240/280/75 245/281/75 
f 258/279/76 242/280/76 253/281/76 
f 254/279/77 241/280/77 249/281/77 
f 239/282/78 246/279/78 245/278/78 240/283/78 
f 240/282/79 250/279/79 249/278/79 241/283/79 
f 241/282/80 254/279/80 253/278/80 242/283/80 
f 242/282/81 258/279/81 257/278/81 239/283/81 
f 244/284/82 247/276/82 250/279/82 245/285/82 
f 246/286/83 257/278/83 256/277/83 243/287/83 
f 248/284/84 251/276/84 254/279/84 249/285/84 
f 252/284/85 255/276/85 258/279/85 253/285/85 
# 13 polygons - 4 triangles

#
# object Object025
#

v  0.4716 10.0000 0.4716
v  0.4716 10.0000 -0.4716
v  -0.4716 10.0000 -0.4716
v  -0.4716 10.0000 0.4716
v  0.5000 0.0000 0.4716
v  0.5000 0.0000 -0.4716
v  0.5000 9.9716 -0.4716
v  0.5000 9.9716 0.4716
v  0.4716 0.0000 -0.5000
v  -0.4716 0.0000 -0.5000
v  -0.4716 9.9716 -0.5000
v  0.4716 9.9716 -0.5000
v  -0.5000 0.0000 -0.4716
v  -0.5000 0.0000 0.4716
v  -0.5000 9.9716 0.4716
v  -0.5000 9.9716 -0.4716
v  -0.4716 10.0000 0.4999
v  0.4716 10.0000 0.4999
v  0.5000 9.9716 0.5000
v  0.5000 0.0000 0.5000
v  -0.5000 0.0000 0.5000
v  -0.5000 9.9716 0.5000
# 22 vertices

vn 0.0000 1.0000 -0.0000
vn 1.0000 0.0000 -0.0000
vn -0.0000 0.0000 -1.0000
vn -1.0000 0.0000 0.0000
vn 0.5774 0.5773 -0.5774
vn -0.5774 0.5773 -0.5774
vn 0.7071 0.7071 -0.0000
vn -0.0000 0.7071 -0.7071
vn -0.7071 0.7071 0.0000
vn 0.7071 0.0000 -0.7071
vn -0.7071 0.0000 -0.7071
vn 0.3830 0.9237 0.0003
vn 0.3827 0.9239 0.0000
vn 0.9240 0.3823 0.0013
vn 0.9241 0.3823 0.0016
vn 1.0000 0.0000 0.0017
vn -1.0000 0.0000 0.0009
vn -0.7073 0.7069 0.0003
# 18 vertex normals

vt 0.0284 0.0284 0.0000
vt 0.9716 0.0284 0.0000
vt 0.9716 0.9716 0.0000
vt 0.0284 0.9716 0.0000
vt 0.0284 0.0000 0.0000
vt 0.9716 0.0000 0.0000
vt 0.9716 0.9972 0.0000
vt 0.0284 0.9972 0.0000
vt 0.0040 1.0112 0.0000
vt 0.0040 0.9831 0.0000
vt 0.0284 0.9570 0.0000
vt 0.9716 0.9570 0.0000
vt 0.0243 -0.0012 0.0000
vt 0.0243 0.9960 0.0000
vt 0.4980 0.4980 0.0000
vt 0.9716 0.9771 0.0000
vt 0.0162 0.4916 0.0000
vt 0.4878 0.5198 0.0000
vt 0.5000 0.4785 0.0000
vt 0.9716 0.4986 0.0000
vt 0.0264 0.4779 0.0000
vt 0.4769 0.4767 0.0000
vt 0.0095 -0.0162 0.0000
vt 0.0169 -0.0087 0.0000
vt 0.4835 0.4834 0.0000
# 25 texture coords

g Object025
usemtl 07___Default
s 4
f 259/288/86 260/289/86 261/290/86 262/291/86 
s 8
f 263/292/87 264/293/87 265/294/87 266/295/87 
s 16
f 267/292/88 268/293/88 269/294/88 270/295/88 
s 32
f 271/292/89 272/293/89 273/294/89 274/295/89 
s off
f 270/295/90 260/296/90 265/297/90 
f 274/295/91 261/296/91 269/297/91 
f 259/298/92 266/295/92 265/294/92 260/299/92 
f 260/298/93 270/295/93 269/294/93 261/299/93 
f 261/298/94 274/295/94 273/294/94 262/299/94 
f 264/300/95 267/292/95 270/295/95 265/301/95 
f 268/300/96 271/292/96 274/295/96 269/301/96 
s 1
f 262/300/86 275/302/86 276/303/97 259/299/98 
f 266/297/99 277/304/100 278/305/101 263/296/101 
f 272/299/102 279/306/102 280/302/102 273/301/102 
s off
f 262/300/103 273/294/103 280/307/103 275/308/103 
s 1
f 266/309/99 259/310/98 276/311/97 277/312/100 
# 14 polygons - 2 triangles

#
# object Object026
#

v  -0.4716 10.0000 0.4716
v  0.4716 10.0000 0.4716
v  0.4716 10.0000 -0.4716
v  -0.4716 10.0000 -0.4716
v  -0.4716 0.0000 0.5000
v  0.4716 0.0000 0.5000
v  0.4716 9.9716 0.5000
v  -0.4716 9.9716 0.5000
v  0.4716 0.0000 -0.5000
v  -0.4716 0.0000 -0.5000
v  -0.4716 9.9716 -0.5000
v  0.4716 9.9716 -0.5000
v  -0.5000 0.0000 -0.4716
v  -0.5000 0.0000 0.4716
v  -0.5000 9.9716 0.4716
v  -0.5000 9.9716 -0.4716
v  0.5000 10.0000 -0.4717
v  0.5000 9.9716 -0.5000
v  0.5000 9.9716 0.5000
v  0.5000 10.0000 0.4716
v  0.5000 0.0000 0.5000
v  0.5000 0.0000 -0.5000
# 22 vertices

vn 0.0000 1.0000 -0.0000
vn 0.0000 0.0000 1.0000
vn 0.0000 0.0000 -1.0000
vn -1.0000 0.0000 -0.0000
vn -0.5774 0.5773 0.5774
vn -0.5774 0.5773 -0.5774
vn 0.0000 0.7071 0.7071
vn 0.0000 0.7071 -0.7071
vn -0.7071 0.7071 -0.0000
vn -0.7071 0.0000 0.7071
vn -0.7071 0.0000 -0.7071
vn 0.0001 0.7065 -0.7077
vn 0.0008 0.7072 0.7070
vn 0.0009 0.0000 1.0000
vn 0.0018 0.0000 -1.0000
# 15 vertex normals

vt 0.0284 0.0284 0.0000
vt 0.9716 0.0284 0.0000
vt 0.9716 0.9716 0.0000
vt 0.0284 0.9716 0.0000
vt 0.0284 0.0000 0.0000
vt 0.9716 0.0000 0.0000
vt 0.9716 0.9972 0.0000
vt 0.0284 0.9972 0.0000
vt 0.0040 1.0112 0.0000
vt 0.0040 0.9831 0.0000
vt 0.0284 0.9570 0.0000
vt 0.9716 0.9570 0.0000
vt 0.9757 0.9960 0.0000
vt 0.9757 -0.0012 0.0000
vt 0.0243 -0.0012 0.0000
vt 0.0243 0.9960 0.0000
vt 0.0264 0.4779 0.0000
vt 0.9716 0.4986 0.0000
vt 0.4878 0.9901 0.0000
vt 0.5000 0.9771 0.0000
vt 0.9716 0.9771 0.0000
vt 0.4980 0.4980 0.0000
vt 0.4878 0.5198 0.0000
vt 0.0162 0.4916 0.0000
vt 0.5000 0.4785 0.0000
# 25 texture coords

g Object026
usemtl 07___Default
s 4
f 281/313/104 282/314/104 283/315/104 284/316/104 
s 8
f 285/317/105 286/318/105 287/319/105 288/320/105 
s 32
f 289/317/106 290/318/106 291/319/106 292/320/106 
s 64
f 293/317/107 294/318/107 295/319/107 296/320/107 
s off
f 288/320/108 281/321/108 295/322/108 
f 296/320/109 284/321/109 291/322/109 
f 281/323/110 288/320/110 287/319/110 282/324/110 
f 283/323/111 292/320/111 291/319/111 284/324/111 
f 284/323/112 296/320/112 295/319/112 281/324/112 
f 288/325/113 295/319/113 294/318/113 285/326/113 
f 290/327/114 293/317/114 296/320/114 291/328/114 
f 297/329/115 298/330/115 292/318/115 283/323/115 
f 299/331/116 300/332/116 282/319/116 287/319/116 
s 1
f 283/319/104 282/319/104 300/333/104 297/334/104 
f 287/317/117 286/314/117 301/335/117 299/336/117 
f 289/317/118 292/318/118 298/334/118 302/337/118 
# 14 polygons - 2 triangles

#
# object Object027
#

v  -0.4716 10.0000 0.4716
v  0.4716 10.0000 0.4716
v  0.4716 10.0000 -0.4716
v  -0.4716 10.0000 -0.4716
v  -0.4716 0.0000 0.5000
v  0.4716 0.0000 0.5000
v  0.4716 9.9716 0.5000
v  -0.4716 9.9716 0.5000
v  0.5000 0.0000 0.4716
v  0.5000 0.0000 -0.4716
v  0.5000 9.9716 -0.4716
v  0.5000 9.9716 0.4716
v  0.4716 0.0000 -0.5000
v  -0.4716 0.0000 -0.5000
v  -0.4716 9.9716 -0.5000
v  0.4716 9.9716 -0.5000
v  -0.5000 10.0000 -0.4717
v  -0.5000 10.0000 0.4716
v  -0.5000 9.9716 0.5000
v  -0.5000 0.0000 0.5000
v  -0.5000 0.0000 -0.5000
v  -0.5000 9.9716 -0.5000
# 22 vertices

vn 0.0000 1.0000 -0.0000
vn 0.0000 0.0000 1.0000
vn 1.0000 0.0000 -0.0000
vn 0.0000 0.0000 -1.0000
vn 0.5774 0.5773 0.5774
vn 0.5774 0.5773 -0.5774
vn 0.0000 0.7071 0.7071
vn 0.7071 0.7071 -0.0000
vn 0.0000 0.7071 -0.7071
vn 0.7071 0.0000 0.7071
vn 0.7071 0.0000 -0.7071
vn 0.0005 0.9240 -0.3824
vn 0.0001 0.9236 -0.3833
vn -0.0009 0.0000 1.0000
vn -0.0018 0.0000 -1.0000
vn -0.0016 0.3821 -0.9241
vn -0.0012 0.3821 -0.9241
vn -0.0008 0.7072 0.7070
# 18 vertex normals

vt 0.0284 0.0284 0.0000
vt 0.9716 0.0284 0.0000
vt 0.9716 0.9716 0.0000
vt 0.0284 0.9716 0.0000
vt 0.0284 0.0000 0.0000
vt 0.9716 0.0000 0.0000
vt 0.9716 0.9972 0.0000
vt 0.0284 0.9972 0.0000
vt 0.0040 1.0112 0.0000
vt 0.0040 0.9831 0.0000
vt 0.0284 0.9570 0.0000
vt 0.9716 0.9570 0.0000
vt 0.0243 -0.0012 0.0000
vt 0.0243 0.9960 0.0000
vt 0.4980 0.4980 0.0000
vt 0.9716 0.9771 0.0000
vt 0.0162 0.4916 0.0000
vt 0.4878 0.5198 0.0000
vt 0.5000 0.4785 0.0000
vt 0.5000 0.9771 0.0000
vt 0.4878 0.9901 0.0000
vt 0.9574 0.9828 0.0000
vt 0.4835 0.4834 0.0000
# 23 texture coords

g Object027
usemtl 07___Default
s 4
f 303/338/119 304/339/119 305/340/119 306/341/119 
s 8
f 307/342/120 308/343/120 309/344/120 310/345/120 
s 16
f 311/342/121 312/343/121 313/344/121 314/345/121 
s 32
f 315/342/122 316/343/122 317/344/122 318/345/122 
s off
f 314/345/123 304/346/123 309/347/123 
f 318/345/124 305/346/124 313/347/124 
f 303/348/125 310/345/125 309/344/125 304/349/125 
f 304/348/126 314/345/126 313/344/126 305/349/126 
f 305/348/127 318/345/127 317/344/127 306/349/127 
f 308/350/128 311/342/128 314/345/128 309/351/128 
f 312/350/129 315/342/129 318/345/129 313/351/129 
s 1
f 306/350/130 319/352/131 320/353/119 303/349/119 
f 310/347/132 321/354/132 322/355/132 307/346/132 
f 316/349/133 323/356/133 324/352/134 317/351/135 
s off
f 310/347/136 303/348/136 320/357/136 321/358/136 
s 1
f 319/352/131 306/344/130 317/359/135 324/360/134 
# 14 polygons - 2 triangles

#
# object Object028
#

v  -0.4716 10.0000 -0.4717
v  -0.5000 10.0000 -0.4717
v  -0.5000 10.0000 0.4716
v  -0.4716 10.0000 0.4716
v  -0.4716 10.0000 0.5000
v  0.4716 10.0000 0.5000
v  0.4716 10.0000 0.4716
v  0.4716 10.0000 -0.4717
v  0.5000 10.0000 0.4716
v  0.5000 10.0000 -0.4717
v  -0.4716 10.0000 -0.5000
v  0.5000 9.9716 0.5000
v  0.4716 10.0000 -0.5000
v  0.5000 9.9716 -0.4999
v  -0.5000 9.9716 -0.4999
v  -0.5000 9.9716 0.5000
# 16 vertices

vn 0.0000 1.0000 -0.0000
vn 0.1966 0.9606 -0.1966
vn 0.5777 0.5772 0.5772
vn 0.1964 0.9606 -0.1964
vn 0.5780 0.5759 -0.5781
vn -0.5777 0.5761 -0.5782
vn -0.5774 0.5773 0.5773
# 7 vertex normals

vt 0.0243 -0.0012 0.0000
vt 0.4980 0.4980 0.0000
vt 0.9716 0.9771 0.0000
vt 0.9716 0.9570 0.0000
vt 0.0264 0.4779 0.0000
vt 0.5000 0.9771 0.0000
vt 0.4878 0.9901 0.0000
vt 0.0169 -0.0087 0.0000
vt -15.7479 -16.6230 0.0000
vt -15.7405 -16.6155 0.0000
vt 0.4835 0.4834 0.0000
vt 0.9716 0.4986 0.0000
# 12 texture coords

g Object028
usemtl 07___Default
s 1
f 325/361/137 326/362/137 327/363/137 328/364/137 
f 328/361/137 329/362/137 330/363/137 331/364/137 
s 2
f 332/361/137 325/361/137 328/364/137 331/364/137 
s 1
f 332/361/137 331/364/137 333/363/137 334/362/138 
s off
f 325/361/137 335/362/137 326/365/137 
f 327/363/137 329/365/137 328/361/137 
f 331/364/137 330/363/137 333/366/137 
f 330/363/139 336/367/139 333/366/139 
s 1
f 337/368/140 335/369/137 325/370/137 332/361/137 
f 334/362/138 337/368/140 332/361/137 
f 334/362/138 338/371/141 337/368/140 
s off
f 335/362/142 339/372/142 326/365/142 
f 327/363/143 340/367/143 329/365/143 
# 5 polygons - 8 triangles

#
# object Object029
#

v  0.4716 10.0000 0.4716
v  0.4716 10.0000 -0.4716
v  -0.4716 10.0000 -0.4716
v  -0.4716 10.0000 0.4716
v  0.5000 0.0000 0.4716
v  0.5000 0.0000 -0.4716
v  0.5000 9.9716 -0.4716
v  0.5000 9.9716 0.4716
v  -0.5000 0.0000 -0.4716
v  -0.5000 0.0000 0.4716
v  -0.5000 9.9716 0.4716
v  -0.5000 9.9716 -0.4716
v  -0.4716 0.0000 0.5000
v  0.4716 0.0000 0.5000
v  0.4716 9.9716 0.5000
v  -0.4716 9.9716 0.5000
v  -0.4716 10.0000 -0.5000
v  -0.5000 9.9716 -0.5000
v  0.5000 9.9716 -0.5000
v  0.4716 10.0000 -0.5000
v  0.5000 0.0000 -0.5000
v  -0.5000 0.0000 -0.5000
# 22 vertices

vn 0.0000 1.0000 -0.0000
vn 1.0000 0.0000 -0.0000
vn -1.0000 0.0000 0.0000
vn 0.0000 0.0000 1.0000
vn 0.5774 0.5773 0.5774
vn -0.5774 0.5773 0.5774
vn 0.7071 0.7071 -0.0000
vn -0.7071 0.7071 0.0000
vn 0.0000 0.7071 0.7071
vn 0.7071 0.0000 0.7071
vn -0.7071 0.0000 0.7071
vn -0.7073 0.7069 -0.0003
vn 0.7074 0.7068 -0.0006
vn 1.0000 0.0000 -0.0017
vn -1.0000 0.0000 -0.0009
# 15 vertex normals

vt 0.0284 0.0284 0.0000
vt 0.9716 0.0284 0.0000
vt 0.9716 0.9716 0.0000
vt 0.0284 0.9716 0.0000
vt 0.0284 0.0000 0.0000
vt 0.9716 0.0000 0.0000
vt 0.9716 0.9972 0.0000
vt 0.0284 0.9972 0.0000
vt 0.0040 1.0112 0.0000
vt 0.0040 0.9831 0.0000
vt 0.0284 0.9570 0.0000
vt 0.9716 0.9570 0.0000
vt 0.9757 0.9960 0.0000
vt 0.9757 -0.0012 0.0000
vt 0.0243 -0.0012 0.0000
vt 0.0243 0.9960 0.0000
vt 0.0264 0.4779 0.0000
vt 0.9716 0.4986 0.0000
vt 0.4878 0.9901 0.0000
vt 0.5000 0.9771 0.0000
vt 0.9716 0.9771 0.0000
vt 0.4980 0.4980 0.0000
vt 0.4878 0.5198 0.0000
vt 0.0162 0.4916 0.0000
vt 0.5000 0.4785 0.0000
# 25 texture coords

g Object029
usemtl 07___Default
s 4
f 341/373/144 342/374/144 343/375/144 344/376/144 
s 8
f 345/377/145 346/378/145 347/379/145 348/380/145 
s 32
f 349/377/146 350/378/146 351/379/146 352/380/146 
s 64
f 353/377/147 354/378/147 355/379/147 356/380/147 
s off
f 348/380/148 341/381/148 355/382/148 
f 356/380/149 344/381/149 351/382/149 
f 341/383/150 348/380/150 347/379/150 342/384/150 
f 343/383/151 352/380/151 351/379/151 344/384/151 
f 344/383/152 356/380/152 355/379/152 341/384/152 
f 348/385/153 355/379/153 354/378/153 345/386/153 
f 350/387/154 353/377/154 356/380/154 351/388/154 
f 357/389/155 358/390/155 352/378/155 343/383/155 
f 359/391/156 360/392/156 342/379/156 347/379/156 
s 1
f 343/379/144 342/379/144 360/393/144 357/394/144 
f 347/377/157 346/374/157 361/395/157 359/396/157 
f 349/377/158 352/378/158 358/394/158 362/397/158 
# 14 polygons - 2 triangles

