# 3ds Max Wavefront OBJ Exporter v0.97b - (c)2007 guruware
# File Created: 19.03.2026 04:21:41

mtllib tile_single_01.mtl

#
# object Box088
#

v  -0.4716 10.0005 0.4716
v  0.4716 10.0005 0.4716
v  0.4716 10.0005 -0.4716
v  -0.4716 10.0005 -0.4716
v  -0.4716 0.0005 0.5000
v  0.4716 0.0005 0.5000
v  0.4716 9.9721 0.5000
v  -0.4716 9.9721 0.5000
v  0.5000 0.0005 0.4716
v  0.5000 0.0005 -0.4716
v  0.5000 9.9721 -0.4716
v  0.5000 9.9721 0.4716
v  0.4716 0.0005 -0.5000
v  -0.4716 0.0005 -0.5000
v  -0.4716 9.9721 -0.5000
v  0.4716 9.9721 -0.5000
v  -0.5000 0.0005 -0.4716
v  -0.5000 0.0005 0.4716
v  -0.5000 9.9721 0.4716
v  -0.5000 9.9721 -0.4716
v  -0.3859 -0.0045 -0.0281
v  -0.3859 -0.0045 -0.4050
v  -0.3859 9.4345 -0.4050
v  -0.3859 9.4072 -0.0381
v  -0.3859 9.4461 -0.3943
v  -0.3859 9.3787 -0.0273
v  -0.6477 -0.0045 -0.0399
v  -0.6477 9.2732 -0.0392
v  -0.6477 9.3103 -0.3932
v  -0.6477 -0.0045 -0.3932
v  -0.6294 -0.0045 -0.0281
v  -0.6294 -0.0045 -0.4050
v  -0.6294 9.3217 -0.4050
v  -0.6294 9.3332 -0.3943
v  -0.6294 9.2944 -0.0381
v  -0.6294 9.2659 -0.0273
v  -0.3436 -0.0045 0.3341
v  -0.3436 -0.0045 -0.0428
v  -0.3436 8.3846 -0.0428
v  -0.3436 8.3573 0.3241
v  -0.3436 8.3961 -0.0321
v  -0.3436 8.3288 0.3349
v  -0.6054 -0.0045 0.3223
v  -0.6054 8.2232 0.3230
v  -0.6054 8.2604 -0.0310
v  -0.6054 -0.0045 -0.0310
v  -0.5872 -0.0045 0.3341
v  -0.5872 -0.0045 -0.0428
v  -0.5872 8.2718 -0.0428
v  -0.5872 8.2833 -0.0321
v  -0.5872 8.2444 0.3241
v  -0.5872 8.2160 0.3349
v  -0.7796 0.0005 0.4023
v  -0.7796 0.0005 -0.2483
v  -0.7600 0.0005 -0.2679
v  -0.0902 0.0005 -0.2483
v  -0.1098 0.0005 -0.2679
v  -0.0902 0.0005 0.4023
v  -0.1098 0.0005 0.4218
v  -0.7600 0.0005 0.4218
v  -0.7600 7.3686 0.4023
v  -0.1098 7.5537 0.4023
v  -0.1098 7.5537 -0.2483
v  -0.7600 7.3686 -0.2483
v  -0.1098 7.5323 0.4218
v  -0.7600 7.3471 0.4218
v  -0.0902 7.5323 -0.2483
v  -0.0902 7.5323 0.4023
v  -0.7600 7.3471 -0.2679
v  -0.1098 7.5323 -0.2679
v  -0.7796 7.3471 0.4023
v  -0.7796 7.3471 -0.2483
v  -0.9118 0.0005 -0.0598
v  -0.9118 0.0005 -0.7104
v  -0.8922 0.0005 -0.7300
v  -0.2225 0.0005 -0.7104
v  -0.2420 0.0005 -0.7300
v  -0.2225 0.0005 -0.0598
v  -0.2420 0.0005 -0.0403
v  -0.8922 0.0005 -0.0403
v  -0.8922 4.3377 -0.0598
v  -0.2420 4.5228 -0.0598
v  -0.2420 4.5228 -0.7104
v  -0.8922 4.3377 -0.7104
v  -0.2420 4.5014 -0.0403
v  -0.8922 4.3163 -0.0403
v  -0.2225 4.5014 -0.7104
v  -0.2225 4.5014 -0.0598
v  -0.8922 4.3163 -0.7300
v  -0.2420 4.5014 -0.7300
v  -0.9118 4.3163 -0.0598
v  -0.9118 4.3163 -0.7104
v  -0.8217 0.0005 0.8992
v  -0.8217 0.0005 0.2954
v  -0.8036 0.0005 0.2773
v  -0.1819 0.0005 0.2954
v  -0.2001 0.0005 0.2773
v  -0.1819 0.0005 0.8992
v  -0.2001 0.0005 0.9174
v  -0.8036 0.0005 0.9174
v  -0.8036 3.5932 0.8992
v  -0.2001 3.7650 0.8992
v  -0.2001 3.7650 0.2954
v  -0.8036 3.5932 0.2954
v  -0.2001 3.7451 0.9174
v  -0.8036 3.5733 0.9174
v  -0.1819 3.7451 0.2954
v  -0.1819 3.7451 0.8992
v  -0.8036 3.5733 0.2773
v  -0.2001 3.7451 0.2773
v  -0.8217 3.5733 0.8992
v  -0.8217 3.5733 0.2954
v  0.5663 0.0005 -0.2679
v  0.5481 0.0005 -0.2498
v  -0.3151 0.0005 -0.2498
v  0.5481 0.0005 -0.8131
v  -0.3332 0.0005 -0.2679
v  -0.3332 0.0005 -0.7950
v  -0.3151 0.0005 -0.8131
v  0.5663 0.0005 -0.7950
v  0.5481 6.0621 -0.7950
v  -0.3151 6.0621 -0.7950
v  -0.3151 6.4184 -0.2679
v  0.5481 6.4184 -0.2679
v  0.5663 6.0422 -0.7950
v  0.5663 6.3985 -0.2679
v  0.5481 6.3985 -0.2498
v  -0.3151 6.3985 -0.2498
v  -0.3332 6.3985 -0.2679
v  -0.3332 6.0422 -0.7950
v  -0.3151 6.0422 -0.8131
v  0.5481 6.0422 -0.8131
v  0.1686 -0.0045 -0.2849
v  0.1696 9.1270 -0.2849
v  0.1555 9.1555 -0.2849
v  -0.2548 9.1828 -0.2849
v  -0.2407 9.1944 -0.2849
v  -0.2548 -0.0045 -0.2849
v  0.1531 -0.0045 -0.6435
v  -0.2393 -0.0045 -0.6435
v  -0.2393 9.0586 -0.6435
v  0.1541 9.0214 -0.6435
v  -0.2548 -0.0045 -0.6252
v  0.1686 -0.0045 -0.6252
v  -0.2548 9.0700 -0.6252
v  0.1555 9.0426 -0.6252
v  -0.2407 9.0815 -0.6252
v  0.1696 9.0142 -0.6252
v  -0.7119 0.0005 0.0511
v  -0.7119 0.0005 -0.5546
v  -0.6937 0.0005 -0.5728
v  -0.0701 0.0005 -0.5546
v  -0.0883 0.0005 -0.5728
v  -0.0701 0.0005 0.0511
v  -0.0883 0.0005 0.0693
v  -0.6937 0.0005 0.0693
v  -0.6937 7.0326 0.0511
v  -0.0883 7.0326 0.0511
v  -0.0883 7.0326 -0.5546
v  -0.6937 7.0326 -0.5546
v  -0.0883 7.0127 0.0693
v  -0.6937 7.0127 0.0693
v  -0.0701 7.0127 -0.5546
v  -0.0701 7.0127 0.0511
v  -0.6937 7.0127 -0.5728
v  -0.0883 7.0127 -0.5728
v  -0.7119 7.0127 0.0511
v  -0.7119 7.0127 -0.5546
v  -0.0415 0.0005 -0.1753
v  -0.0415 8.4157 -0.1753
v  -0.0415 8.1676 -0.6995
v  -0.0415 0.0005 -0.6995
v  -0.0196 8.1676 -0.7214
v  -0.0196 8.1916 -0.6995
v  -0.0196 8.4157 -0.1535
v  -0.0196 8.4397 -0.1753
v  -0.0196 0.0005 -0.7214
v  -0.0196 0.0005 -0.1535
v  0.2537 0.0005 -0.1535
v  0.2537 8.4157 -0.1535
v  0.2537 8.4397 -0.1753
v  0.2756 0.0005 -0.6995
v  0.2756 0.0005 -0.1753
v  0.2537 0.0005 -0.7214
v  0.2537 8.1916 -0.6995
v  0.2537 8.1676 -0.7214
v  0.2756 8.1676 -0.6995
v  0.2756 8.4157 -0.1753
v  0.3163 0.0005 -0.2140
v  0.2982 0.0005 -0.2322
v  0.2982 0.0005 -0.8360
v  0.9380 0.0005 -0.2322
v  0.3163 0.0005 -0.8542
v  0.9199 0.0005 -0.8542
v  0.9380 0.0005 -0.8360
v  0.9199 0.0005 -0.2140
v  0.9199 3.5932 -0.2322
v  0.9199 3.5932 -0.8360
v  0.3163 3.7650 -0.8360
v  0.3163 3.7650 -0.2322
v  0.9199 3.5733 -0.2140
v  0.3163 3.7451 -0.2140
v  0.2982 3.7451 -0.2322
v  0.2982 3.7451 -0.8360
v  0.3163 3.7451 -0.8542
v  0.9199 3.5733 -0.8542
v  0.9380 3.5733 -0.8360
v  0.9380 3.5733 -0.2322
v  0.1406 0.0005 0.0693
v  0.1224 0.0005 0.0511
v  0.1224 0.0005 -0.5546
v  0.7642 0.0005 0.0511
v  0.1406 0.0005 -0.5728
v  0.7460 0.0005 -0.5728
v  0.7642 0.0005 -0.5546
v  0.7460 0.0005 0.0693
v  0.7460 7.0326 0.0511
v  0.7460 7.0326 -0.5546
v  0.1406 7.0326 -0.5546
v  0.1406 7.0326 0.0511
v  0.7460 7.0127 0.0693
v  0.1406 7.0127 0.0693
v  0.1224 7.0127 0.0511
v  0.1224 7.0127 -0.5546
v  0.1406 7.0127 -0.5728
v  0.7460 7.0127 -0.5728
v  0.7642 7.0127 -0.5546
v  0.7642 7.0127 0.0511
v  0.1620 0.0005 0.4218
v  0.1425 0.0005 0.4023
v  0.1425 0.0005 -0.2483
v  0.8318 0.0005 0.4023
v  0.1620 0.0005 -0.2679
v  0.8123 0.0005 -0.2679
v  0.8318 0.0005 -0.2483
v  0.8123 0.0005 0.4218
v  0.8123 7.3686 0.4023
v  0.8123 7.3686 -0.2483
v  0.1620 7.5537 -0.2483
v  0.1620 7.5537 0.4023
v  0.8123 7.3471 0.4218
v  0.1620 7.5323 0.4218
v  0.1425 7.5323 0.4023
v  0.1425 7.5323 -0.2483
v  0.1620 7.5323 -0.2679
v  0.8123 7.3471 -0.2679
v  0.8318 7.3471 -0.2483
v  0.8318 7.3471 0.4023
v  0.4382 0.2480 -0.0281
v  0.4382 9.6313 -0.0273
v  0.4382 9.6597 -0.0381
v  0.4382 9.6871 -0.4050
v  0.4382 9.6986 -0.3943
v  0.4382 0.2480 -0.4050
v  0.6999 0.2480 -0.0399
v  0.6999 0.2480 -0.3932
v  0.6999 9.5628 -0.3932
v  0.6999 9.5257 -0.0392
v  0.6817 0.2480 -0.4050
v  0.6817 0.2480 -0.0281
v  0.6817 9.5742 -0.4050
v  0.6817 9.5469 -0.0381
v  0.6817 9.5858 -0.3943
v  0.6817 9.5184 -0.0273
v  0.3959 -0.0045 0.3341
v  0.3959 8.3288 0.3349
v  0.3959 8.3573 0.3241
v  0.3959 8.3846 -0.0428
v  0.3959 8.3961 -0.0321
v  0.3959 -0.0045 -0.0428
v  0.6577 -0.0045 0.3223
v  0.6577 -0.0045 -0.0310
v  0.6577 8.2604 -0.0310
v  0.6577 8.2232 0.3230
v  0.6394 -0.0045 -0.0428
v  0.6394 -0.0045 0.3341
v  0.6394 8.2718 -0.0428
v  0.6394 8.2444 0.3241
v  0.6394 8.2833 -0.0321
v  0.6394 8.2160 0.3349
v  -0.1888 0.0005 0.6953
v  -0.1888 0.0005 -0.0316
v  -0.1670 0.0005 -0.0535
v  0.4011 0.0005 -0.0535
v  0.4229 0.0005 -0.0316
v  0.4229 0.0005 0.6953
v  0.4011 0.0005 0.7171
v  -0.1670 0.0005 0.7171
v  0.4011 8.1916 0.6953
v  0.4011 8.4397 -0.0316
v  -0.1670 8.4397 -0.0316
v  -0.1670 8.1916 0.6953
v  0.4011 8.1676 0.7171
v  -0.1670 8.1676 0.7171
v  -0.1888 8.1676 0.6953
v  -0.1888 8.4157 -0.0316
v  -0.1670 8.4157 -0.0535
v  0.4011 8.4157 -0.0535
v  0.4229 8.4157 -0.0316
v  0.4229 8.1676 0.6953
v  0.3453 -0.0045 0.3353
v  -0.1483 -0.0045 0.3353
v  -0.1483 9.9410 0.3353
v  0.3322 9.9573 0.3353
v  -0.1343 9.9525 0.3353
v  0.3463 9.9288 0.3353
v  0.3298 -0.0045 0.5972
v  0.3308 9.8232 0.5972
v  -0.1328 9.8167 0.5972
v  -0.1328 -0.0045 0.5972
v  0.3453 -0.0045 0.5790
v  -0.1483 -0.0045 0.5790
v  -0.1483 9.8282 0.5790
v  -0.1343 9.8397 0.5790
v  0.3322 9.8444 0.5790
v  0.3463 9.8160 0.5790
v  -0.0099 -0.0045 0.3406
v  -0.4332 -0.0045 0.3406
v  -0.4332 8.8166 0.3406
v  -0.0229 8.7893 0.3406
v  -0.4192 8.8282 0.3406
v  -0.0089 8.7608 0.3406
v  -0.0254 -0.0045 0.6992
v  -0.0244 8.6552 0.6992
v  -0.4177 8.6924 0.6992
v  -0.4177 -0.0045 0.6992
v  -0.0099 -0.0045 0.6810
v  -0.4332 -0.0045 0.6810
v  -0.4332 8.7038 0.6810
v  -0.4192 8.7153 0.6810
v  -0.0229 8.6764 0.6810
v  -0.0089 8.6480 0.6810
v  0.0959 0.0005 0.5556
v  0.0959 0.0005 0.0015
v  0.1126 0.0005 -0.0151
v  0.6830 0.0005 0.0015
v  0.6664 0.0005 -0.0151
v  0.6830 0.0005 0.5556
v  0.6664 0.0005 0.5723
v  0.1126 0.0005 0.5723
v  0.1126 6.4334 0.5556
v  0.6664 6.4334 0.5556
v  0.6664 6.4334 0.0015
v  0.1126 6.4334 0.0015
v  0.6664 6.4152 0.5723
v  0.1126 6.4152 0.5723
v  0.6830 6.4152 0.0015
v  0.6830 6.4152 0.5556
v  0.1126 6.4152 -0.0151
v  0.6664 6.4152 -0.0151
v  0.0959 6.4152 0.5556
v  0.0959 6.4152 0.0015
v  0.1958 0.0005 0.7737
v  0.1762 0.0005 0.7541
v  0.1762 0.0005 0.1036
v  0.8656 0.0005 0.7541
v  0.1958 0.0005 0.0840
v  0.8460 0.0005 0.0840
v  0.8656 0.0005 0.1036
v  0.8460 0.0005 0.7737
v  0.8460 4.3377 0.7541
v  0.8460 4.3377 0.1036
v  0.1958 4.5228 0.1036
v  0.1958 4.5228 0.7541
v  0.8460 4.3163 0.7737
v  0.1958 4.5014 0.7737
v  0.1762 4.5014 0.7541
v  0.1762 4.5014 0.1036
v  0.1958 4.5014 0.0840
v  0.8460 4.3163 0.0840
v  0.8656 4.3163 0.1036
v  0.8656 4.3163 0.7541
v  -0.6702 0.0005 0.7916
v  -0.6702 0.0005 0.1411
v  -0.6507 0.0005 0.1215
v  0.0191 0.0005 0.1411
v  -0.0004 0.0005 0.1215
v  0.0191 0.0005 0.7916
v  -0.0004 0.0005 0.8112
v  -0.6507 0.0005 0.8112
v  -0.6507 5.0324 0.7916
v  -0.0004 5.2175 0.7916
v  -0.0004 5.2175 0.1411
v  -0.6507 5.0324 0.1411
v  -0.0004 5.1961 0.8112
v  -0.6507 5.0110 0.8112
v  0.0191 5.1961 0.1411
v  0.0191 5.1961 0.7916
v  -0.6507 5.0110 0.1215
v  -0.0004 5.1961 0.1215
v  -0.6702 5.0110 0.7916
v  -0.6702 5.0110 0.1411
v  -0.5317 0.0005 0.6056
v  -0.5317 0.0005 0.0516
v  -0.5150 0.0005 0.0349
v  0.0554 0.0005 0.0516
v  0.0388 0.0005 0.0349
v  0.0554 0.0005 0.6056
v  0.0388 0.0005 0.6223
v  -0.5150 0.0005 0.6223
v  -0.5150 6.4334 0.6056
v  0.0388 6.4334 0.6056
v  0.0388 6.4334 0.0516
v  -0.5150 6.4334 0.0516
v  0.0388 6.4152 0.6223
v  -0.5150 6.4152 0.6223
v  0.0554 6.4152 0.0516
v  0.0554 6.4152 0.6056
v  -0.5150 6.4152 0.0349
v  0.0388 6.4152 0.0349
v  -0.5317 6.4152 0.6056
v  -0.5317 6.4152 0.0516
# 412 vertices

vn 0.0000 1.0000 -0.0000
vn 0.0000 0.0000 1.0000
vn 1.0000 0.0000 -0.0000
vn 0.0000 0.0000 -1.0000
vn -1.0000 0.0000 -0.0000
vn -0.5774 0.5773 0.5774
vn 0.5774 0.5773 0.5774
vn -0.5774 0.5773 -0.5774
vn 0.5774 0.5773 -0.5774
vn 0.0000 0.7071 0.7071
vn 0.7071 0.7071 -0.0000
vn 0.0000 0.7071 -0.7071
vn -0.7071 0.7071 -0.0000
vn 0.7071 0.0000 0.7071
vn -0.7071 0.0000 0.7071
vn 0.7071 0.0000 -0.7071
vn -0.7071 0.0000 -0.7071
vn 1.0000 0.0000 0.0000
vn -1.0000 -0.0000 -0.0000
vn 0.0000 -1.0000 -0.0000
vn -0.4184 0.9029 0.0986
vn 0.0000 -0.0001 1.0000
vn -0.4227 0.3196 0.8480
vn -0.6691 0.5059 -0.5444
vn -0.5441 -0.0000 -0.8390
vn -0.7688 0.6358 0.0681
vn -0.5441 -0.0001 0.8390
vn -0.3008 0.6492 -0.6986
vn -0.1613 0.3480 0.9235
vn -0.6692 0.5059 -0.5443
vn -0.3009 0.6493 -0.6985
vn -0.2738 0.9618 -0.0000
vn -0.0000 0.0000 1.0000
vn -0.0000 0.0000 -1.0000
vn -0.5942 0.5423 0.5939
vn 0.5942 0.5423 0.5939
vn -0.5942 0.5423 -0.5939
vn 0.5942 0.5423 -0.5939
vn -0.1885 0.6622 0.7252
vn 0.7386 0.6741 -0.0000
vn -0.1885 0.6622 -0.7252
vn -0.7386 0.6741 -0.0000
vn 0.7073 0.0000 0.7069
vn -0.7073 0.0000 0.7069
vn 0.7073 0.0000 -0.7069
vn -0.7073 0.0000 -0.7069
vn 0.0000 -0.0000 -1.0000
vn 0.7073 -0.0000 -0.7069
vn -0.7073 -0.0000 -0.7069
vn -0.0000 -0.0000 -1.0000
vn -0.0000 0.8285 -0.5600
vn 0.0000 -0.0000 1.0000
vn -1.0000 -0.0000 0.0000
vn 0.5942 0.5424 0.5939
vn -0.5942 0.5424 0.5939
vn 0.6721 0.6134 -0.4147
vn -0.0000 0.6743 0.7384
vn -0.6721 0.6134 -0.4147
vn -0.0000 0.6743 -0.7385
vn -0.7073 -0.0000 0.7069
vn -0.0000 -0.0000 1.0000
vn -1.0000 0.0000 0.0000
vn 0.0928 0.9451 -0.3134
vn 1.0000 -0.0001 0.0000
vn 1.0000 -0.0001 -0.0000
vn 0.7740 0.3820 -0.5050
vn -0.4441 0.5405 -0.7146
vn -0.7624 0.0000 -0.6471
vn 0.0613 0.6363 -0.7690
vn 0.7624 -0.0001 -0.6471
vn -0.6150 0.7485 -0.2482
vn 0.8872 0.4379 -0.1452
vn 0.0000 0.6743 0.7385
vn 0.0000 0.6743 -0.7385
vn -0.5942 0.5423 0.5940
vn -0.7037 0.6422 -0.3039
vn 0.0000 0.9039 -0.4278
vn 1.0000 -0.0000 0.0000
vn 1.0000 -0.0000 -0.0000
vn 0.5942 0.5423 0.5940
vn 0.0000 0.6743 -0.7384
vn 0.7037 0.6422 -0.3039
vn 0.2738 0.9618 -0.0000
vn 0.1885 0.6622 0.7252
vn 0.1885 0.6622 -0.7252
vn 0.4184 0.9029 0.0986
vn -0.0000 -0.0001 1.0000
vn 0.4227 0.3196 0.8480
vn 0.6691 0.5059 -0.5444
vn 0.5441 -0.0000 -0.8390
vn 0.7688 0.6358 0.0681
vn 0.5441 -0.0001 0.8390
vn 0.3008 0.6492 -0.6986
vn 0.1613 0.3480 0.9235
vn 0.6692 0.5059 -0.5443
vn 0.3009 0.6493 -0.6985
vn 0.0000 0.9464 0.3230
vn -0.5942 0.5423 -0.5940
vn -0.7198 0.6569 0.2242
vn 0.5942 0.5423 -0.5940
vn 0.7198 0.6569 0.2242
vn 0.7073 -0.0000 0.7069
vn -0.0092 0.9074 0.4202
vn 0.7740 0.3820 0.5050
vn -0.4441 0.5405 0.7146
vn -0.7624 -0.0000 0.6471
vn -0.0077 0.6375 0.7704
vn 0.7624 -0.0001 0.6471
vn -0.5977 0.7275 0.3369
vn 0.8785 0.4335 0.2008
vn 0.0928 0.9451 0.3134
vn 0.0613 0.6363 0.7690
vn -0.6150 0.7485 0.2482
vn 0.8872 0.4379 0.1452
# 114 vertex normals

vt 0.0284 0.0284 0.0000
vt 0.9716 0.0284 0.0000
vt 0.9716 0.9716 0.0000
vt 0.0284 0.9716 0.0000
vt 0.0284 0.0000 0.0000
vt 0.9716 0.0000 0.0000
vt 0.9716 0.9972 0.0000
vt 0.0284 0.9972 0.0000
vt 0.0040 1.0112 0.0000
vt 0.0040 0.9831 0.0000
vt 0.0284 0.9570 0.0000
vt 0.9716 0.9570 0.0000
vt 0.0243 -0.0012 0.0000
vt 0.0243 0.9960 0.0000
vt 0.9757 0.9960 0.0000
vt 0.9757 -0.0012 0.0000
vt 1.0000 0.0000 0.0000
vt 0.0000 0.0000 0.0000
vt 0.0000 0.9970 0.0000
vt 0.9779 1.0000 0.0000
vt 0.0221 1.0000 0.0000
vt 1.0000 0.9968 0.0000
vt 0.0244 0.0000 0.0000
vt 0.0244 0.9965 0.0000
vt 0.9756 0.9965 0.0000
vt 0.9756 0.0000 0.0000
vt 0.0000 0.7685 0.0000
vt 0.0244 1.0000 0.0000
vt 0.9756 1.0000 0.0000
vt 1.0000 0.7685 0.0000
vt 0.9970 0.7685 0.0000
vt 0.9970 0.0000 0.0000
vt 0.0221 0.0000 0.0000
vt 0.0221 0.7685 0.0000
vt 0.9779 0.7685 0.0000
vt 0.9779 0.0000 0.0000
vt 0.0032 0.0000 0.0000
vt 0.0032 0.7685 0.0000
vt -0.0219 0.6264 0.0000
vt -0.0973 0.9929 0.0000
vt 0.0116 0.6773 0.0000
vt -0.1475 0.9824 0.0000
vt -0.0009 0.9787 0.0000
vt 0.9943 0.9727 0.0000
vt 0.0347 0.9932 0.0000
vt 0.9860 1.0037 0.0000
vt 0.0030 0.9842 0.0000
vt 1.0010 0.9789 0.0000
vt 0.0031 -0.0220 0.0000
vt 0.0031 0.7525 0.0000
vt -0.0022 0.0040 0.0000
vt -0.0022 0.7670 0.0000
vt 1.0000 0.0284 0.0000
vt 1.0000 0.9716 0.0000
vt 0.9716 1.0000 0.0000
vt 0.0000 0.9716 0.0000
vt 0.0284 1.0000 0.0000
vt 0.0000 0.0284 0.0000
# 58 texture coords

g Box088
usemtl 07___Default
s 4
f 1/1/1 2/2/1 3/3/1 4/4/1 
s 8
f 5/5/2 6/6/2 7/7/2 8/8/2 
s 16
f 9/5/3 10/6/3 11/7/3 12/8/3 
s 32
f 13/5/4 14/6/4 15/7/4 16/8/4 
s 64
f 17/5/5 18/6/5 19/7/5 20/8/5 
s off
f 8/8/6 1/9/6 19/10/6 
f 12/8/7 2/9/7 7/10/7 
f 20/8/8 4/9/8 15/10/8 
f 16/8/9 3/9/9 11/10/9 
f 1/11/10 8/8/10 7/7/10 2/12/10 
f 2/11/11 12/8/11 11/7/11 3/12/11 
f 3/11/12 16/8/12 15/7/12 4/12/12 
f 4/11/13 20/8/13 19/7/13 1/12/13 
f 6/13/14 9/5/14 12/8/14 7/14/14 
f 8/15/15 19/7/15 18/6/15 5/16/15 
f 10/13/16 13/5/16 16/8/16 11/14/16 
f 14/13/17 17/5/17 20/8/17 15/14/17 
s 2
f 21/17/18 22/18/3 23/19/18 24/20/18 
f 23/19/18 25/21/3 24/20/18 
f 21/17/18 24/20/18 26/22/18 
s 4
f 27/23/19 28/24/19 29/25/19 30/26/19 
s 8
f 31/27/20 27/28/20 30/29/20 21/18/20 
f 30/29/20 32/30/20 22/17/20 21/18/20 
s 16
f 22/18/4 32/27/4 33/31/4 23/32/4 
s 32
f 25/33/21 34/34/21 35/35/21 24/36/21 
s 64
f 26/37/22 36/38/22 31/30/22 21/17/22 
s off
f 36/38/23 35/39/23 28/40/23 
f 34/34/24 33/41/24 29/42/24 
f 30/43/25 29/44/25 33/31/25 32/27/25 
f 29/45/26 28/46/26 35/35/26 34/34/26 
f 28/47/27 27/48/27 31/30/27 36/38/27 
f 23/49/28 33/50/28 34/34/28 25/33/28 
f 24/51/29 35/52/29 36/38/29 26/37/29 
s 2
f 37/17/18 38/18/3 39/19/18 40/20/18 
f 39/19/18 41/21/3 40/20/18 
f 37/17/18 40/20/18 42/22/18 
s 4
f 43/23/19 44/24/19 45/25/19 46/26/19 
s 8
f 47/27/20 43/28/20 46/29/20 37/18/20 
f 46/29/20 48/30/20 38/17/20 37/18/20 
s 16
f 38/18/4 48/27/4 49/31/4 39/32/4 
s 32
f 41/33/21 50/34/21 51/35/21 40/36/21 
s 64
f 42/37/22 52/38/22 47/30/22 37/17/22 
s off
f 52/38/23 51/39/23 44/40/23 
f 50/34/30 49/41/30 45/42/30 
f 46/43/25 45/44/25 49/31/25 48/27/25 
f 45/45/26 44/46/26 51/35/26 50/34/26 
f 44/47/27 43/48/27 47/30/27 52/38/27 
f 39/49/31 49/50/31 50/34/31 41/33/31 
f 40/51/29 51/52/29 52/38/29 42/37/29 
s 2
f 53/53/20 54/54/20 55/55/20 56/56/20 
f 55/55/20 57/57/20 56/56/20 
f 56/56/20 58/58/20 59/5/20 53/53/20 
f 60/6/20 53/53/20 59/5/20 
s 4
f 61/1/32 62/2/32 63/3/32 64/4/32 
s 8
f 60/5/33 59/6/2 65/7/33 66/8/33 
s 16
f 58/5/3 56/6/3 67/7/3 68/8/3 
s 32
f 57/5/34 55/6/4 69/7/34 70/8/34 
s 64
f 54/5/5 53/6/5 71/7/5 72/8/5 
s off
f 66/8/35 61/9/35 71/10/35 
f 68/8/36 62/9/36 65/10/36 
f 72/8/37 64/9/37 69/10/37 
f 70/8/38 63/9/38 67/10/38 
f 61/11/39 66/8/39 65/7/39 62/12/39 
f 62/11/40 68/8/40 67/7/40 63/12/40 
f 63/11/41 70/8/41 69/7/41 64/12/41 
f 64/11/42 72/8/42 71/7/42 61/12/42 
f 59/13/43 58/5/43 68/8/43 65/14/43 
f 66/15/44 71/7/44 53/6/44 60/16/44 
f 56/13/45 57/5/45 70/8/45 67/14/45 
f 55/13/46 54/5/46 72/8/46 69/14/46 
s 2
f 73/53/20 74/54/20 75/55/20 76/56/20 
f 75/55/20 77/57/20 76/56/20 
f 76/56/20 78/58/20 79/5/20 73/53/20 
f 80/6/20 73/53/20 79/5/20 
s 4
f 81/1/32 82/2/32 83/3/32 84/4/32 
s 8
f 80/5/33 79/6/2 85/7/33 86/8/33 
s 16
f 78/5/3 76/6/3 87/7/3 88/8/3 
s 32
f 77/5/47 75/6/47 89/7/47 90/8/47 
s 64
f 74/5/5 73/6/5 91/7/5 92/8/5 
s off
f 86/8/35 81/9/35 91/10/35 
f 88/8/36 82/9/36 85/10/36 
f 92/8/37 84/9/37 89/10/37 
f 90/8/38 83/9/38 87/10/38 
f 81/11/39 86/8/39 85/7/39 82/12/39 
f 82/11/40 88/8/40 87/7/40 83/12/40 
f 83/11/41 90/8/41 89/7/41 84/12/41 
f 84/11/42 92/8/42 91/7/42 81/12/42 
f 79/13/43 78/5/43 88/8/43 85/14/43 
f 86/15/44 91/7/44 73/6/44 80/16/44 
f 76/13/48 77/5/48 90/8/48 87/14/48 
f 75/13/49 74/5/49 92/8/49 89/14/49 
s 2
f 93/53/20 94/54/20 95/55/20 96/56/20 
f 95/55/20 97/57/20 96/56/20 
f 96/56/20 98/58/20 99/5/20 93/53/20 
f 100/6/20 93/53/20 99/5/20 
s 4
f 101/1/32 102/2/32 103/3/32 104/4/32 
s 8
f 100/5/33 99/6/2 105/7/33 106/8/33 
s 16
f 98/5/3 96/6/3 107/7/3 108/8/3 
s 32
f 97/5/50 95/6/47 109/7/50 110/8/50 
s 64
f 94/5/5 93/6/5 111/7/5 112/8/5 
s off
f 106/8/35 101/9/35 111/10/35 
f 108/8/36 102/9/36 105/10/36 
f 112/8/37 104/9/37 109/10/37 
f 110/8/38 103/9/38 107/10/38 
f 101/11/39 106/8/39 105/7/39 102/12/39 
f 102/11/40 108/8/40 107/7/40 103/12/40 
f 103/11/41 110/8/41 109/7/41 104/12/41 
f 104/11/42 112/8/42 111/7/42 101/12/42 
f 99/13/43 98/5/43 108/8/43 105/14/43 
f 106/15/44 111/7/44 93/6/44 100/16/44 
f 96/13/48 97/5/48 110/8/48 107/14/48 
f 95/13/46 94/5/46 112/8/46 109/14/46 
s 2
f 113/5/20 114/58/20 115/56/20 116/53/20 
f 115/56/20 117/57/20 118/55/20 116/53/20 
f 118/55/20 119/54/20 116/53/20 
f 120/6/20 113/5/20 116/53/20 
s 4
f 121/1/51 122/4/51 123/3/51 124/2/51 
s 8
f 120/5/3 125/8/3 126/7/3 113/6/3 
s 16
f 114/5/52 127/8/2 128/7/52 115/6/52 
s 32
f 117/5/53 129/8/53 130/7/53 118/6/53 
s 64
f 119/5/34 131/8/34 132/7/34 116/6/50 
s off
f 125/8/38 132/10/38 121/9/38 
f 127/8/54 126/10/54 124/9/54 
f 131/8/37 130/10/37 122/9/37 
f 129/8/55 128/10/55 123/9/55 
f 121/11/56 124/12/56 126/7/56 125/8/56 
f 124/11/57 123/12/57 128/7/57 127/8/57 
f 123/11/58 122/12/58 130/7/58 129/8/58 
f 122/11/59 121/12/59 132/7/59 131/8/59 
f 113/13/43 126/14/43 127/8/43 114/5/43 
f 125/15/45 120/16/45 116/6/45 132/7/45 
f 115/13/60 128/14/60 129/8/60 117/5/60 
f 118/13/46 130/14/46 131/8/46 119/5/46 
s 2
f 133/17/52 134/22/61 135/20/52 136/19/52 
f 135/20/52 137/21/52 136/19/52 
f 133/17/52 136/19/52 138/18/52 
s 4
f 139/23/34 140/26/4 141/25/34 142/24/34 
s 8
f 138/17/20 143/30/20 140/29/20 133/18/20 
f 140/29/20 139/28/20 144/27/20 133/18/20 
s 16
f 138/18/53 136/32/62 145/31/62 143/27/53 
s 32
f 137/33/63 135/36/63 146/35/63 147/34/63 
s 64
f 134/37/64 133/17/65 144/30/64 148/38/64 
s off
f 148/38/66 142/40/66 146/39/66 
f 147/34/67 141/42/67 145/41/67 
f 140/43/68 143/27/68 145/31/68 141/44/68 
f 141/45/69 147/34/69 146/35/69 142/46/69 
f 142/47/70 148/38/70 144/30/70 139/48/70 
f 136/49/71 137/33/71 147/34/71 145/50/71 
f 135/51/72 134/37/72 148/38/72 146/52/72 
s 2
f 149/53/20 150/54/20 151/55/20 152/56/20 
f 151/55/20 153/57/20 152/56/20 
f 152/56/20 154/58/20 155/5/20 149/53/20 
f 156/6/20 149/53/20 155/5/20 
s 4
f 157/1/1 158/2/1 159/3/1 160/4/1 
s 8
f 156/5/2 155/6/2 161/7/2 162/8/2 
s 16
f 154/5/3 152/6/3 163/7/3 164/8/3 
s 32
f 153/5/4 151/6/4 165/7/4 166/8/4 
s 64
f 150/5/5 149/6/5 167/7/5 168/8/5 
s off
f 162/8/35 157/9/35 167/10/35 
f 164/8/36 158/9/36 161/10/36 
f 168/8/37 160/9/37 165/10/37 
f 166/8/38 159/9/38 163/10/38 
f 157/11/73 162/8/73 161/7/73 158/12/73 
f 158/11/40 164/8/40 163/7/40 159/12/40 
f 159/11/74 166/8/74 165/7/74 160/12/74 
f 160/11/42 168/8/42 167/7/42 157/12/42 
f 155/13/43 154/5/43 164/8/43 161/14/43 
f 162/15/44 167/7/44 149/6/44 156/16/44 
f 152/13/45 153/5/45 166/8/45 163/14/45 
f 151/13/46 150/5/46 168/8/46 165/14/46 
s 64
f 169/5/53 170/8/62 171/7/53 172/6/19 
s off
f 173/8/37 171/10/37 174/9/37 
f 170/8/75 175/10/75 176/9/75 
f 176/11/76 174/12/76 171/7/76 170/8/76 
f 173/15/49 177/16/49 172/6/49 171/7/49 
f 178/13/44 175/14/44 170/8/44 169/5/44 
s 32
f 178/6/2 179/6/2 180/7/2 175/7/2 
s off
f 176/12/73 175/7/73 180/7/73 181/12/73 
s 2
f 182/53/20 183/54/20 179/55/20 177/6/20 
f 178/55/20 169/54/20 172/53/20 177/6/20 
f 179/55/20 178/55/20 177/6/20 
f 184/6/20 182/53/20 177/6/20 
s 4
f 174/1/77 176/4/77 181/4/77 185/1/77 
s 8
f 177/5/4 173/8/4 186/8/4 184/5/4 
s 64
f 183/5/78 182/6/79 187/7/78 188/8/18 
s off
f 186/8/38 185/9/38 187/10/38 
f 188/8/80 181/9/80 180/10/80 
f 186/8/81 173/8/81 174/11/81 185/11/81 
f 181/11/82 188/8/82 187/7/82 185/12/82 
f 186/15/48 187/7/48 182/6/48 184/16/48 
f 179/13/43 183/5/43 188/8/43 180/14/43 
s 2
f 189/5/20 190/58/20 191/56/20 192/53/20 
f 191/56/20 193/57/20 194/55/20 192/53/20 
f 194/55/20 195/54/20 192/53/20 
f 196/6/20 189/5/20 192/53/20 
s 4
f 197/1/83 198/4/83 199/3/83 200/2/83 
s 8
f 196/5/2 201/8/2 202/7/2 189/6/2 
s 16
f 190/5/5 203/8/5 204/7/5 191/6/5 
s 32
f 193/5/4 205/8/4 206/7/4 194/6/4 
s 64
f 195/5/3 207/8/3 208/7/3 192/6/3 
s off
f 201/8/36 208/10/36 197/9/36 
f 203/8/35 202/10/35 200/9/35 
f 207/8/38 206/10/38 198/9/38 
f 205/8/37 204/10/37 199/9/37 
f 197/11/84 200/12/84 202/7/84 201/8/84 
f 200/11/42 199/12/42 204/7/42 203/8/42 
f 199/11/85 198/12/85 206/7/85 205/8/85 
f 198/11/40 197/12/40 208/7/40 207/8/40 
f 189/13/44 202/14/44 203/8/44 190/5/44 
f 201/15/43 196/16/43 192/6/43 208/7/43 
f 191/13/49 204/14/49 205/8/49 193/5/49 
f 194/13/45 206/14/45 207/8/45 195/5/45 
s 2
f 209/5/20 210/58/20 211/56/20 212/53/20 
f 211/56/20 213/57/20 214/55/20 212/53/20 
f 214/55/20 215/54/20 212/53/20 
f 216/6/20 209/5/20 212/53/20 
s 4
f 217/1/1 218/4/1 219/3/1 220/2/1 
s 8
f 216/5/2 221/8/2 222/7/2 209/6/2 
s 16
f 210/5/5 223/8/5 224/7/5 211/6/5 
s 32
f 213/5/4 225/8/4 226/7/4 214/6/4 
s 64
f 215/5/3 227/8/3 228/7/3 212/6/3 
s off
f 221/8/36 228/10/36 217/9/36 
f 223/8/35 222/10/35 220/9/35 
f 227/8/38 226/10/38 218/9/38 
f 225/8/37 224/10/37 219/9/37 
f 217/11/73 220/12/73 222/7/73 221/8/73 
f 220/11/42 219/12/42 224/7/42 223/8/42 
f 219/11/74 218/12/74 226/7/74 225/8/74 
f 218/11/40 217/12/40 228/7/40 227/8/40 
f 209/13/44 222/14/44 223/8/44 210/5/44 
f 221/15/43 216/16/43 212/6/43 228/7/43 
f 211/13/46 224/14/46 225/8/46 213/5/46 
f 214/13/45 226/14/45 227/8/45 215/5/45 
s 2
f 229/5/20 230/58/20 231/56/20 232/53/20 
f 231/56/20 233/57/20 234/55/20 232/53/20 
f 234/55/20 235/54/20 232/53/20 
f 236/6/20 229/5/20 232/53/20 
s 4
f 237/1/83 238/4/83 239/3/83 240/2/83 
s 8
f 236/5/2 241/8/2 242/7/2 229/6/2 
s 16
f 230/5/5 243/8/5 244/7/5 231/6/5 
s 32
f 233/5/4 245/8/4 246/7/4 234/6/4 
s 64
f 235/5/3 247/8/3 248/7/3 232/6/3 
s off
f 241/8/36 248/10/36 237/9/36 
f 243/8/35 242/10/35 240/9/35 
f 247/8/38 246/10/38 238/9/38 
f 245/8/37 244/10/37 239/9/37 
f 237/11/84 240/12/84 242/7/84 241/8/84 
f 240/11/42 239/12/42 244/7/42 243/8/42 
f 239/11/85 238/12/85 246/7/85 245/8/85 
f 238/11/40 237/12/40 248/7/40 247/8/40 
f 229/13/44 242/14/44 243/8/44 230/5/44 
f 241/15/43 236/16/43 232/6/43 248/7/43 
f 231/13/46 244/14/46 245/8/46 233/5/46 
f 234/13/45 246/14/45 247/8/45 235/5/45 
s 2
f 249/17/62 250/22/62 251/20/62 252/19/62 
f 251/20/62 253/21/5 252/19/62 
f 249/17/62 252/19/62 254/18/5 
s 4
f 255/23/79 256/26/79 257/25/79 258/24/79 
s 8
f 254/17/20 259/30/20 256/29/20 249/18/20 
f 256/29/20 255/28/20 260/27/20 249/18/20 
s 16
f 254/18/4 252/32/4 261/31/4 259/27/4 
s 32
f 253/33/86 251/36/86 262/35/86 263/34/86 
s 64
f 250/37/87 249/17/22 260/30/87 264/38/87 
s off
f 264/38/88 258/40/88 262/39/88 
f 263/34/89 257/42/89 261/41/89 
f 256/43/90 259/27/90 261/31/90 257/44/90 
f 257/45/91 263/34/91 262/35/91 258/46/91 
f 258/47/92 264/38/92 260/30/92 255/48/92 
f 252/49/93 253/33/93 263/34/93 261/50/93 
f 251/51/94 250/37/94 264/38/94 262/52/94 
s 2
f 265/17/62 266/22/62 267/20/62 268/19/62 
f 267/20/62 269/21/5 268/19/62 
f 265/17/62 268/19/62 270/18/5 
s 4
f 271/23/79 272/26/79 273/25/79 274/24/79 
s 8
f 270/17/20 275/30/20 272/29/20 265/18/20 
f 272/29/20 271/28/20 276/27/20 265/18/20 
s 16
f 270/18/4 268/32/4 277/31/4 275/27/4 
s 32
f 269/33/86 267/36/86 278/35/86 279/34/86 
s 64
f 266/37/87 265/17/22 276/30/87 280/38/87 
s off
f 280/38/88 274/40/88 278/39/88 
f 279/34/95 273/42/95 277/41/95 
f 272/43/90 275/27/90 277/31/90 273/44/90 
f 273/45/91 279/34/91 278/35/91 274/46/91 
f 274/47/92 280/38/92 276/30/92 271/48/92 
f 268/49/96 269/33/96 279/34/96 277/50/96 
f 267/51/94 266/37/94 280/38/94 278/52/94 
s 2
f 281/53/20 282/54/20 283/55/20 284/55/20 
f 284/55/20 285/54/20 286/53/20 287/6/20 
f 281/53/20 284/55/20 287/6/20 288/6/20 
s 4
f 289/1/97 290/4/97 291/4/97 292/1/97 
s 8
f 287/5/2 293/8/2 294/8/2 288/5/2 
s 64
f 282/5/19 281/6/19 295/7/19 296/8/5 
s off
f 294/8/35 292/9/35 295/10/35 
f 296/8/98 291/9/98 297/10/98 
f 294/8/73 293/8/73 289/11/73 292/11/73 
f 291/11/99 296/8/99 295/7/99 292/12/99 
f 294/15/60 295/7/60 281/6/60 288/16/60 
f 283/13/46 282/5/46 296/8/46 297/14/46 
s 32
f 283/6/4 297/7/4 298/7/4 284/6/4 
s off
f 297/7/74 291/12/74 290/12/74 298/7/74 
s 64
f 285/5/79 299/8/3 300/7/79 286/6/79 
s off
f 293/8/36 300/10/36 289/9/36 
f 299/8/100 298/10/100 290/9/100 
f 290/11/101 289/12/101 300/7/101 299/8/101 
f 293/15/102 287/16/102 286/6/102 300/7/102 
f 284/13/45 298/14/45 299/8/45 285/5/45 
s 2
f 301/17/34 302/18/34 303/19/34 304/20/4 
f 303/19/34 305/21/34 304/20/4 
f 301/17/34 304/20/4 306/22/4 
s 4
f 307/23/52 308/24/52 309/25/52 310/26/52 
s 8
f 311/27/20 307/28/20 310/29/20 301/18/20 
f 310/29/20 312/30/20 302/17/20 301/18/20 
s 16
f 302/18/19 312/27/19 313/31/5 303/32/5 
s 32
f 305/33/103 314/34/103 315/35/103 304/36/103 
s 64
f 306/37/65 316/38/65 311/30/65 301/17/65 
s off
f 316/38/104 315/39/104 308/40/104 
f 314/34/105 313/41/105 309/42/105 
f 310/43/106 309/44/106 313/31/106 312/27/106 
f 309/45/107 308/46/107 315/35/107 314/34/107 
f 308/47/108 307/48/108 311/30/108 316/38/108 
f 303/49/109 313/50/109 314/34/109 305/33/109 
f 304/51/110 315/52/110 316/38/110 306/37/110 
s 2
f 317/17/34 318/18/34 319/19/34 320/20/4 
f 319/19/34 321/21/34 320/20/4 
f 317/17/34 320/20/4 322/22/4 
s 4
f 323/23/52 324/24/52 325/25/52 326/26/52 
s 8
f 327/27/20 323/28/20 326/29/20 317/18/20 
f 326/29/20 328/30/20 318/17/20 317/18/20 
s 16
f 318/18/19 328/27/19 329/31/19 319/32/5 
s 32
f 321/33/111 330/34/111 331/35/111 320/36/111 
s 64
f 322/37/65 332/38/65 327/30/65 317/17/65 
s off
f 332/38/104 331/39/104 324/40/104 
f 330/34/105 329/41/105 325/42/105 
f 326/43/106 325/44/106 329/31/106 328/27/106 
f 325/45/112 324/46/112 331/35/112 330/34/112 
f 324/47/108 323/48/108 327/30/108 332/38/108 
f 319/49/113 329/50/113 330/34/113 321/33/113 
f 320/51/114 331/52/114 332/38/114 322/37/114 
s 2
f 333/53/20 334/54/20 335/55/20 336/56/20 
f 335/55/20 337/57/20 336/56/20 
f 336/56/20 338/58/20 339/5/20 333/53/20 
f 340/6/20 333/53/20 339/5/20 
s 4
f 341/1/1 342/2/1 343/3/1 344/4/1 
s 8
f 340/5/2 339/6/2 345/7/2 346/8/2 
s 16
f 338/5/3 336/6/3 347/7/3 348/8/3 
s 32
f 337/5/4 335/6/4 349/7/4 350/8/4 
s 64
f 334/5/5 333/6/5 351/7/5 352/8/5 
s off
f 346/8/35 341/9/35 351/10/35 
f 348/8/36 342/9/36 345/10/36 
f 352/8/37 344/9/37 349/10/37 
f 350/8/38 343/9/38 347/10/38 
f 341/11/73 346/8/73 345/7/73 342/12/73 
f 342/11/40 348/8/40 347/7/40 343/12/40 
f 343/11/74 350/8/74 349/7/74 344/12/74 
f 344/11/42 352/8/42 351/7/42 341/12/42 
f 339/13/43 338/5/43 348/8/43 345/14/43 
f 346/15/44 351/7/44 333/6/44 340/16/44 
f 336/13/45 337/5/45 350/8/45 347/14/45 
f 335/13/46 334/5/46 352/8/46 349/14/46 
s 2
f 353/5/20 354/58/20 355/56/20 356/53/20 
f 355/56/20 357/57/20 358/55/20 356/53/20 
f 358/55/20 359/54/20 356/53/20 
f 360/6/20 353/5/20 356/53/20 
s 4
f 361/1/83 362/4/83 363/3/83 364/2/83 
s 8
f 360/5/2 365/8/2 366/7/2 353/6/2 
s 16
f 354/5/5 367/8/5 368/7/5 355/6/5 
s 32
f 357/5/50 369/8/50 370/7/50 358/6/47 
s 64
f 359/5/3 371/8/3 372/7/3 356/6/3 
s off
f 365/8/36 372/10/36 361/9/36 
f 367/8/35 366/10/35 364/9/35 
f 371/8/38 370/10/38 362/9/38 
f 369/8/37 368/10/37 363/9/37 
f 361/11/84 364/12/84 366/7/84 365/8/84 
f 364/11/42 363/12/42 368/7/42 367/8/42 
f 363/11/85 362/12/85 370/7/85 369/8/85 
f 362/11/40 361/12/40 372/7/40 371/8/40 
f 353/13/44 366/14/44 367/8/44 354/5/44 
f 365/15/43 360/16/43 356/6/43 372/7/43 
f 355/13/49 368/14/49 369/8/49 357/5/49 
f 358/13/45 370/14/45 371/8/45 359/5/45 
s 2
f 373/53/20 374/54/20 375/55/20 376/56/20 
f 375/55/20 377/57/20 376/56/20 
f 376/56/20 378/58/20 379/5/20 373/53/20 
f 380/6/20 373/53/20 379/5/20 
s 4
f 381/1/32 382/2/32 383/3/32 384/4/32 
s 8
f 380/5/33 379/6/2 385/7/33 386/8/33 
s 16
f 378/5/3 376/6/3 387/7/3 388/8/3 
s 32
f 377/5/4 375/6/4 389/7/4 390/8/4 
s 64
f 374/5/5 373/6/5 391/7/5 392/8/5 
s off
f 386/8/35 381/9/35 391/10/35 
f 388/8/36 382/9/36 385/10/36 
f 392/8/37 384/9/37 389/10/37 
f 390/8/38 383/9/38 387/10/38 
f 381/11/39 386/8/39 385/7/39 382/12/39 
f 382/11/40 388/8/40 387/7/40 383/12/40 
f 383/11/41 390/8/41 389/7/41 384/12/41 
f 384/11/42 392/8/42 391/7/42 381/12/42 
f 379/13/43 378/5/43 388/8/43 385/14/43 
f 386/15/44 391/7/44 373/6/44 380/16/44 
f 376/13/45 377/5/45 390/8/45 387/14/45 
f 375/13/46 374/5/46 392/8/46 389/14/46 
s 2
f 393/53/20 394/54/20 395/55/20 396/56/20 
f 395/55/20 397/57/20 396/56/20 
f 396/56/20 398/58/20 399/5/20 393/53/20 
f 400/6/20 393/53/20 399/5/20 
s 4
f 401/1/1 402/2/1 403/3/1 404/4/1 
s 8
f 400/5/2 399/6/2 405/7/2 406/8/2 
s 16
f 398/5/3 396/6/3 407/7/3 408/8/3 
s 32
f 397/5/4 395/6/4 409/7/4 410/8/4 
s 64
f 394/5/5 393/6/5 411/7/5 412/8/5 
s off
f 406/8/35 401/9/35 411/10/35 
f 408/8/36 402/9/36 405/10/36 
f 412/8/37 404/9/37 409/10/37 
f 410/8/38 403/9/38 407/10/38 
f 401/11/73 406/8/73 405/7/73 402/12/73 
f 402/11/40 408/8/40 407/7/40 403/12/40 
f 403/11/74 410/8/74 409/7/74 404/12/74 
f 404/11/42 412/8/42 411/7/42 401/12/42 
f 399/13/43 398/5/43 408/8/43 405/14/43 
f 406/15/44 411/7/44 393/6/44 400/16/44 
f 396/13/45 397/5/45 410/8/45 407/14/45 
f 395/13/46 394/5/46 412/8/46 409/14/46 
# 308 polygons - 114 triangles

